#N canvas 0 23 1440 699 12;
#N canvas 139 141 684 592 CC 0;
#X obj 70 40 inlet loadbang;
#X text 119 458 out to launch->;
#X text 265 15 this module is for CC;
#X text 386 149 do not let 0 value pass;
#X obj 244 166 route 127;
#X obj 243 220 tgl 15 1 empty empty empty 17 7 0 10 #fcfcfc #000000
#000000 1 1;
#X obj 318 418 nbx 5 14 -1e+37 1e+37 0 0 empty empty empty 0 -8 0 10
#fcfcfc #000000 #000000 0 256;
#X obj 275 346 * 34;
#X obj 246 125 ctlin 104 1;
#X obj 147 126 ctlin 105 1;
#X connect 4 0 5 0;
#X connect 5 0 7 0;
#X connect 7 0 6 0;
#X restore 50 45 pd CC button #1 \, input->loadbag;
#X text 925 7 make sure novation is as midi input device #1 and as
output device #1 and output for okta is output device #2;
#N canvas 67 255 684 592 CC 0;
#X obj 70 40 inlet loadbang;
#X text 119 458 out to launch->;
#X text 265 15 this module is for CC;
#X text 386 149 do not let 0 value pass;
#X obj 244 166 route 127;
#X obj 243 220 tgl 15 1 empty empty empty 17 7 0 10 #fcfcfc #000000
#000000 1 1;
#X obj 318 418 nbx 5 14 -1e+37 1e+37 0 0 empty empty empty 0 -8 0 10
#fcfcfc #000000 #000000 0 256;
#X obj 275 346 * 34;
#X obj 246 125 ctlin 110 1;
#X connect 4 0 5 0;
#X connect 5 0 7 0;
#X connect 7 0 6 0;
#X restore 49 66 pd CC button #2 \, input->loadbag;
#X msg 1252 163 0;
#X msg 1303 162 1;
#X msg 1203 165 0;
#X text 1303 113 reset device;
#X obj 1241 236 ctlout 1;
#N canvas 770 120 658 494 page 0;
#X obj 93 91 change;
#X obj 34 117 bng 15 250 50 0 empty empty empty 17 7 0 10 #fcfcfc #000000
#000000;
#X obj 95 115 v temp;
#X obj 83 168 nbx 5 14 -1e+37 1e+37 0 1 empty empty empty 0 -8 0 10
#fcfcfc #000000 #000000 1 256;
#X obj 78 229 route 1 2 3 4 5 6 7 8;
#X msg 217 269 0, f 1;
#X obj 106 188 bng 15 250 50 0 empty empty empty 17 7 0 10 #fcfcfc
#000000 #000000;
#X obj 92 143 spigot;
#X text 142 144 <-check if not zero \, so after reset value is safe
;
#X msg 187 270 0, f 1;
#X msg 167 270 0, f 1;
#X msg 148 268 0, f 1;
#X msg 130 267 0, f 1;
#X msg 111 267 0, f 1;
#X msg 94 265 0, f 1;
#X msg 76 265 0, f 1;
#X obj 61 40 inlet from page selector;
#X obj 404 357 outlet;
#X obj 353 358 outlet;
#X obj 307 358 outlet;
#X obj 256 359 outlet;
#X obj 203 360 outlet;
#X obj 152 361 outlet;
#X obj 106 361 outlet;
#X obj 55 362 outlet;
#X text 236 228 <-send 0 to closed page \, so spigot from that page
is closed;
#X connect 0 0 1 0;
#X connect 0 0 2 0;
#X connect 1 0 2 0;
#X connect 2 0 7 0;
#X connect 2 0 7 1;
#X connect 3 0 4 0;
#X connect 3 0 6 0;
#X connect 4 0 15 0;
#X connect 4 1 14 0;
#X connect 4 2 13 0;
#X connect 4 3 12 0;
#X connect 4 4 11 0;
#X connect 4 5 10 0;
#X connect 4 6 9 0;
#X connect 4 7 5 0;
#X connect 5 0 17 0;
#X connect 7 0 3 0;
#X connect 9 0 18 0;
#X connect 10 0 19 0;
#X connect 11 0 20 0;
#X connect 12 0 21 0;
#X connect 13 0 22 0;
#X connect 14 0 23 0;
#X connect 15 0 24 0;
#X connect 16 0 0 0;
#X restore 46 134 pd page sel OFF;
#N canvas 496 55 773 616 page 0;
#X obj 85 326 route 1 2 3 4 5 6 7 8;
#X msg 212 414 8, f 1;
#X msg 93 414 1, f 1;
#X msg 110 414 2, f 1;
#X msg 128 414 3, f 1;
#X msg 144 414 4, f 1;
#X msg 161 414 5, f 1;
#X msg 178 414 6, f 1;
#X msg 196 414 7, f 1;
#X obj 441 464 outlet;
#X obj 121 181 inlet from PAGE SELECTOR;
#X obj 383 465 outlet;
#X obj 327 465 outlet;
#X obj 275 463 outlet;
#X obj 220 467 outlet;
#X obj 168 465 outlet;
#X obj 112 465 outlet;
#X obj 60 463 outlet;
#X connect 0 0 2 0;
#X connect 0 1 3 0;
#X connect 0 2 4 0;
#X connect 0 3 5 0;
#X connect 0 4 6 0;
#X connect 0 5 7 0;
#X connect 0 6 8 0;
#X connect 0 7 1 0;
#X connect 1 0 9 0;
#X connect 2 0 17 0;
#X connect 3 0 16 0;
#X connect 4 0 15 0;
#X connect 5 0 14 0;
#X connect 6 0 13 0;
#X connect 7 0 12 0;
#X connect 8 0 11 0;
#X connect 10 0 0 0;
#X restore 49 161 pd page sel ON;
#N canvas 166 102 1274 700 mute 0;
#X obj 343 102 notein 1;
#X obj 312 133 spigot 8;
#X obj 390 131 spigot 8;
#N canvas 556 278 682 332 top 0;
#X obj 148 -92 stripnote;
#X obj 202 94 noteout 1;
#X text 4 -139 this is for NOTE;
#X text 88 93 out to launch->;
#X obj 237 -45 tgl 15 1 empty empty empty 17 7 0 10 #fcfcfc #000000
#000000 0 1;
#X obj 149 -17 nbx 5 14 -1e+37 1e+37 0 1 empty empty empty 0 -8 0 10
#fcfcfc #000000 #000000 7 256;
#X obj 148 -40 bng 15 250 50 0 empty empty empty 17 7 0 10 #fcfcfc
#000000 #000000;
#X text 218 -93 ->make sure no double message;
#X text 129 124 out to out to OKTA (CC# \, Channel 16+)->;
#X obj 145 -140 inlet notein NOTE;
#X obj 283 -139 inlet notein VALUE;
#X text 203 -65 ->set button number;
#X text 253 -47 ->this make it toggle button;
#X text 9 -19 ->set button number;
#X obj 432 -141 inlet for bang recall VALUE;
#X obj 486 -66 bng 15 250 50 0 empty empty empty 17 7 0 10 #fcfcfc
#000000 #000000;
#X obj 408 122 ctlout 49 17;
#X text 272 13 ->pad color OFF;
#X text 272 40 ->pad color ON;
#X obj 239 41 + 48;
#X obj 239 13 * 30;
#X obj 148 -65 route 7;
#X connect 0 0 21 0;
#X connect 4 0 16 0;
#X connect 4 0 20 0;
#X connect 5 0 1 0;
#X connect 6 0 5 0;
#X connect 9 0 0 0;
#X connect 10 0 0 1;
#X connect 14 0 15 0;
#X connect 15 0 5 0;
#X connect 19 0 1 1;
#X connect 20 0 19 0;
#X connect 21 0 4 0;
#X connect 21 0 6 0;
#X coords 0 332 1 331 85 60 0;
#X restore 46 278 pd top button row #1 MUTES;
#N canvas 556 278 682 332 top 0;
#X obj 148 -92 stripnote;
#X obj 202 94 noteout 1;
#X text 4 -139 this is for NOTE;
#X text 88 93 out to launch->;
#X obj 237 -45 tgl 15 1 empty empty empty 17 7 0 10 #fcfcfc #000000
#000000 0 1;
#X obj 149 -17 nbx 5 14 -1e+37 1e+37 0 1 empty empty empty 0 -8 0 10
#fcfcfc #000000 #000000 23 256;
#X obj 148 -40 bng 15 250 50 0 empty empty empty 17 7 0 10 #fcfcfc
#000000 #000000;
#X obj 239 41 + 48;
#X obj 239 13 * 30;
#X text 218 -93 ->make sure no double message;
#X text 129 124 out to out to OKTA (CC# \, Channel 16+)->;
#X obj 145 -140 inlet notein NOTE;
#X obj 283 -139 inlet notein VALUE;
#X text 203 -65 ->set button number;
#X text 253 -47 ->this make it toggle button;
#X text 9 -19 ->set button number;
#X obj 432 -141 inlet for bang recall VALUE;
#X obj 486 -66 bng 15 250 50 0 empty empty empty 17 7 0 10 #fcfcfc
#000000 #000000;
#X obj 408 122 ctlout 49 18;
#X text 272 13 ->pad color OFF;
#X text 272 40 ->pad color ON;
#X obj 148 -65 route 23;
#X connect 0 0 21 0;
#X connect 4 0 8 0;
#X connect 4 0 18 0;
#X connect 5 0 1 0;
#X connect 6 0 5 0;
#X connect 7 0 1 1;
#X connect 8 0 7 0;
#X connect 11 0 0 0;
#X connect 12 0 0 1;
#X connect 16 0 17 0;
#X connect 17 0 5 0;
#X connect 21 0 4 0;
#X connect 21 0 6 0;
#X coords 0 332 1 331 85 60 0;
#X restore 46 299 pd top button row #2 MUTES;
#N canvas 556 278 682 332 top 0;
#X obj 148 -92 stripnote;
#X obj 202 94 noteout 1;
#X text 4 -139 this is for NOTE;
#X text 88 93 out to launch->;
#X obj 237 -45 tgl 15 1 empty empty empty 17 7 0 10 #fcfcfc #000000
#000000 0 1;
#X obj 149 -17 nbx 5 14 -1e+37 1e+37 0 1 empty empty empty 0 -8 0 10
#fcfcfc #000000 #000000 39 256;
#X obj 148 -40 bng 15 250 50 0 empty empty empty 17 7 0 10 #fcfcfc
#000000 #000000;
#X obj 239 41 + 48;
#X obj 239 13 * 30;
#X text 218 -93 ->make sure no double message;
#X text 129 124 out to out to OKTA (CC# \, Channel 16+)->;
#X obj 145 -140 inlet notein NOTE;
#X obj 283 -139 inlet notein VALUE;
#X text 203 -65 ->set button number;
#X text 253 -47 ->this make it toggle button;
#X text 9 -19 ->set button number;
#X obj 432 -141 inlet for bang recall VALUE;
#X obj 486 -66 bng 15 250 50 0 empty empty empty 17 7 0 10 #fcfcfc
#000000 #000000;
#X obj 408 122 ctlout 49 19;
#X text 272 13 ->pad color OFF;
#X text 272 40 ->pad color ON;
#X obj 148 -65 route 39;
#X connect 0 0 21 0;
#X connect 4 0 8 0;
#X connect 4 0 18 0;
#X connect 5 0 1 0;
#X connect 6 0 5 0;
#X connect 7 0 1 1;
#X connect 8 0 7 0;
#X connect 11 0 0 0;
#X connect 12 0 0 1;
#X connect 16 0 17 0;
#X connect 17 0 5 0;
#X connect 21 0 4 0;
#X connect 21 0 6 0;
#X coords 0 332 1 331 85 60 0;
#X restore 46 319 pd top button row #3 MUTES;
#N canvas 556 278 682 332 top 0;
#X obj 148 -92 stripnote;
#X obj 202 94 noteout 1;
#X text 4 -139 this is for NOTE;
#X text 88 93 out to launch->;
#X obj 237 -45 tgl 15 1 empty empty empty 17 7 0 10 #fcfcfc #000000
#000000 1 1;
#X obj 149 -17 nbx 5 14 -1e+37 1e+37 0 1 empty empty empty 0 -8 0 10
#fcfcfc #000000 #000000 55 256;
#X obj 148 -40 bng 15 250 50 0 empty empty empty 17 7 0 10 #fcfcfc
#000000 #000000;
#X obj 239 41 + 48;
#X obj 239 13 * 30;
#X text 218 -93 ->make sure no double message;
#X text 129 124 out to out to OKTA (CC# \, Channel 16+)->;
#X obj 145 -140 inlet notein NOTE;
#X obj 283 -139 inlet notein VALUE;
#X text 203 -65 ->set button number;
#X text 253 -47 ->this make it toggle button;
#X text 9 -19 ->set button number;
#X obj 432 -141 inlet for bang recall VALUE;
#X obj 486 -66 bng 15 250 50 0 empty empty empty 17 7 0 10 #fcfcfc
#000000 #000000;
#X obj 408 122 ctlout 49 20;
#X text 272 13 ->pad color OFF;
#X text 272 40 ->pad color ON;
#X obj 148 -65 route 55;
#X connect 0 0 21 0;
#X connect 4 0 8 0;
#X connect 4 0 18 0;
#X connect 5 0 1 0;
#X connect 6 0 5 0;
#X connect 7 0 1 1;
#X connect 8 0 7 0;
#X connect 11 0 0 0;
#X connect 12 0 0 1;
#X connect 16 0 17 0;
#X connect 17 0 5 0;
#X connect 21 0 4 0;
#X connect 21 0 6 0;
#X coords 0 332 1 331 85 60 0;
#X restore 46 340 pd top button row #4 MUTES;
#N canvas 556 278 682 332 top 0;
#X obj 148 -92 stripnote;
#X obj 202 94 noteout 1;
#X text 4 -139 this is for NOTE;
#X text 88 93 out to launch->;
#X obj 237 -45 tgl 15 1 empty empty empty 17 7 0 10 #fcfcfc #000000
#000000 1 1;
#X obj 149 -17 nbx 5 14 -1e+37 1e+37 0 1 empty empty empty 0 -8 0 10
#fcfcfc #000000 #000000 71 256;
#X obj 148 -40 bng 15 250 50 0 empty empty empty 17 7 0 10 #fcfcfc
#000000 #000000;
#X obj 239 41 + 48;
#X obj 239 13 * 30;
#X text 218 -93 ->make sure no double message;
#X text 129 124 out to out to OKTA (CC# \, Channel 16+)->;
#X obj 145 -140 inlet notein NOTE;
#X obj 283 -139 inlet notein VALUE;
#X text 203 -65 ->set button number;
#X text 253 -47 ->this make it toggle button;
#X text 9 -19 ->set button number;
#X obj 432 -141 inlet for bang recall VALUE;
#X obj 486 -66 bng 15 250 50 0 empty empty empty 17 7 0 10 #fcfcfc
#000000 #000000;
#X obj 408 122 ctlout 49 21;
#X text 272 13 ->pad color OFF;
#X text 272 40 ->pad color ON;
#X obj 148 -65 route 71;
#X connect 0 0 21 0;
#X connect 4 0 8 0;
#X connect 4 0 18 0;
#X connect 5 0 1 0;
#X connect 6 0 5 0;
#X connect 7 0 1 1;
#X connect 8 0 7 0;
#X connect 11 0 0 0;
#X connect 12 0 0 1;
#X connect 16 0 17 0;
#X connect 17 0 5 0;
#X connect 21 0 4 0;
#X connect 21 0 6 0;
#X coords 0 332 1 331 85 60 0;
#X restore 45 362 pd top button row #5 MUTES;
#N canvas 556 278 682 332 top 0;
#X obj 148 -92 stripnote;
#X obj 202 94 noteout 1;
#X text 4 -139 this is for NOTE;
#X text 88 93 out to launch->;
#X obj 237 -45 tgl 15 1 empty empty empty 17 7 0 10 #fcfcfc #000000
#000000 0 1;
#X obj 149 -17 nbx 5 14 -1e+37 1e+37 0 1 empty empty empty 0 -8 0 10
#fcfcfc #000000 #000000 87 256;
#X obj 148 -40 bng 15 250 50 0 empty empty empty 17 7 0 10 #fcfcfc
#000000 #000000;
#X obj 239 41 + 48;
#X obj 239 13 * 30;
#X text 218 -93 ->make sure no double message;
#X text 129 124 out to out to OKTA (CC# \, Channel 16+)->;
#X obj 145 -140 inlet notein NOTE;
#X obj 283 -139 inlet notein VALUE;
#X text 203 -65 ->set button number;
#X text 253 -47 ->this make it toggle button;
#X text 9 -19 ->set button number;
#X obj 432 -141 inlet for bang recall VALUE;
#X obj 486 -66 bng 15 250 50 0 empty empty empty 17 7 0 10 #fcfcfc
#000000 #000000;
#X obj 408 122 ctlout 49 22;
#X text 272 13 ->pad color OFF;
#X text 272 40 ->pad color ON;
#X obj 148 -65 route 87;
#X connect 0 0 21 0;
#X connect 4 0 8 0;
#X connect 4 0 18 0;
#X connect 5 0 1 0;
#X connect 6 0 5 0;
#X connect 7 0 1 1;
#X connect 8 0 7 0;
#X connect 11 0 0 0;
#X connect 12 0 0 1;
#X connect 16 0 17 0;
#X connect 17 0 5 0;
#X connect 21 0 4 0;
#X connect 21 0 6 0;
#X coords 0 332 1 331 85 60 0;
#X restore 45 383 pd top button row #6 MUTES;
#N canvas 556 278 682 332 top 0;
#X obj 148 -92 stripnote;
#X obj 202 94 noteout 1;
#X text 4 -139 this is for NOTE;
#X text 88 93 out to launch->;
#X obj 237 -45 tgl 15 1 empty empty empty 17 7 0 10 #fcfcfc #000000
#000000 0 1;
#X obj 149 -17 nbx 5 14 -1e+37 1e+37 0 1 empty empty empty 0 -8 0 10
#fcfcfc #000000 #000000 103 256;
#X obj 148 -40 bng 15 250 50 0 empty empty empty 17 7 0 10 #fcfcfc
#000000 #000000;
#X obj 239 41 + 48;
#X obj 239 13 * 30;
#X text 218 -93 ->make sure no double message;
#X text 129 124 out to out to OKTA (CC# \, Channel 16+)->;
#X obj 145 -140 inlet notein NOTE;
#X obj 283 -139 inlet notein VALUE;
#X text 203 -65 ->set button number;
#X text 253 -47 ->this make it toggle button;
#X text 9 -19 ->set button number;
#X obj 432 -141 inlet for bang recall VALUE;
#X obj 486 -66 bng 15 250 50 0 empty empty empty 17 7 0 10 #fcfcfc
#000000 #000000;
#X obj 408 122 ctlout 49 23;
#X text 272 13 ->pad color OFF;
#X text 272 40 ->pad color ON;
#X obj 137 -65 route 103;
#X connect 0 0 21 0;
#X connect 4 0 8 0;
#X connect 4 0 18 0;
#X connect 5 0 1 0;
#X connect 6 0 5 0;
#X connect 7 0 1 1;
#X connect 8 0 7 0;
#X connect 11 0 0 0;
#X connect 12 0 0 1;
#X connect 16 0 17 0;
#X connect 17 0 5 0;
#X connect 21 0 4 0;
#X connect 21 0 6 0;
#X coords 0 332 1 331 85 60 0;
#X restore 45 403 pd top button row #7 MUTES;
#N canvas 556 278 682 332 top 0;
#X obj 148 -92 stripnote;
#X obj 202 94 noteout 1;
#X text 4 -139 this is for NOTE;
#X text 88 93 out to launch->;
#X obj 237 -45 tgl 15 1 empty empty empty 17 7 0 10 #fcfcfc #000000
#000000 1 1;
#X obj 149 -17 nbx 5 14 -1e+37 1e+37 0 1 empty empty empty 0 -8 0 10
#fcfcfc #000000 #000000 119 256;
#X obj 148 -40 bng 15 250 50 0 empty empty empty 17 7 0 10 #fcfcfc
#000000 #000000;
#X obj 239 41 + 48;
#X obj 239 13 * 30;
#X text 218 -93 ->make sure no double message;
#X text 129 124 out to out to OKTA (CC# \, Channel 16+)->;
#X obj 145 -140 inlet notein NOTE;
#X obj 283 -139 inlet notein VALUE;
#X text 203 -65 ->set button number;
#X text 253 -47 ->this make it toggle button;
#X text 9 -19 ->set button number;
#X obj 432 -141 inlet for bang recall VALUE;
#X obj 486 -66 bng 15 250 50 0 empty empty empty 17 7 0 10 #fcfcfc
#000000 #000000;
#X obj 408 122 ctlout 49 24;
#X text 272 13 ->pad color OFF;
#X text 272 40 ->pad color ON;
#X obj 135 -66 route 119;
#X connect 0 0 21 0;
#X connect 4 0 8 0;
#X connect 4 0 18 0;
#X connect 5 0 1 0;
#X connect 6 0 5 0;
#X connect 7 0 1 1;
#X connect 8 0 7 0;
#X connect 11 0 0 0;
#X connect 12 0 0 1;
#X connect 16 0 17 0;
#X connect 17 0 5 0;
#X connect 21 0 4 0;
#X connect 21 0 6 0;
#X coords 0 332 1 331 85 60 0;
#X restore 45 424 pd top button row #8 MUTES;
#X obj 138 98 bang recall;
#X text 1 82 recall buttons state after selecting this page;
#X text 456 133 <-both SPIGOT's open/close incoming data from notein
need to set according to desired page 8 \, 7 \, 6 \, 5....;
#N canvas 556 278 682 332 top 0;
#X obj 148 -92 stripnote;
#X obj 202 94 noteout 1;
#X text 4 -139 this is for NOTE;
#X text 88 93 out to launch->;
#X obj 237 -45 tgl 15 1 empty empty empty 17 7 0 10 #fcfcfc #000000
#000000 0 1;
#X obj 149 -17 nbx 5 14 -1e+37 1e+37 0 1 empty empty empty 0 -8 0 10
#fcfcfc #000000 #000000 6 256;
#X obj 148 -40 bng 15 250 50 0 empty empty empty 17 7 0 10 #fcfcfc
#000000 #000000;
#X text 218 -93 ->make sure no double message;
#X text 129 124 out to out to OKTA (CC# \, Channel 16+)->;
#X obj 145 -140 inlet notein NOTE;
#X obj 283 -139 inlet notein VALUE;
#X text 203 -65 ->set button number;
#X text 253 -47 ->this make it toggle button;
#X text 9 -19 ->set button number;
#X obj 432 -141 inlet for bang recall VALUE;
#X obj 486 -66 bng 15 250 50 0 empty empty empty 17 7 0 10 #fcfcfc
#000000 #000000;
#X text 272 13 ->pad color OFF;
#X text 272 40 ->pad color ON;
#X obj 239 41 + 48;
#X obj 148 -65 route 6;
#X obj 239 13 * 34;
#X obj 408 122 ctlout 50 17;
#X connect 0 0 19 0;
#X connect 4 0 20 0;
#X connect 4 0 21 0;
#X connect 5 0 1 0;
#X connect 6 0 5 0;
#X connect 9 0 0 0;
#X connect 10 0 0 1;
#X connect 14 0 15 0;
#X connect 15 0 5 0;
#X connect 18 0 1 1;
#X connect 19 0 4 0;
#X connect 19 0 6 0;
#X connect 20 0 18 0;
#X coords 0 332 1 331 85 60 0;
#X restore 307 283 pd top button row #1 SOLO;
#N canvas 556 278 682 332 top 0;
#X obj 148 -92 stripnote;
#X obj 202 94 noteout 1;
#X text 4 -139 this is for NOTE;
#X text 88 93 out to launch->;
#X obj 237 -45 tgl 15 1 empty empty empty 17 7 0 10 #fcfcfc #000000
#000000 0 1;
#X obj 149 -17 nbx 5 14 -1e+37 1e+37 0 1 empty empty empty 0 -8 0 10
#fcfcfc #000000 #000000 22 256;
#X obj 148 -40 bng 15 250 50 0 empty empty empty 17 7 0 10 #fcfcfc
#000000 #000000;
#X obj 239 41 + 48;
#X text 218 -93 ->make sure no double message;
#X text 129 124 out to out to OKTA (CC# \, Channel 16+)->;
#X obj 145 -140 inlet notein NOTE;
#X obj 283 -139 inlet notein VALUE;
#X text 203 -65 ->set button number;
#X text 253 -47 ->this make it toggle button;
#X text 9 -19 ->set button number;
#X obj 432 -141 inlet for bang recall VALUE;
#X obj 486 -66 bng 15 250 50 0 empty empty empty 17 7 0 10 #fcfcfc
#000000 #000000;
#X text 272 13 ->pad color OFF;
#X text 272 40 ->pad color ON;
#X obj 148 -65 route 22;
#X obj 239 13 * 34;
#X obj 408 122 ctlout 50 18;
#X connect 0 0 19 0;
#X connect 4 0 20 0;
#X connect 4 0 21 0;
#X connect 5 0 1 0;
#X connect 6 0 5 0;
#X connect 7 0 1 1;
#X connect 10 0 0 0;
#X connect 11 0 0 1;
#X connect 15 0 16 0;
#X connect 16 0 5 0;
#X connect 19 0 4 0;
#X connect 19 0 6 0;
#X connect 20 0 7 0;
#X coords 0 332 1 331 85 60 0;
#X restore 307 304 pd top button row #2 SOLO;
#N canvas 556 278 682 332 top 0;
#X obj 148 -92 stripnote;
#X obj 202 94 noteout 1;
#X text 4 -139 this is for NOTE;
#X text 88 93 out to launch->;
#X obj 237 -45 tgl 15 1 empty empty empty 17 7 0 10 #fcfcfc #000000
#000000 0 1;
#X obj 149 -17 nbx 5 14 -1e+37 1e+37 0 1 empty empty empty 0 -8 0 10
#fcfcfc #000000 #000000 38 256;
#X obj 148 -40 bng 15 250 50 0 empty empty empty 17 7 0 10 #fcfcfc
#000000 #000000;
#X obj 239 41 + 48;
#X text 218 -93 ->make sure no double message;
#X text 129 124 out to out to OKTA (CC# \, Channel 16+)->;
#X obj 145 -140 inlet notein NOTE;
#X obj 283 -139 inlet notein VALUE;
#X text 203 -65 ->set button number;
#X text 253 -47 ->this make it toggle button;
#X text 9 -19 ->set button number;
#X obj 432 -141 inlet for bang recall VALUE;
#X obj 486 -66 bng 15 250 50 0 empty empty empty 17 7 0 10 #fcfcfc
#000000 #000000;
#X text 272 13 ->pad color OFF;
#X text 272 40 ->pad color ON;
#X obj 148 -65 route 38;
#X obj 239 13 * 34;
#X obj 408 122 ctlout 50 19;
#X connect 0 0 19 0;
#X connect 4 0 20 0;
#X connect 4 0 21 0;
#X connect 5 0 1 0;
#X connect 6 0 5 0;
#X connect 7 0 1 1;
#X connect 10 0 0 0;
#X connect 11 0 0 1;
#X connect 15 0 16 0;
#X connect 16 0 5 0;
#X connect 19 0 4 0;
#X connect 19 0 6 0;
#X connect 20 0 7 0;
#X coords 0 332 1 331 85 60 0;
#X restore 307 324 pd top button row #3 SOLO;
#N canvas 556 278 682 332 top 0;
#X obj 148 -92 stripnote;
#X obj 202 94 noteout 1;
#X text 4 -139 this is for NOTE;
#X text 88 93 out to launch->;
#X obj 237 -45 tgl 15 1 empty empty empty 17 7 0 10 #fcfcfc #000000
#000000 0 1;
#X obj 149 -17 nbx 5 14 -1e+37 1e+37 0 1 empty empty empty 0 -8 0 10
#fcfcfc #000000 #000000 54 256;
#X obj 148 -40 bng 15 250 50 0 empty empty empty 17 7 0 10 #fcfcfc
#000000 #000000;
#X obj 239 41 + 48;
#X text 218 -93 ->make sure no double message;
#X text 129 124 out to out to OKTA (CC# \, Channel 16+)->;
#X obj 145 -140 inlet notein NOTE;
#X obj 283 -139 inlet notein VALUE;
#X text 203 -65 ->set button number;
#X text 253 -47 ->this make it toggle button;
#X text 9 -19 ->set button number;
#X obj 432 -141 inlet for bang recall VALUE;
#X obj 486 -66 bng 15 250 50 0 empty empty empty 17 7 0 10 #fcfcfc
#000000 #000000;
#X text 272 13 ->pad color OFF;
#X text 272 40 ->pad color ON;
#X obj 148 -65 route 54;
#X obj 239 13 * 34;
#X obj 408 122 ctlout 50 20;
#X connect 0 0 19 0;
#X connect 4 0 20 0;
#X connect 4 0 21 0;
#X connect 5 0 1 0;
#X connect 6 0 5 0;
#X connect 7 0 1 1;
#X connect 10 0 0 0;
#X connect 11 0 0 1;
#X connect 15 0 16 0;
#X connect 16 0 5 0;
#X connect 19 0 4 0;
#X connect 19 0 6 0;
#X connect 20 0 7 0;
#X coords 0 332 1 331 85 60 0;
#X restore 307 345 pd top button row #4 SOLO;
#N canvas 556 278 682 332 top 0;
#X obj 148 -92 stripnote;
#X obj 202 94 noteout 1;
#X text 4 -139 this is for NOTE;
#X text 88 93 out to launch->;
#X obj 237 -45 tgl 15 1 empty empty empty 17 7 0 10 #fcfcfc #000000
#000000 0 1;
#X obj 149 -17 nbx 5 14 -1e+37 1e+37 0 1 empty empty empty 0 -8 0 10
#fcfcfc #000000 #000000 70 256;
#X obj 148 -40 bng 15 250 50 0 empty empty empty 17 7 0 10 #fcfcfc
#000000 #000000;
#X obj 239 41 + 48;
#X text 218 -93 ->make sure no double message;
#X text 129 124 out to out to OKTA (CC# \, Channel 16+)->;
#X obj 145 -140 inlet notein NOTE;
#X obj 283 -139 inlet notein VALUE;
#X text 203 -65 ->set button number;
#X text 253 -47 ->this make it toggle button;
#X text 9 -19 ->set button number;
#X obj 432 -141 inlet for bang recall VALUE;
#X obj 486 -66 bng 15 250 50 0 empty empty empty 17 7 0 10 #fcfcfc
#000000 #000000;
#X text 272 13 ->pad color OFF;
#X text 272 40 ->pad color ON;
#X obj 148 -65 route 70;
#X obj 239 13 * 34;
#X obj 408 122 ctlout 50 21;
#X connect 0 0 19 0;
#X connect 4 0 20 0;
#X connect 4 0 21 0;
#X connect 5 0 1 0;
#X connect 6 0 5 0;
#X connect 7 0 1 1;
#X connect 10 0 0 0;
#X connect 11 0 0 1;
#X connect 15 0 16 0;
#X connect 16 0 5 0;
#X connect 19 0 4 0;
#X connect 19 0 6 0;
#X connect 20 0 7 0;
#X coords 0 332 1 331 85 60 0;
#X restore 306 367 pd top button row #5 SOLO;
#N canvas 556 278 682 332 top 0;
#X obj 148 -92 stripnote;
#X obj 202 94 noteout 1;
#X text 4 -139 this is for NOTE;
#X text 88 93 out to launch->;
#X obj 237 -45 tgl 15 1 empty empty empty 17 7 0 10 #fcfcfc #000000
#000000 0 1;
#X obj 149 -17 nbx 5 14 -1e+37 1e+37 0 1 empty empty empty 0 -8 0 10
#fcfcfc #000000 #000000 86 256;
#X obj 148 -40 bng 15 250 50 0 empty empty empty 17 7 0 10 #fcfcfc
#000000 #000000;
#X obj 239 41 + 48;
#X text 218 -93 ->make sure no double message;
#X text 129 124 out to out to OKTA (CC# \, Channel 16+)->;
#X obj 145 -140 inlet notein NOTE;
#X obj 283 -139 inlet notein VALUE;
#X text 203 -65 ->set button number;
#X text 253 -47 ->this make it toggle button;
#X text 9 -19 ->set button number;
#X obj 432 -141 inlet for bang recall VALUE;
#X obj 486 -66 bng 15 250 50 0 empty empty empty 17 7 0 10 #fcfcfc
#000000 #000000;
#X text 272 13 ->pad color OFF;
#X text 272 40 ->pad color ON;
#X obj 148 -65 route 86;
#X obj 239 13 * 34;
#X obj 408 122 ctlout 50 22;
#X connect 0 0 19 0;
#X connect 4 0 20 0;
#X connect 4 0 21 0;
#X connect 5 0 1 0;
#X connect 6 0 5 0;
#X connect 7 0 1 1;
#X connect 10 0 0 0;
#X connect 11 0 0 1;
#X connect 15 0 16 0;
#X connect 16 0 5 0;
#X connect 19 0 4 0;
#X connect 19 0 6 0;
#X connect 20 0 7 0;
#X coords 0 332 1 331 85 60 0;
#X restore 306 388 pd top button row #6 SOLO;
#N canvas 556 278 682 332 top 0;
#X obj 148 -92 stripnote;
#X obj 202 94 noteout 1;
#X text 4 -139 this is for NOTE;
#X text 88 93 out to launch->;
#X obj 237 -45 tgl 15 1 empty empty empty 17 7 0 10 #fcfcfc #000000
#000000 0 1;
#X obj 149 -17 nbx 5 14 -1e+37 1e+37 0 1 empty empty empty 0 -8 0 10
#fcfcfc #000000 #000000 102 256;
#X obj 148 -40 bng 15 250 50 0 empty empty empty 17 7 0 10 #fcfcfc
#000000 #000000;
#X obj 239 41 + 48;
#X text 218 -93 ->make sure no double message;
#X text 129 124 out to out to OKTA (CC# \, Channel 16+)->;
#X obj 145 -140 inlet notein NOTE;
#X obj 283 -139 inlet notein VALUE;
#X text 203 -65 ->set button number;
#X text 253 -47 ->this make it toggle button;
#X text 9 -19 ->set button number;
#X obj 432 -141 inlet for bang recall VALUE;
#X obj 486 -66 bng 15 250 50 0 empty empty empty 17 7 0 10 #fcfcfc
#000000 #000000;
#X text 272 13 ->pad color OFF;
#X text 272 40 ->pad color ON;
#X obj 137 -65 route 102;
#X obj 239 13 * 34;
#X obj 408 122 ctlout 50 23;
#X connect 0 0 19 0;
#X connect 4 0 20 0;
#X connect 4 0 21 0;
#X connect 5 0 1 0;
#X connect 6 0 5 0;
#X connect 7 0 1 1;
#X connect 10 0 0 0;
#X connect 11 0 0 1;
#X connect 15 0 16 0;
#X connect 16 0 5 0;
#X connect 19 0 4 0;
#X connect 19 0 6 0;
#X connect 20 0 7 0;
#X coords 0 332 1 331 85 60 0;
#X restore 306 408 pd top button row #7 SOLO;
#N canvas 556 278 682 332 top 0;
#X obj 148 -92 stripnote;
#X obj 202 94 noteout 1;
#X text 4 -139 this is for NOTE;
#X text 88 93 out to launch->;
#X obj 237 -45 tgl 15 1 empty empty empty 17 7 0 10 #fcfcfc #000000
#000000 0 1;
#X obj 149 -17 nbx 5 14 -1e+37 1e+37 0 1 empty empty empty 0 -8 0 10
#fcfcfc #000000 #000000 118 256;
#X obj 148 -40 bng 15 250 50 0 empty empty empty 17 7 0 10 #fcfcfc
#000000 #000000;
#X obj 239 41 + 48;
#X text 218 -93 ->make sure no double message;
#X text 129 124 out to out to OKTA (CC# \, Channel 16+)->;
#X obj 145 -140 inlet notein NOTE;
#X obj 283 -139 inlet notein VALUE;
#X text 203 -65 ->set button number;
#X text 253 -47 ->this make it toggle button;
#X text 9 -19 ->set button number;
#X obj 432 -141 inlet for bang recall VALUE;
#X obj 486 -66 bng 15 250 50 0 empty empty empty 17 7 0 10 #fcfcfc
#000000 #000000;
#X text 272 13 ->pad color OFF;
#X text 272 40 ->pad color ON;
#X obj 135 -66 route 118;
#X obj 239 13 * 34;
#X obj 408 122 ctlout 50 24;
#X connect 0 0 19 0;
#X connect 4 0 20 0;
#X connect 4 0 21 0;
#X connect 5 0 1 0;
#X connect 6 0 5 0;
#X connect 7 0 1 1;
#X connect 10 0 0 0;
#X connect 11 0 0 1;
#X connect 15 0 16 0;
#X connect 16 0 5 0;
#X connect 19 0 4 0;
#X connect 19 0 6 0;
#X connect 20 0 7 0;
#X coords 0 332 1 331 85 60 0;
#X restore 306 429 pd top button row #8 SOLO;
#N canvas 556 278 682 332 top 0;
#X obj 148 -92 stripnote;
#X obj 202 94 noteout 1;
#X text 4 -139 this is for NOTE;
#X text 88 93 out to launch->;
#X obj 237 -45 tgl 15 1 empty empty empty 17 7 0 10 #fcfcfc #000000
#000000 0 1;
#X obj 149 -17 nbx 5 14 -1e+37 1e+37 0 1 empty empty empty 0 -8 0 10
#fcfcfc #000000 #000000 5 256;
#X obj 148 -40 bng 15 250 50 0 empty empty empty 17 7 0 10 #fcfcfc
#000000 #000000;
#X text 218 -93 ->make sure no double message;
#X text 129 124 out to out to OKTA (CC# \, Channel 16+)->;
#X obj 145 -140 inlet notein NOTE;
#X obj 283 -139 inlet notein VALUE;
#X text 203 -65 ->set button number;
#X text 253 -47 ->this make it toggle button;
#X text 9 -19 ->set button number;
#X obj 432 -141 inlet for bang recall VALUE;
#X obj 486 -66 bng 15 250 50 0 empty empty empty 17 7 0 10 #fcfcfc
#000000 #000000;
#X text 272 13 ->pad color OFF;
#X text 272 40 ->pad color ON;
#X obj 239 41 + 48;
#X obj 239 13 * 78;
#X obj 148 -65 route 5;
#X obj 408 122 ctlout 51 17;
#X connect 0 0 20 0;
#X connect 4 0 19 0;
#X connect 4 0 21 0;
#X connect 5 0 1 0;
#X connect 6 0 5 0;
#X connect 9 0 0 0;
#X connect 10 0 0 1;
#X connect 14 0 15 0;
#X connect 15 0 5 0;
#X connect 18 0 1 1;
#X connect 19 0 18 0;
#X connect 20 0 4 0;
#X connect 20 0 6 0;
#X coords 0 332 1 331 85 60 0;
#X restore 547 283 pd top button row #1 CUE;
#N canvas 556 278 682 332 top 0;
#X obj 148 -92 stripnote;
#X obj 202 94 noteout 1;
#X text 4 -139 this is for NOTE;
#X text 88 93 out to launch->;
#X obj 237 -45 tgl 15 1 empty empty empty 17 7 0 10 #fcfcfc #000000
#000000 0 1;
#X obj 149 -17 nbx 5 14 -1e+37 1e+37 0 1 empty empty empty 0 -8 0 10
#fcfcfc #000000 #000000 21 256;
#X obj 148 -40 bng 15 250 50 0 empty empty empty 17 7 0 10 #fcfcfc
#000000 #000000;
#X obj 239 41 + 48;
#X text 218 -93 ->make sure no double message;
#X text 129 124 out to out to OKTA (CC# \, Channel 16+)->;
#X obj 145 -140 inlet notein NOTE;
#X obj 283 -139 inlet notein VALUE;
#X text 203 -65 ->set button number;
#X text 253 -47 ->this make it toggle button;
#X text 9 -19 ->set button number;
#X obj 432 -141 inlet for bang recall VALUE;
#X obj 486 -66 bng 15 250 50 0 empty empty empty 17 7 0 10 #fcfcfc
#000000 #000000;
#X text 272 13 ->pad color OFF;
#X text 272 40 ->pad color ON;
#X obj 148 -65 route 21;
#X obj 239 13 * 78;
#X obj 408 122 ctlout 51 18;
#X connect 0 0 19 0;
#X connect 4 0 20 0;
#X connect 4 0 21 0;
#X connect 5 0 1 0;
#X connect 6 0 5 0;
#X connect 7 0 1 1;
#X connect 10 0 0 0;
#X connect 11 0 0 1;
#X connect 15 0 16 0;
#X connect 16 0 5 0;
#X connect 19 0 4 0;
#X connect 19 0 6 0;
#X connect 20 0 7 0;
#X coords 0 332 1 331 85 60 0;
#X restore 548 305 pd top button row #2 CUE;
#N canvas 556 278 682 332 top 0;
#X obj 148 -92 stripnote;
#X obj 202 94 noteout 1;
#X text 4 -139 this is for NOTE;
#X text 88 93 out to launch->;
#X obj 237 -45 tgl 15 1 empty empty empty 17 7 0 10 #fcfcfc #000000
#000000 0 1;
#X obj 149 -17 nbx 5 14 -1e+37 1e+37 0 1 empty empty empty 0 -8 0 10
#fcfcfc #000000 #000000 37 256;
#X obj 148 -40 bng 15 250 50 0 empty empty empty 17 7 0 10 #fcfcfc
#000000 #000000;
#X obj 239 41 + 48;
#X text 218 -93 ->make sure no double message;
#X text 129 124 out to out to OKTA (CC# \, Channel 16+)->;
#X obj 145 -140 inlet notein NOTE;
#X obj 283 -139 inlet notein VALUE;
#X text 203 -65 ->set button number;
#X text 253 -47 ->this make it toggle button;
#X text 9 -19 ->set button number;
#X obj 432 -141 inlet for bang recall VALUE;
#X obj 486 -66 bng 15 250 50 0 empty empty empty 17 7 0 10 #fcfcfc
#000000 #000000;
#X text 272 13 ->pad color OFF;
#X text 272 40 ->pad color ON;
#X obj 148 -65 route 37;
#X obj 239 13 * 78;
#X obj 408 122 ctlout 51 19;
#X connect 0 0 19 0;
#X connect 4 0 20 0;
#X connect 4 0 21 0;
#X connect 5 0 1 0;
#X connect 6 0 5 0;
#X connect 7 0 1 1;
#X connect 10 0 0 0;
#X connect 11 0 0 1;
#X connect 15 0 16 0;
#X connect 16 0 5 0;
#X connect 19 0 4 0;
#X connect 19 0 6 0;
#X connect 20 0 7 0;
#X coords 0 332 1 331 85 60 0;
#X restore 548 325 pd top button row #3 CUE;
#N canvas 556 278 682 332 top 0;
#X obj 148 -92 stripnote;
#X obj 202 94 noteout 1;
#X text 4 -139 this is for NOTE;
#X text 88 93 out to launch->;
#X obj 237 -45 tgl 15 1 empty empty empty 17 7 0 10 #fcfcfc #000000
#000000 0 1;
#X obj 149 -17 nbx 5 14 -1e+37 1e+37 0 1 empty empty empty 0 -8 0 10
#fcfcfc #000000 #000000 53 256;
#X obj 148 -40 bng 15 250 50 0 empty empty empty 17 7 0 10 #fcfcfc
#000000 #000000;
#X obj 239 41 + 48;
#X text 218 -93 ->make sure no double message;
#X text 129 124 out to out to OKTA (CC# \, Channel 16+)->;
#X obj 145 -140 inlet notein NOTE;
#X obj 283 -139 inlet notein VALUE;
#X text 203 -65 ->set button number;
#X text 253 -47 ->this make it toggle button;
#X text 9 -19 ->set button number;
#X obj 432 -141 inlet for bang recall VALUE;
#X obj 486 -66 bng 15 250 50 0 empty empty empty 17 7 0 10 #fcfcfc
#000000 #000000;
#X text 272 13 ->pad color OFF;
#X text 272 40 ->pad color ON;
#X obj 148 -65 route 53;
#X obj 239 13 * 78;
#X obj 408 122 ctlout 51 20;
#X connect 0 0 19 0;
#X connect 4 0 20 0;
#X connect 4 0 21 0;
#X connect 5 0 1 0;
#X connect 6 0 5 0;
#X connect 7 0 1 1;
#X connect 10 0 0 0;
#X connect 11 0 0 1;
#X connect 15 0 16 0;
#X connect 16 0 5 0;
#X connect 19 0 4 0;
#X connect 19 0 6 0;
#X connect 20 0 7 0;
#X coords 0 332 1 331 85 60 0;
#X restore 548 346 pd top button row #4 CUE;
#N canvas 556 278 682 332 top 0;
#X obj 148 -92 stripnote;
#X obj 202 94 noteout 1;
#X text 4 -139 this is for NOTE;
#X text 88 93 out to launch->;
#X obj 237 -45 tgl 15 1 empty empty empty 17 7 0 10 #fcfcfc #000000
#000000 0 1;
#X obj 149 -17 nbx 5 14 -1e+37 1e+37 0 1 empty empty empty 0 -8 0 10
#fcfcfc #000000 #000000 69 256;
#X obj 148 -40 bng 15 250 50 0 empty empty empty 17 7 0 10 #fcfcfc
#000000 #000000;
#X obj 239 41 + 48;
#X text 218 -93 ->make sure no double message;
#X text 129 124 out to out to OKTA (CC# \, Channel 16+)->;
#X obj 145 -140 inlet notein NOTE;
#X obj 283 -139 inlet notein VALUE;
#X text 203 -65 ->set button number;
#X text 253 -47 ->this make it toggle button;
#X text 9 -19 ->set button number;
#X obj 432 -141 inlet for bang recall VALUE;
#X obj 486 -66 bng 15 250 50 0 empty empty empty 17 7 0 10 #fcfcfc
#000000 #000000;
#X text 272 13 ->pad color OFF;
#X text 272 40 ->pad color ON;
#X obj 148 -65 route 69;
#X obj 239 13 * 78;
#X obj 408 122 ctlout 51 21;
#X connect 0 0 19 0;
#X connect 4 0 20 0;
#X connect 4 0 21 0;
#X connect 5 0 1 0;
#X connect 6 0 5 0;
#X connect 7 0 1 1;
#X connect 10 0 0 0;
#X connect 11 0 0 1;
#X connect 15 0 16 0;
#X connect 16 0 5 0;
#X connect 19 0 4 0;
#X connect 19 0 6 0;
#X connect 20 0 7 0;
#X coords 0 332 1 331 85 60 0;
#X restore 547 368 pd top button row #5 CUE;
#N canvas 556 278 682 332 top 0;
#X obj 148 -92 stripnote;
#X obj 202 94 noteout 1;
#X text 4 -139 this is for NOTE;
#X text 88 93 out to launch->;
#X obj 237 -45 tgl 15 1 empty empty empty 17 7 0 10 #fcfcfc #000000
#000000 0 1;
#X obj 149 -17 nbx 5 14 -1e+37 1e+37 0 1 empty empty empty 0 -8 0 10
#fcfcfc #000000 #000000 85 256;
#X obj 148 -40 bng 15 250 50 0 empty empty empty 17 7 0 10 #fcfcfc
#000000 #000000;
#X obj 239 41 + 48;
#X text 218 -93 ->make sure no double message;
#X text 129 124 out to out to OKTA (CC# \, Channel 16+)->;
#X obj 145 -140 inlet notein NOTE;
#X obj 283 -139 inlet notein VALUE;
#X text 203 -65 ->set button number;
#X text 253 -47 ->this make it toggle button;
#X text 9 -19 ->set button number;
#X obj 432 -141 inlet for bang recall VALUE;
#X obj 486 -66 bng 15 250 50 0 empty empty empty 17 7 0 10 #fcfcfc
#000000 #000000;
#X text 272 13 ->pad color OFF;
#X text 272 40 ->pad color ON;
#X obj 148 -65 route 85;
#X obj 239 13 * 78;
#X obj 408 122 ctlout 51 22;
#X connect 0 0 19 0;
#X connect 4 0 20 0;
#X connect 4 0 21 0;
#X connect 5 0 1 0;
#X connect 6 0 5 0;
#X connect 7 0 1 1;
#X connect 10 0 0 0;
#X connect 11 0 0 1;
#X connect 15 0 16 0;
#X connect 16 0 5 0;
#X connect 19 0 4 0;
#X connect 19 0 6 0;
#X connect 20 0 7 0;
#X coords 0 332 1 331 85 60 0;
#X restore 547 389 pd top button row #6 CUE;
#N canvas 556 278 682 332 top 0;
#X obj 148 -92 stripnote;
#X obj 202 94 noteout 1;
#X text 4 -139 this is for NOTE;
#X text 88 93 out to launch->;
#X obj 237 -45 tgl 15 1 empty empty empty 17 7 0 10 #fcfcfc #000000
#000000 1 1;
#X obj 149 -17 nbx 5 14 -1e+37 1e+37 0 1 empty empty empty 0 -8 0 10
#fcfcfc #000000 #000000 101 256;
#X obj 148 -40 bng 15 250 50 0 empty empty empty 17 7 0 10 #fcfcfc
#000000 #000000;
#X obj 239 41 + 48;
#X text 218 -93 ->make sure no double message;
#X text 129 124 out to out to OKTA (CC# \, Channel 16+)->;
#X obj 145 -140 inlet notein NOTE;
#X obj 283 -139 inlet notein VALUE;
#X text 203 -65 ->set button number;
#X text 253 -47 ->this make it toggle button;
#X text 9 -19 ->set button number;
#X obj 432 -141 inlet for bang recall VALUE;
#X obj 486 -66 bng 15 250 50 0 empty empty empty 17 7 0 10 #fcfcfc
#000000 #000000;
#X text 272 13 ->pad color OFF;
#X text 272 40 ->pad color ON;
#X obj 408 122 ctlout 51 23;
#X obj 239 13 * 78;
#X obj 134 -66 route 101;
#X connect 0 0 21 0;
#X connect 4 0 19 0;
#X connect 4 0 20 0;
#X connect 5 0 1 0;
#X connect 6 0 5 0;
#X connect 7 0 1 1;
#X connect 10 0 0 0;
#X connect 11 0 0 1;
#X connect 15 0 16 0;
#X connect 16 0 5 0;
#X connect 20 0 7 0;
#X connect 21 0 4 0;
#X connect 21 0 6 0;
#X coords 0 332 1 331 85 60 0;
#X restore 547 409 pd top button row #7 CUE;
#N canvas 556 278 682 332 top 0;
#X obj 148 -92 stripnote;
#X obj 202 94 noteout 1;
#X text 4 -139 this is for NOTE;
#X text 88 93 out to launch->;
#X obj 237 -45 tgl 15 1 empty empty empty 17 7 0 10 #fcfcfc #000000
#000000 0 1;
#X obj 149 -17 nbx 5 14 -1e+37 1e+37 0 1 empty empty empty 0 -8 0 10
#fcfcfc #000000 #000000 117 256;
#X obj 148 -40 bng 15 250 50 0 empty empty empty 17 7 0 10 #fcfcfc
#000000 #000000;
#X obj 239 41 + 48;
#X text 218 -93 ->make sure no double message;
#X text 129 124 out to out to OKTA (CC# \, Channel 16+)->;
#X obj 145 -140 inlet notein NOTE;
#X obj 283 -139 inlet notein VALUE;
#X text 203 -65 ->set button number;
#X text 253 -47 ->this make it toggle button;
#X text 9 -19 ->set button number;
#X obj 432 -141 inlet for bang recall VALUE;
#X obj 486 -66 bng 15 250 50 0 empty empty empty 17 7 0 10 #fcfcfc
#000000 #000000;
#X text 272 13 ->pad color OFF;
#X text 272 40 ->pad color ON;
#X obj 408 122 ctlout 51 24;
#X obj 239 13 * 78;
#X obj 135 -66 route 117;
#X connect 0 0 21 0;
#X connect 4 0 19 0;
#X connect 4 0 20 0;
#X connect 5 0 1 0;
#X connect 6 0 5 0;
#X connect 7 0 1 1;
#X connect 10 0 0 0;
#X connect 11 0 0 1;
#X connect 15 0 16 0;
#X connect 16 0 5 0;
#X connect 20 0 7 0;
#X connect 21 0 4 0;
#X connect 21 0 6 0;
#X coords 0 332 1 331 85 60 0;
#X restore 547 430 pd top button row #8 CUE;
#X obj 171 34 inlet loadbang;
#X connect 0 0 1 0;
#X connect 0 1 2 0;
#X connect 1 0 3 0;
#X connect 1 0 4 0;
#X connect 1 0 5 0;
#X connect 1 0 6 0;
#X connect 1 0 7 0;
#X connect 1 0 8 0;
#X connect 1 0 9 0;
#X connect 1 0 10 0;
#X connect 1 0 14 0;
#X connect 1 0 15 0;
#X connect 1 0 16 0;
#X connect 1 0 17 0;
#X connect 1 0 18 0;
#X connect 1 0 19 0;
#X connect 1 0 20 0;
#X connect 1 0 21 0;
#X connect 1 0 22 0;
#X connect 1 0 23 0;
#X connect 1 0 24 0;
#X connect 1 0 25 0;
#X connect 1 0 26 0;
#X connect 1 0 27 0;
#X connect 1 0 28 0;
#X connect 1 0 29 0;
#X connect 2 0 3 1;
#X connect 2 0 4 1;
#X connect 2 0 5 1;
#X connect 2 0 6 1;
#X connect 2 0 7 1;
#X connect 2 0 8 1;
#X connect 2 0 9 1;
#X connect 2 0 10 1;
#X connect 2 0 14 1;
#X connect 2 0 15 1;
#X connect 2 0 16 1;
#X connect 2 0 17 1;
#X connect 2 0 18 1;
#X connect 2 0 19 1;
#X connect 2 0 20 1;
#X connect 2 0 21 1;
#X connect 2 0 22 1;
#X connect 2 0 23 1;
#X connect 2 0 24 1;
#X connect 2 0 25 1;
#X connect 2 0 26 1;
#X connect 2 0 27 1;
#X connect 2 0 28 1;
#X connect 2 0 29 1;
#X connect 11 0 3 2;
#X connect 11 0 4 2;
#X connect 11 0 5 2;
#X connect 11 0 6 2;
#X connect 11 0 7 2;
#X connect 11 0 8 2;
#X connect 11 0 9 2;
#X connect 11 0 10 2;
#X connect 11 0 14 2;
#X connect 11 0 15 2;
#X connect 11 0 16 2;
#X connect 11 0 17 2;
#X connect 11 0 18 2;
#X connect 11 0 19 2;
#X connect 11 0 20 2;
#X connect 11 0 21 2;
#X connect 11 0 22 2;
#X connect 11 0 23 2;
#X connect 11 0 24 2;
#X connect 11 0 25 2;
#X connect 11 0 26 2;
#X connect 11 0 27 2;
#X connect 11 0 28 2;
#X connect 11 0 29 2;
#X connect 30 0 11 0;
#X restore 537 57 pd mute \, solo \, cue.inputs form page sel:ON \,
ON \, OFF;
#X obj 538 21 loadbang;
#N canvas 83 52 1357 795 crossfader 1;
#X text 316 26 ->recall page selected before last boot;
#X obj 154 22 inlet from recall bang;
#X obj 515 259 notein 1;
#X obj 327 377 spigot 4;
#X obj 394 377 spigot 4;
#X obj 503 374 spigot 3;
#X obj 567 374 spigot 3;
#X msg 250 283 4;
#X msg 296 281 0;
#X msg 412 279 0;
#X msg 366 281 3;
#X obj 134 367 bng 15 250 50 0 empty empty empty 17 7 0 10 #fcfcfc
#000000 #000000;
#X obj 217 352 bng 15 250 50 0 empty empty empty 17 7 0 10 #fcfcfc
#000000 #000000;
#X obj 109 191 nbx 5 14 -1e+37 1e+37 0 1 empty empty empty 0 -8 0 10
#fcfcfc #000000 #000000 1 256;
#X obj 108 152 tgl 15 0 empty empty empty 17 7 0 10 #fcfcfc #000000
#000000 0 1;
#X obj 15 27 ctlin 108 1;
#X obj 16 76 route 127;
#X obj 271 242 route 0;
#X obj 387 240 route 1;
#X obj 335 164 ctlout 108 1;
#N canvas 177 23 1054 815 cross 0;
#X obj 549 405 change;
#X obj 1140 483 route;
#X text 311 514 turn off last selected->;
#X obj 687 341 nbx 5 14 -1e+37 1e+37 0 1 empty empty empty 0 -8 0 10
#fcfcfc #000000 #000000 4 256;
#X msg 348 97 127;
#X text 316 26 ->recall page selected before last boot;
#X text 965 516 turn on selected color->;
#X msg 639 498 0;
#X obj 828 57 change;
#X obj 719 553 ctlout 48 17;
#X msg 415 123 4;
#X msg 453 125 20;
#X msg 485 125 36;
#X msg 522 125 52;
#X msg 557 126 68;
#X msg 592 126 84;
#X msg 626 126 100;
#X msg 662 127 116;
#X obj 433 87 route 4 20 36 52 68 84 100 116;
#X obj 1143 512 - 56;
#X obj 656 461 route 4 20 36 52 68 84 100 116;
#X msg 676 499 16;
#X msg 708 499 32;
#X msg 745 499 48;
#X msg 780 500 64;
#X msg 815 500 80;
#X msg 849 500 96;
#X msg 885 501 112;
#X msg 918 501 127;
#X msg 698 127 0;
#X obj 154 22 inlet from recall bang;
#X obj 550 555 noteout 1;
#X obj 1124 550 noteout 1;
#X obj 523 438 bng 15 250 50 0 empty empty empty 17 7 0 10 #fcfcfc
#000000 #000000;
#X obj 555 522 nbx 5 14 -1e+37 1e+37 0 1 empty empty empty 0 -8 0 10
#fcfcfc #000000 #000000 36 256;
#X obj 553 466 v crosss;
#X obj 555 439 nbx 5 14 -1e+37 1e+37 0 1 empty empty empty 0 -8 0 10
#fcfcfc #000000 #000000 4 256;
#X obj 154 68 bng 15 250 50 0 empty empty empty 17 7 0 10 #fcfcfc #000000
#000000;
#X text 344 469 store the last pressed button;
#X obj 937 53 inlet from left notein;
#X obj 1099 50 inlet from right notein;
#X obj 128 297 inlet to switch to next page;
#X obj 749 407 nbx 5 14 -1e+37 1e+37 0 1 empty empty empty 0 -8 0 10
#fcfcfc #000000 #000000 4 256;
#X msg 486 513 85;
#X msg 408 376 85;
#X connect 0 0 33 0;
#X connect 0 0 36 0;
#X connect 1 1 19 0;
#X connect 3 0 20 0;
#X connect 3 0 42 0;
#X connect 4 0 19 0;
#X connect 7 0 9 0;
#X connect 8 0 18 0;
#X connect 10 0 0 0;
#X connect 10 0 3 0;
#X connect 11 0 0 0;
#X connect 11 0 3 0;
#X connect 12 0 3 0;
#X connect 12 0 0 0;
#X connect 13 0 3 0;
#X connect 13 0 0 0;
#X connect 14 0 3 0;
#X connect 14 0 0 0;
#X connect 15 0 3 0;
#X connect 15 0 0 0;
#X connect 16 0 3 0;
#X connect 16 0 0 0;
#X connect 17 0 3 0;
#X connect 17 0 0 0;
#X connect 18 0 10 0;
#X connect 18 1 11 0;
#X connect 18 2 12 0;
#X connect 18 3 13 0;
#X connect 18 4 14 0;
#X connect 18 5 15 0;
#X connect 18 6 16 0;
#X connect 18 7 17 0;
#X connect 18 8 29 0;
#X connect 19 0 32 1;
#X connect 20 0 7 0;
#X connect 20 1 21 0;
#X connect 20 2 22 0;
#X connect 20 3 23 0;
#X connect 20 4 24 0;
#X connect 20 5 25 0;
#X connect 20 6 26 0;
#X connect 20 7 27 0;
#X connect 20 8 28 0;
#X connect 21 0 9 0;
#X connect 22 0 9 0;
#X connect 23 0 9 0;
#X connect 24 0 9 0;
#X connect 25 0 9 0;
#X connect 26 0 9 0;
#X connect 27 0 9 0;
#X connect 28 0 9 0;
#X connect 30 0 37 0;
#X connect 33 0 35 0;
#X connect 34 0 31 0;
#X connect 35 0 34 0;
#X connect 36 0 35 0;
#X connect 37 0 4 0;
#X connect 37 0 3 0;
#X connect 37 0 43 0;
#X connect 37 0 34 0;
#X connect 39 0 8 0;
#X connect 40 0 1 0;
#X connect 41 0 44 0;
#X connect 41 0 42 0;
#X connect 42 0 32 0;
#X connect 43 0 31 1;
#X connect 44 0 32 1;
#X restore 479 534 pd cross 2;
#N canvas 0 29 1255 817 cross 0;
#X obj 549 405 change;
#X obj 1140 483 route;
#X text 311 514 turn off last selected->;
#X obj 692 347 nbx 5 14 -1e+37 1e+37 0 1 empty empty empty 0 -8 0 10
#fcfcfc #000000 #000000 100 256;
#X msg 348 97 127;
#X text 316 26 ->recall page selected before last boot;
#X text 965 516 turn on selected color->;
#X msg 639 498 0;
#X obj 828 57 change;
#X obj 719 553 ctlout 48 17;
#X msg 415 123 4;
#X msg 453 125 20;
#X msg 485 125 36;
#X msg 522 125 52;
#X msg 557 126 68;
#X msg 592 126 84;
#X msg 626 126 100;
#X msg 662 127 116;
#X obj 433 87 route 4 20 36 52 68 84 100 116;
#X obj 1143 512 - 56;
#X obj 656 461 route 4 20 36 52 68 84 100 116;
#X msg 676 499 16;
#X msg 708 499 32;
#X msg 745 499 48;
#X msg 780 500 64;
#X msg 815 500 80;
#X msg 849 500 96;
#X msg 885 501 112;
#X msg 918 501 127;
#X msg 698 127 0;
#X obj 71 23 inlet from recall bang;
#X obj 550 555 noteout 1;
#X obj 1124 550 noteout 1;
#X obj 523 438 bng 15 250 50 0 empty empty empty 17 7 0 10 #fcfcfc
#000000 #000000;
#X obj 555 522 nbx 5 14 -1e+37 1e+37 0 1 empty empty empty 0 -8 0 10
#fcfcfc #000000 #000000 84 256;
#X obj 555 439 nbx 5 14 -1e+37 1e+37 0 1 empty empty empty 0 -8 0 10
#fcfcfc #000000 #000000 100 256;
#X obj 71 69 bng 15 250 50 0 empty empty empty 17 7 0 10 #fcfcfc #000000
#000000;
#X text 344 469 store the last pressed button;
#X obj 937 53 inlet from left notein;
#X obj 1099 50 inlet from right notein;
#X obj 553 466 v crosB;
#X obj 143 306 inlet to switch to next page;
#X obj 762 402 nbx 5 14 -1e+37 1e+37 0 1 empty empty empty 0 -8 0 10
#fcfcfc #000000 #000000 100 256;
#X msg 486 513 85;
#X msg 338 382 85;
#X connect 0 0 33 0;
#X connect 0 0 35 0;
#X connect 1 1 19 0;
#X connect 3 0 20 0;
#X connect 3 0 42 0;
#X connect 4 0 19 0;
#X connect 7 0 9 0;
#X connect 8 0 18 0;
#X connect 10 0 0 0;
#X connect 10 0 3 0;
#X connect 11 0 0 0;
#X connect 11 0 3 0;
#X connect 12 0 3 0;
#X connect 12 0 0 0;
#X connect 13 0 3 0;
#X connect 13 0 0 0;
#X connect 14 0 3 0;
#X connect 14 0 0 0;
#X connect 15 0 3 0;
#X connect 15 0 0 0;
#X connect 16 0 3 0;
#X connect 16 0 0 0;
#X connect 17 0 3 0;
#X connect 17 0 0 0;
#X connect 18 0 10 0;
#X connect 18 1 11 0;
#X connect 18 2 12 0;
#X connect 18 3 13 0;
#X connect 18 4 14 0;
#X connect 18 5 15 0;
#X connect 18 6 16 0;
#X connect 18 7 17 0;
#X connect 18 8 29 0;
#X connect 19 0 32 1;
#X connect 20 0 7 0;
#X connect 20 1 21 0;
#X connect 20 2 22 0;
#X connect 20 3 23 0;
#X connect 20 4 24 0;
#X connect 20 5 25 0;
#X connect 20 6 26 0;
#X connect 20 7 27 0;
#X connect 20 8 28 0;
#X connect 21 0 9 0;
#X connect 22 0 9 0;
#X connect 23 0 9 0;
#X connect 24 0 9 0;
#X connect 25 0 9 0;
#X connect 26 0 9 0;
#X connect 27 0 9 0;
#X connect 28 0 9 0;
#X connect 30 0 36 0;
#X connect 33 0 40 0;
#X connect 34 0 31 0;
#X connect 35 0 40 0;
#X connect 36 0 4 0;
#X connect 36 0 3 0;
#X connect 36 0 43 0;
#X connect 36 0 34 0;
#X connect 38 0 8 0;
#X connect 39 0 1 0;
#X connect 40 0 34 0;
#X connect 41 0 44 0;
#X connect 41 0 42 0;
#X connect 42 0 32 0;
#X connect 43 0 31 1;
#X connect 44 0 32 1;
#X restore 331 535 pd cross 1;
#X msg 737 140 4;
#X obj 694 78 bng 15 250 50 0 empty empty empty 17 7 0 10 #fcfcfc #000000
#000000;
#X obj 773 75 bng 15 250 50 0 empty empty empty 17 7 0 10 #fcfcfc #000000
#000000;
#X obj 837 76 bng 15 250 50 0 empty empty empty 17 7 0 10 #fcfcfc #000000
#000000;
#X obj 919 70 bng 15 250 50 0 empty empty empty 17 7 0 10 #fcfcfc #000000
#000000;
#X obj 1001 73 bng 15 250 50 0 empty empty empty 17 7 0 10 #fcfcfc
#000000 #000000;
#X obj 1088 75 bng 15 250 50 0 empty empty empty 17 7 0 10 #fcfcfc
#000000 #000000;
#X obj 1166 74 bng 15 250 50 0 empty empty empty 17 7 0 10 #fcfcfc
#000000 #000000;
#X obj 1247 70 bng 15 250 50 0 empty empty empty 17 7 0 10 #fcfcfc
#000000 #000000;
#X obj 810 18 bng 15 250 50 0 empty empty empty 17 7 0 10 #fcfcfc #000000
#000000;
#X msg 810 139 20;
#X msg 893 137 36;
#X msg 975 131 52;
#X msg 1057 134 68;
#X msg 1144 136 84;
#X msg 1222 135 100;
#X msg 1303 131 116;
#X obj 1094 207 noteout 1;
#X obj 151 77 delay 300 1 msec;
#X text 519 112 fill empty buttons->;
#X msg 696 143 85;
#X msg 777 139 85;
#X msg 858 138 85;
#X msg 940 132 85;
#X msg 1022 135 85;
#X msg 1109 137 85;
#X msg 1187 136 85;
#X msg 1268 132 85;
#X obj 243 151 + 13;
#X connect 1 0 31 0;
#X connect 1 0 40 0;
#X connect 2 0 3 0;
#X connect 2 0 5 0;
#X connect 2 1 4 0;
#X connect 2 1 6 0;
#X connect 3 0 21 2;
#X connect 4 0 21 3;
#X connect 5 0 20 2;
#X connect 6 0 20 3;
#X connect 7 0 3 1;
#X connect 7 0 4 1;
#X connect 7 0 11 0;
#X connect 8 0 3 1;
#X connect 8 0 4 1;
#X connect 9 0 5 1;
#X connect 9 0 6 1;
#X connect 10 0 5 1;
#X connect 10 0 6 1;
#X connect 10 0 12 0;
#X connect 11 0 21 0;
#X connect 11 0 20 0;
#X connect 12 0 20 1;
#X connect 12 0 21 1;
#X connect 13 0 17 0;
#X connect 13 0 18 0;
#X connect 13 0 50 0;
#X connect 14 0 13 0;
#X connect 15 0 16 0;
#X connect 16 0 14 0;
#X connect 17 0 7 0;
#X connect 17 1 8 0;
#X connect 18 0 10 0;
#X connect 18 1 9 0;
#X connect 22 0 39 0;
#X connect 23 0 42 0;
#X connect 23 0 22 0;
#X connect 24 0 43 0;
#X connect 24 0 32 0;
#X connect 25 0 44 0;
#X connect 25 0 33 0;
#X connect 26 0 45 0;
#X connect 26 0 34 0;
#X connect 27 0 46 0;
#X connect 27 0 35 0;
#X connect 28 0 47 0;
#X connect 28 0 36 0;
#X connect 29 0 48 0;
#X connect 29 0 37 0;
#X connect 30 0 49 0;
#X connect 30 0 38 0;
#X connect 31 0 23 0;
#X connect 31 0 24 0;
#X connect 31 0 25 0;
#X connect 31 0 26 0;
#X connect 31 0 27 0;
#X connect 31 0 28 0;
#X connect 31 0 29 0;
#X connect 31 0 30 0;
#X connect 32 0 39 0;
#X connect 33 0 39 0;
#X connect 34 0 39 0;
#X connect 35 0 39 0;
#X connect 36 0 39 0;
#X connect 37 0 39 0;
#X connect 38 0 39 0;
#X connect 40 0 14 0;
#X connect 42 0 39 1;
#X connect 43 0 39 1;
#X connect 44 0 39 1;
#X connect 45 0 39 1;
#X connect 46 0 39 1;
#X connect 47 0 39 1;
#X connect 48 0 39 1;
#X connect 49 0 39 1;
#X connect 50 0 19 0;
#X restore 58 309 pd crossfader;
#X obj 58 274 loadbang;
#X obj 57 352 loadbang;
#N canvas 27 23 1407 823 SCENE 0;
#N canvas 47 74 1291 739 scene 0;
#X obj 549 45 ctlin;
#X obj 361 225 change;
#X obj 342 255 bng 15 250 50 0 empty empty empty 17 7 0 10 #fcfcfc
#000000 #000000;
#X obj 402 392 ctlout 1;
#X obj 542 165 route;
#X obj 152 568 outlet selected page;
#X text 171 297 turn off last selected->;
#X text 466 301 turn on selected->;
#X obj 380 299 nbx 5 14 -1e+37 1e+37 0 1 empty empty empty 0 -8 0 10
#fcfcfc #000000 #000000 107 256;
#X obj 636 273 nbx 5 14 -1e+37 1e+37 0 1 empty empty empty 0 -8 0 10
#fcfcfc #000000 #000000 107 256;
#X obj 599 382 ctlout;
#X msg 127 117 127;
#X obj 195 470 nbx 5 14 -1e+37 1e+37 0 1 empty empty empty 0 -8 0 10
#fcfcfc #000000 #000000 4 256;
#X obj 90 163 delay 100 1 msec;
#X text 252 470 ->remember last page selected;
#X text 206 164 ->delay to switch to last page;
#X text 245 32 ->recall page selected before last boot;
#X obj 446 88 route 106 107;
#X msg 483 164 107;
#X msg 429 161 106;
#X msg 346 296 0;
#X obj 199 435 - 103;
#X obj 105 31 inlet from loadbang;
#X obj 596 273 - 33;
#X connect 0 0 4 0;
#X connect 0 1 17 0;
#X connect 1 0 2 0;
#X connect 1 0 8 0;
#X connect 1 0 21 0;
#X connect 2 0 20 0;
#X connect 2 0 8 0;
#X connect 4 1 23 0;
#X connect 8 0 3 1;
#X connect 9 0 10 1;
#X connect 11 0 23 0;
#X connect 12 0 5 0;
#X connect 13 0 12 0;
#X connect 17 0 19 0;
#X connect 17 1 18 0;
#X connect 18 0 9 0;
#X connect 18 0 1 0;
#X connect 19 0 9 0;
#X connect 19 0 1 0;
#X connect 20 0 3 0;
#X connect 21 0 12 0;
#X connect 22 0 11 0;
#X connect 22 0 13 0;
#X connect 23 0 10 0;
#X restore 45 88 pd scene AB select:output selected page;
#N canvas 0 59 1398 784 sceneAselect 0;
#X obj 990 417 route;
#X text 304 529 turn off last selected->;
#X obj 700 417 nbx 5 14 -1e+37 1e+37 0 1 empty empty empty 0 -8 0 10
#fcfcfc #000000 #000000 3 256;
#X msg 252 101 127;
#X text 211 21 ->recall page selected before last boot;
#X msg 372 131 3;
#X msg 406 130 19;
#X msg 438 130 35;
#X msg 475 130 51;
#X msg 648 130 2;
#X msg 679 130 18;
#X msg 711 130 34;
#X msg 743 130 50;
#X obj 1028 488 - 33;
#X text 855 487 turn on selected color->;
#X obj 715 629 route 3 19 35 51 67 83 99 115 2 18 34 50 66 82 98 114
;
#X msg 715 664 0;
#X msg 735 666 1;
#X msg 767 666 2;
#X msg 804 666 3;
#X obj 828 55 change;
#X text 250 486 remember each PD to have different VALUE NAME!->;
#X obj 37 57 bng 15 250 50 0 empty empty empty 17 7 0 10 #fcfcfc #000000
#000000;
#X obj 37 22 inlet from recall bang 2;
#X obj 595 526 nbx 5 14 -1e+37 1e+37 0 1 empty empty empty 0 -8 0 10
#fcfcfc #000000 #000000 2 256;
#X obj 568 457 bng 15 250 50 0 empty empty empty 17 7 0 10 #fcfcfc
#000000 #000000;
#X obj 589 636 noteout 1;
#X obj 1001 568 noteout 1;
#X obj 596 423 change;
#X msg 908 106 0, f 2;
#X msg 487 530 16;
#X obj 598 490 value;
#X obj 600 459 nbx 5 14 -1e+37 1e+37 0 1 empty empty empty 0 -8 0 10
#fcfcfc #000000 #000000 3 256;
#X obj 1325 23 inlet notein left;
#X obj 1324 69 inlet notein right;
#X obj 184 350 inlet to switch to next page;
#X msg 344 430 16;
#X obj 1005 1153 route;
#X text 319 1265 turn off last selected->;
#X obj 715 1153 nbx 5 14 -1e+37 1e+37 0 1 empty empty empty 0 -8 0
10 #fcfcfc #000000 #000000 83 256;
#X msg 267 837 127;
#X msg 525 866 67;
#X msg 560 866 83;
#X msg 594 866 99;
#X msg 630 866 115;
#X msg 789 866 66;
#X msg 821 866 82;
#X msg 853 866 98;
#X msg 893 866 114;
#X obj 1043 1224 - 33;
#X text 870 1223 turn on selected color->;
#X obj 730 1365 route 3 19 35 51 67 83 99 115 2 18 34 50 66 82 98 114
;
#X obj 843 791 change;
#X text 265 1222 remember each PD to have different VALUE NAME!->;
#X obj 171 736 bng 15 250 50 0 empty empty empty 17 7 0 10 #fcfcfc
#000000 #000000;
#X obj 610 1262 nbx 5 14 -1e+37 1e+37 0 1 empty empty empty 0 -8 0
10 #fcfcfc #000000 #000000 67 256;
#X obj 583 1193 bng 15 250 50 0 empty empty empty 17 7 0 10 #fcfcfc
#000000 #000000;
#X obj 604 1372 noteout 1;
#X obj 1016 1304 noteout 1;
#X obj 611 1159 change;
#X msg 923 842 0, f 2;
#X msg 502 1266 16;
#X obj 615 1195 nbx 5 14 -1e+37 1e+37 0 1 empty empty empty 0 -8 0
10 #fcfcfc #000000 #000000 83 256;
#X obj 222 1142 inlet to switch to next page;
#X msg 361 1198 16;
#X obj 613 1226 value vab;
#X obj 433 84 route 3 19 35 51 2 18 34 50;
#X obj 448 820 route 67 83 99 115 66 82 98 114;
#X msg 977 666 4;
#X msg 1008 666 5;
#X msg 1040 666 6;
#X msg 1072 666 7;
#X obj 890 731 ctlout 55 17;
#X obj 905 1467 ctlout 56 17;
#X msg 780 1405 8;
#X msg 815 1405 9;
#X msg 849 1405 10;
#X msg 885 1405 11;
#X msg 1118 1402 12;
#X msg 1150 1402 13;
#X msg 1182 1402 14;
#X msg 1214 1402 15;
#X obj 786 487 nbx 5 14 -1e+37 1e+37 0 1 empty empty empty 0 -8 0 10
#fcfcfc #000000 #000000 3 256;
#X obj 764 1231 nbx 5 14 -1e+37 1e+37 0 1 empty empty empty 0 -8 0
10 #fcfcfc #000000 #000000 83 256;
#X connect 0 1 13 0;
#X connect 2 0 15 0;
#X connect 2 0 82 0;
#X connect 3 0 13 0;
#X connect 5 0 2 0;
#X connect 5 0 28 0;
#X connect 6 0 2 0;
#X connect 6 0 28 0;
#X connect 7 0 2 0;
#X connect 7 0 28 0;
#X connect 8 0 2 0;
#X connect 8 0 28 0;
#X connect 9 0 2 0;
#X connect 9 0 28 0;
#X connect 10 0 2 0;
#X connect 10 0 28 0;
#X connect 11 0 2 0;
#X connect 11 0 28 0;
#X connect 12 0 2 0;
#X connect 12 0 28 0;
#X connect 13 0 27 1;
#X connect 15 0 16 0;
#X connect 15 1 17 0;
#X connect 15 2 18 0;
#X connect 15 3 19 0;
#X connect 15 8 68 0;
#X connect 15 9 69 0;
#X connect 15 10 70 0;
#X connect 15 11 71 0;
#X connect 16 0 72 0;
#X connect 17 0 72 0;
#X connect 18 0 72 0;
#X connect 19 0 72 0;
#X connect 20 0 66 0;
#X connect 22 0 3 0;
#X connect 22 0 2 0;
#X connect 22 0 54 0;
#X connect 22 0 30 0;
#X connect 22 0 24 0;
#X connect 23 0 22 0;
#X connect 24 0 26 0;
#X connect 25 0 31 0;
#X connect 28 0 25 0;
#X connect 28 0 32 0;
#X connect 30 0 26 1;
#X connect 31 0 24 0;
#X connect 32 0 31 0;
#X connect 33 0 20 0;
#X connect 33 0 52 0;
#X connect 34 0 0 0;
#X connect 34 0 37 0;
#X connect 35 0 36 0;
#X connect 35 0 82 0;
#X connect 36 0 27 1;
#X connect 37 1 49 0;
#X connect 39 0 51 0;
#X connect 39 0 83 0;
#X connect 40 0 49 0;
#X connect 41 0 39 0;
#X connect 41 0 59 0;
#X connect 42 0 39 0;
#X connect 42 0 59 0;
#X connect 43 0 39 0;
#X connect 43 0 59 0;
#X connect 44 0 39 0;
#X connect 44 0 59 0;
#X connect 45 0 39 0;
#X connect 45 0 59 0;
#X connect 46 0 39 0;
#X connect 46 0 59 0;
#X connect 47 0 39 0;
#X connect 47 0 59 0;
#X connect 48 0 39 0;
#X connect 48 0 59 0;
#X connect 49 0 58 1;
#X connect 51 4 74 0;
#X connect 51 5 75 0;
#X connect 51 6 76 0;
#X connect 51 7 77 0;
#X connect 51 12 78 0;
#X connect 51 13 79 0;
#X connect 51 14 80 0;
#X connect 51 15 81 0;
#X connect 52 0 67 0;
#X connect 54 0 40 0;
#X connect 54 0 39 0;
#X connect 54 0 61 0;
#X connect 54 0 55 0;
#X connect 55 0 57 0;
#X connect 56 0 65 0;
#X connect 59 0 56 0;
#X connect 59 0 62 0;
#X connect 61 0 57 1;
#X connect 62 0 65 0;
#X connect 63 0 64 0;
#X connect 63 0 83 0;
#X connect 64 0 58 1;
#X connect 65 0 55 0;
#X connect 66 0 5 0;
#X connect 66 1 6 0;
#X connect 66 2 7 0;
#X connect 66 3 8 0;
#X connect 66 4 9 0;
#X connect 66 5 10 0;
#X connect 66 6 11 0;
#X connect 66 7 12 0;
#X connect 67 0 41 0;
#X connect 67 1 42 0;
#X connect 67 2 43 0;
#X connect 67 3 44 0;
#X connect 67 4 45 0;
#X connect 67 5 46 0;
#X connect 67 6 47 0;
#X connect 67 7 48 0;
#X connect 68 0 72 0;
#X connect 69 0 72 0;
#X connect 70 0 72 0;
#X connect 71 0 72 0;
#X connect 74 0 73 0;
#X connect 75 0 73 0;
#X connect 76 0 73 0;
#X connect 77 0 73 0;
#X connect 78 0 73 0;
#X connect 79 0 73 0;
#X connect 80 0 73 0;
#X connect 81 0 73 0;
#X connect 82 0 27 0;
#X connect 83 0 58 0;
#X restore 298 370 pd sceneAselect;
#N canvas 1 62 1395 784 sceneBselect 0;
#X obj 990 417 route;
#X text 311 529 turn off last selected->;
#X obj 700 417 nbx 5 14 -1e+37 1e+37 0 1 empty empty empty 0 -8 0 10
#fcfcfc #000000 #000000 3 256;
#X msg 252 101 127;
#X text 210 -6 ->recall page selected before last boot;
#X msg 372 131 3;
#X msg 406 130 19;
#X msg 438 130 35;
#X msg 475 130 51;
#X msg 648 130 2;
#X msg 679 130 18;
#X msg 711 130 34;
#X msg 743 130 50;
#X obj 1028 488 - 33;
#X text 855 487 turn on selected color->;
#X obj 715 629 route 3 19 35 51 67 83 99 115 2 18 34 50 66 82 98 114
;
#X obj 828 55 change;
#X text 250 486 remember each PD to have different VALUE NAME!->;
#X obj 62 62 bng 15 250 50 0 empty empty empty 17 7 0 10 #fcfcfc #000000
#000000;
#X obj 36 -5 inlet from recall bang 2;
#X obj 595 526 nbx 5 14 -1e+37 1e+37 0 1 empty empty empty 0 -8 0 10
#fcfcfc #000000 #000000 19 256;
#X obj 568 457 bng 15 250 50 0 empty empty empty 17 7 0 10 #fcfcfc
#000000 #000000;
#X obj 596 423 change;
#X msg 908 106 0, f 2;
#X msg 487 530 16;
#X obj 600 459 nbx 5 14 -1e+37 1e+37 0 1 empty empty empty 0 -8 0 10
#fcfcfc #000000 #000000 3 256;
#X obj 598 490 value scenb;
#X obj 1295 17 inlet notein left;
#X obj 1294 70 inlet notein right;
#X obj 589 636 noteout 1;
#X obj 1004 568 noteout 1;
#X obj 192 352 inlet to switch to next page;
#X msg 452 451 16;
#X obj 774 734 ctlout 55 17;
#X msg 839 666 0;
#X msg 874 666 1;
#X msg 908 666 2;
#X msg 944 666 3;
#X msg 1103 666 4;
#X msg 1135 666 5;
#X msg 1167 666 6;
#X msg 1199 666 7;
#X obj 1009 1146 route;
#X text 330 1258 turn off last selected->;
#X obj 719 1146 nbx 5 14 -1e+37 1e+37 0 1 empty empty empty 0 -8 0
10 #fcfcfc #000000 #000000 98 256;
#X msg 271 830 127;
#X msg 529 859 67;
#X msg 564 859 83;
#X msg 598 859 99;
#X msg 634 859 115;
#X msg 793 859 66;
#X msg 825 859 82;
#X msg 857 859 98;
#X msg 897 859 114;
#X obj 1047 1217 - 33;
#X text 874 1216 turn on selected color->;
#X obj 734 1358 route 3 19 35 51 67 83 99 115 2 18 34 50 66 82 98 114
;
#X obj 847 784 change;
#X text 269 1215 remember each PD to have different VALUE NAME!->;
#X obj 56 786 bng 15 250 50 0 empty empty empty 17 7 0 10 #fcfcfc #000000
#000000;
#X obj 614 1255 nbx 5 14 -1e+37 1e+37 0 1 empty empty empty 0 -8 0
10 #fcfcfc #000000 #000000 99 256;
#X obj 587 1186 bng 15 250 50 0 empty empty empty 17 7 0 10 #fcfcfc
#000000 #000000;
#X obj 615 1152 change;
#X msg 927 835 0, f 2;
#X msg 506 1259 16;
#X obj 619 1188 nbx 5 14 -1e+37 1e+37 0 1 empty empty empty 0 -8 0
10 #fcfcfc #000000 #000000 98 256;
#X obj 608 1365 noteout 1;
#X obj 1023 1297 noteout 1;
#X obj 246 1099 inlet to switch to next page;
#X msg 471 1180 16;
#X obj 909 1460 ctlout 56 17;
#X msg 720 1397 0;
#X msg 754 1395 1;
#X msg 786 1395 2;
#X msg 823 1395 3;
#X msg 996 1395 4;
#X msg 1027 1395 5;
#X msg 1059 1395 6;
#X msg 1091 1395 7;
#X obj 433 84 route 3 19 35 51 2 18 34 50;
#X obj 452 813 route 67 83 99 115 66 82 98 114;
#X obj 617 1219 value scenb2;
#X msg 701 668 8;
#X msg 735 666 9;
#X msg 767 666 10;
#X msg 804 666 11;
#X msg 977 666 12;
#X msg 1008 666 13;
#X msg 1040 666 14;
#X msg 1072 666 15;
#X msg 858 1395 0;
#X msg 893 1395 1;
#X msg 927 1395 2;
#X msg 963 1395 3;
#X msg 1122 1395 4;
#X msg 1154 1395 5;
#X msg 1186 1395 6;
#X msg 1218 1395 7;
#X obj 750 489 nbx 5 14 -1e+37 1e+37 0 1 empty empty empty 0 -8 0 10
#fcfcfc #000000 #000000 3 256;
#X obj 786 1214 nbx 5 14 -1e+37 1e+37 0 1 empty empty empty 0 -8 0
10 #fcfcfc #000000 #000000 98 256;
#X connect 0 1 13 0;
#X connect 2 0 15 0;
#X connect 2 0 98 0;
#X connect 3 0 13 0;
#X connect 5 0 2 0;
#X connect 5 0 22 0;
#X connect 6 0 2 0;
#X connect 6 0 22 0;
#X connect 7 0 2 0;
#X connect 7 0 22 0;
#X connect 8 0 2 0;
#X connect 8 0 22 0;
#X connect 9 0 2 0;
#X connect 9 0 22 0;
#X connect 10 0 2 0;
#X connect 10 0 22 0;
#X connect 11 0 2 0;
#X connect 11 0 22 0;
#X connect 12 0 2 0;
#X connect 12 0 22 0;
#X connect 13 0 30 1;
#X connect 15 0 82 0;
#X connect 15 1 83 0;
#X connect 15 2 84 0;
#X connect 15 3 85 0;
#X connect 15 4 34 0;
#X connect 15 5 35 0;
#X connect 15 6 36 0;
#X connect 15 7 37 0;
#X connect 15 8 86 0;
#X connect 15 9 87 0;
#X connect 15 10 88 0;
#X connect 15 11 89 0;
#X connect 15 12 38 0;
#X connect 15 13 39 0;
#X connect 15 14 40 0;
#X connect 15 15 41 0;
#X connect 16 0 79 0;
#X connect 18 0 3 0;
#X connect 18 0 2 0;
#X connect 18 0 24 0;
#X connect 18 0 20 0;
#X connect 19 0 18 0;
#X connect 19 0 59 0;
#X connect 20 0 29 0;
#X connect 21 0 26 0;
#X connect 22 0 21 0;
#X connect 22 0 25 0;
#X connect 24 0 29 1;
#X connect 25 0 26 0;
#X connect 26 0 20 0;
#X connect 27 0 16 0;
#X connect 27 0 57 0;
#X connect 28 0 0 0;
#X connect 28 0 42 0;
#X connect 31 0 32 0;
#X connect 31 0 98 0;
#X connect 32 0 30 1;
#X connect 42 1 54 0;
#X connect 44 0 56 0;
#X connect 44 0 99 0;
#X connect 45 0 54 0;
#X connect 46 0 44 0;
#X connect 46 0 62 0;
#X connect 47 0 44 0;
#X connect 47 0 62 0;
#X connect 48 0 44 0;
#X connect 48 0 62 0;
#X connect 49 0 44 0;
#X connect 49 0 62 0;
#X connect 50 0 44 0;
#X connect 50 0 62 0;
#X connect 51 0 44 0;
#X connect 51 0 62 0;
#X connect 52 0 44 0;
#X connect 52 0 62 0;
#X connect 53 0 44 0;
#X connect 53 0 62 0;
#X connect 54 0 67 1;
#X connect 56 0 71 0;
#X connect 56 1 72 0;
#X connect 56 2 73 0;
#X connect 56 3 74 0;
#X connect 56 4 90 0;
#X connect 56 5 91 0;
#X connect 56 6 92 0;
#X connect 56 7 93 0;
#X connect 56 8 75 0;
#X connect 56 9 76 0;
#X connect 56 10 77 0;
#X connect 56 11 78 0;
#X connect 56 12 94 0;
#X connect 56 13 95 0;
#X connect 56 14 96 0;
#X connect 56 15 97 0;
#X connect 57 0 80 0;
#X connect 59 0 45 0;
#X connect 59 0 44 0;
#X connect 59 0 64 0;
#X connect 59 0 60 0;
#X connect 60 0 66 0;
#X connect 61 0 81 0;
#X connect 62 0 61 0;
#X connect 62 0 65 0;
#X connect 64 0 66 1;
#X connect 65 0 81 0;
#X connect 68 0 69 0;
#X connect 68 0 99 0;
#X connect 69 0 67 1;
#X connect 79 0 5 0;
#X connect 79 1 6 0;
#X connect 79 2 7 0;
#X connect 79 3 8 0;
#X connect 79 4 9 0;
#X connect 79 5 10 0;
#X connect 79 6 11 0;
#X connect 79 7 12 0;
#X connect 80 0 46 0;
#X connect 80 1 47 0;
#X connect 80 2 48 0;
#X connect 80 3 49 0;
#X connect 80 4 50 0;
#X connect 80 5 51 0;
#X connect 80 6 52 0;
#X connect 80 7 53 0;
#X connect 81 0 60 0;
#X connect 82 0 33 0;
#X connect 83 0 33 0;
#X connect 84 0 33 0;
#X connect 85 0 33 0;
#X connect 86 0 33 0;
#X connect 87 0 33 0;
#X connect 88 0 33 0;
#X connect 89 0 33 0;
#X connect 90 0 70 0;
#X connect 91 0 70 0;
#X connect 92 0 70 0;
#X connect 93 0 70 0;
#X connect 94 0 70 0;
#X connect 95 0 70 0;
#X connect 96 0 70 0;
#X connect 97 0 70 0;
#X connect 98 0 30 0;
#X connect 99 0 67 0;
#X restore 505 365 pd sceneBselect;
#X obj 514 178 notein 1;
#X obj 326 296 spigot 4;
#X obj 393 295 spigot 4;
#X obj 502 293 spigot 3;
#X obj 566 293 spigot 3;
#X obj 339 122 nbx 5 14 -1e+37 1e+37 0 0 empty empty empty 0 -8 0 10
#fcfcfc #000000 #000000 0 256;
#X obj 270 161 route 4;
#X msg 249 202 4;
#X msg 295 200 0;
#X msg 411 198 0;
#X obj 386 159 route 3;
#X msg 365 200 3;
#X obj 44 224 bng 15 250 50 0 empty empty empty 17 7 0 10 #fcfcfc #000000
#000000;
#X obj 42 280 bng 15 250 50 0 empty empty empty 17 7 0 10 #fcfcfc #000000
#000000;
#X obj 44 21 inlet from loadbang;
#X obj 622 81 bng 15 250 50 0 empty empty empty 17 7 0 10 #fcfcfc #000000
#000000;
#X obj 701 78 bng 15 250 50 0 empty empty empty 17 7 0 10 #fcfcfc #000000
#000000;
#X obj 765 79 bng 15 250 50 0 empty empty empty 17 7 0 10 #fcfcfc #000000
#000000;
#X obj 847 73 bng 15 250 50 0 empty empty empty 17 7 0 10 #fcfcfc #000000
#000000;
#X obj 929 76 bng 15 250 50 0 empty empty empty 17 7 0 10 #fcfcfc #000000
#000000;
#X obj 1016 78 bng 15 250 50 0 empty empty empty 17 7 0 10 #fcfcfc
#000000 #000000;
#X obj 1094 77 bng 15 250 50 0 empty empty empty 17 7 0 10 #fcfcfc
#000000 #000000;
#X obj 1175 73 bng 15 250 50 0 empty empty empty 17 7 0 10 #fcfcfc
#000000 #000000;
#X obj 738 21 bng 15 250 50 0 empty empty empty 17 7 0 10 #fcfcfc #000000
#000000;
#X obj 1022 210 noteout 1;
#X msg 665 143 3;
#X msg 738 142 19;
#X msg 821 140 35;
#X msg 903 134 51;
#X msg 985 137 67;
#X msg 1072 139 83;
#X msg 1150 138 99;
#X msg 1231 134 115;
#X msg 624 146 16;
#X msg 705 142 16;
#X msg 786 141 16;
#X msg 868 135 16;
#X msg 950 138 16;
#X msg 1037 140 16;
#X msg 1115 139 16;
#X msg 1196 135 16;
#X obj 705 293 bng 15 250 50 0 empty empty empty 17 7 0 10 #fcfcfc
#000000 #000000;
#X obj 784 290 bng 15 250 50 0 empty empty empty 17 7 0 10 #fcfcfc
#000000 #000000;
#X obj 848 291 bng 15 250 50 0 empty empty empty 17 7 0 10 #fcfcfc
#000000 #000000;
#X obj 930 285 bng 15 250 50 0 empty empty empty 17 7 0 10 #fcfcfc
#000000 #000000;
#X obj 1012 288 bng 15 250 50 0 empty empty empty 17 7 0 10 #fcfcfc
#000000 #000000;
#X obj 1099 290 bng 15 250 50 0 empty empty empty 17 7 0 10 #fcfcfc
#000000 #000000;
#X obj 1177 289 bng 15 250 50 0 empty empty empty 17 7 0 10 #fcfcfc
#000000 #000000;
#X obj 1258 285 bng 15 250 50 0 empty empty empty 17 7 0 10 #fcfcfc
#000000 #000000;
#X obj 821 233 bng 15 250 50 0 empty empty empty 17 7 0 10 #fcfcfc
#000000 #000000;
#X obj 1105 422 noteout 1;
#X msg 707 358 16;
#X msg 788 354 16;
#X msg 869 353 16;
#X msg 951 347 16;
#X msg 1033 350 16;
#X msg 1120 352 16;
#X msg 1198 351 16;
#X msg 1279 347 16;
#X msg 748 355 2;
#X msg 821 354 18;
#X msg 904 352 34;
#X msg 986 346 50;
#X msg 1068 349 66;
#X msg 1155 351 82;
#X msg 1232 350 98;
#X msg 1314 346 114;
#X obj 47 55 delay 300 1 msec;
#X connect 0 0 8 0;
#X connect 3 0 4 0;
#X connect 3 0 6 0;
#X connect 3 1 5 0;
#X connect 3 1 7 0;
#X connect 4 0 1 4;
#X connect 5 0 1 3;
#X connect 6 0 2 4;
#X connect 7 0 2 3;
#X connect 8 0 9 0;
#X connect 8 0 13 0;
#X connect 9 0 10 0;
#X connect 9 1 11 0;
#X connect 10 0 4 1;
#X connect 10 0 5 1;
#X connect 10 0 15 0;
#X connect 11 0 4 1;
#X connect 11 0 5 1;
#X connect 12 0 6 1;
#X connect 12 0 7 1;
#X connect 13 0 14 0;
#X connect 13 1 12 0;
#X connect 14 0 6 1;
#X connect 14 0 7 1;
#X connect 14 0 16 0;
#X connect 15 0 1 0;
#X connect 15 0 2 1;
#X connect 15 0 2 2;
#X connect 16 0 2 0;
#X connect 16 0 1 1;
#X connect 16 0 1 2;
#X connect 17 0 26 0;
#X connect 17 0 52 0;
#X connect 17 0 70 0;
#X connect 18 0 36 0;
#X connect 18 0 28 0;
#X connect 19 0 37 0;
#X connect 19 0 29 0;
#X connect 20 0 38 0;
#X connect 20 0 30 0;
#X connect 21 0 39 0;
#X connect 21 0 31 0;
#X connect 22 0 40 0;
#X connect 22 0 32 0;
#X connect 23 0 41 0;
#X connect 23 0 33 0;
#X connect 24 0 42 0;
#X connect 24 0 34 0;
#X connect 25 0 43 0;
#X connect 25 0 35 0;
#X connect 26 0 18 0;
#X connect 26 0 19 0;
#X connect 26 0 20 0;
#X connect 26 0 21 0;
#X connect 26 0 22 0;
#X connect 26 0 23 0;
#X connect 26 0 24 0;
#X connect 26 0 25 0;
#X connect 28 0 27 0;
#X connect 29 0 27 0;
#X connect 30 0 27 0;
#X connect 31 0 27 0;
#X connect 32 0 27 0;
#X connect 33 0 27 0;
#X connect 34 0 27 0;
#X connect 35 0 27 0;
#X connect 36 0 27 1;
#X connect 37 0 27 1;
#X connect 38 0 27 1;
#X connect 39 0 27 1;
#X connect 40 0 27 1;
#X connect 41 0 27 1;
#X connect 42 0 27 1;
#X connect 43 0 27 1;
#X connect 44 0 54 0;
#X connect 44 0 62 0;
#X connect 45 0 55 0;
#X connect 45 0 63 0;
#X connect 46 0 56 0;
#X connect 46 0 64 0;
#X connect 47 0 57 0;
#X connect 47 0 65 0;
#X connect 48 0 58 0;
#X connect 48 0 66 0;
#X connect 49 0 59 0;
#X connect 49 0 67 0;
#X connect 50 0 60 0;
#X connect 50 0 68 0;
#X connect 51 0 61 0;
#X connect 51 0 69 0;
#X connect 52 0 44 0;
#X connect 52 0 45 0;
#X connect 52 0 46 0;
#X connect 52 0 47 0;
#X connect 52 0 48 0;
#X connect 52 0 49 0;
#X connect 52 0 50 0;
#X connect 52 0 51 0;
#X connect 54 0 53 1;
#X connect 55 0 53 1;
#X connect 56 0 53 1;
#X connect 57 0 53 1;
#X connect 58 0 53 1;
#X connect 59 0 53 1;
#X connect 60 0 53 1;
#X connect 61 0 53 1;
#X connect 62 0 53 0;
#X connect 63 0 53 0;
#X connect 64 0 53 0;
#X connect 65 0 53 0;
#X connect 66 0 53 0;
#X connect 67 0 53 0;
#X connect 68 0 53 0;
#X connect 69 0 53 0;
#X connect 70 0 0 0;
#X restore 57 390 pd SCENE SELECT;
#X obj 1232 72 bng 15 250 50 0 empty empty empty 17 7 0 10 #fcfcfc
#000000 #000000;
#X msg 1147 498 146 \, 15 \, 31 \, 47 \, 63 \, 63 \, 62 \, 61 \, 60
;
#N canvas 284 131 751 400 display 1;
#X obj 297 127 midiout;
#X msg 10 113 240 \, 0 \, 32 \, 41 \, 9 \, 0 \, 247;
#X text 32 94 text off;
#X msg 31 188 176 \, 0 \, 40;
#X msg 594 276 144 \, 97 \, 59;
#X msg 586 253 144 \, 98 \, 56;
#X msg 580 200 144 \, 96 \, 12;
#X msg 41 237 176 \, 0 \, 32;
#X msg 597 225 144 \, 96 \, 63;
#X text 110 187 blink;
#X text 144 240 blink;
#X text 291 35 text on:240 \, 0 \, 32 \, 41 \, 9 \, color \, speed
1-7 \, text \, 247;
#X msg 279 60 240 \, 0 \, 32 \, 41 \, 9 \, 14 \, 7 \, 72 \, 101 \,
108 \, 108 \, 111 \, 33 \, 12 \, 119 \, 111 \, 114 \, 108 \, 100 \,
33 \, 247;
#X connect 1 0 0 0;
#X connect 3 0 0 0;
#X connect 4 0 0 0;
#X connect 5 0 0 0;
#X connect 6 0 0 0;
#X connect 7 0 0 0;
#X connect 8 0 0 0;
#X connect 12 0 0 0;
#X restore 1197 605 pd display scroll text;
#X obj 1263 543 midiout;
#X text 1168 476 quick fill row of buttons;
#X msg 1218 269 176 \, 30 \, 13;
#X msg 1219 351 176 \, 30 \, 2;
#X text 1308 266 brightness low;
#X text 1299 353 brightness normal;
#X obj 1099 361 midiout;
#X msg 1224 402 176 \, 30 \, 0;
#X text 1306 402 brightness full;
#X msg 1217 299 176 \, 30 \, 8;
#X msg 1219 324 176 \, 30 \, 4;
#N canvas 27 23 1407 823 PROGRAM 0;
#X obj 514 178 notein 1;
#X obj 326 296 spigot 4;
#X obj 393 295 spigot 4;
#X obj 502 293 spigot 3;
#X obj 566 293 spigot 3;
#X obj 339 122 nbx 5 14 -1e+37 1e+37 0 0 empty empty empty 0 -8 0 10
#fcfcfc #000000 #000000 0 256;
#X msg 249 202 4;
#X msg 295 200 0;
#X msg 411 198 0;
#X msg 365 200 3;
#X obj 44 228 bng 15 250 50 0 empty empty empty 17 7 0 10 #fcfcfc #000000
#000000;
#X obj 106 181 bng 15 250 50 0 empty empty empty 17 7 0 10 #fcfcfc
#000000 #000000;
#X obj 44 21 inlet from loadbang;
#X obj 619 75 bng 15 250 50 0 empty empty empty 17 7 0 10 #fcfcfc #000000
#000000;
#X obj 701 78 bng 15 250 50 0 empty empty empty 17 7 0 10 #fcfcfc #000000
#000000;
#X obj 765 79 bng 15 250 50 0 empty empty empty 17 7 0 10 #fcfcfc #000000
#000000;
#X obj 847 73 bng 15 250 50 0 empty empty empty 17 7 0 10 #fcfcfc #000000
#000000;
#X obj 929 76 bng 15 250 50 0 empty empty empty 17 7 0 10 #fcfcfc #000000
#000000;
#X obj 1016 78 bng 15 250 50 0 empty empty empty 17 7 0 10 #fcfcfc
#000000 #000000;
#X obj 1094 77 bng 15 250 50 0 empty empty empty 17 7 0 10 #fcfcfc
#000000 #000000;
#X obj 1175 73 bng 15 250 50 0 empty empty empty 17 7 0 10 #fcfcfc
#000000 #000000;
#X obj 738 21 bng 15 250 50 0 empty empty empty 17 7 0 10 #fcfcfc #000000
#000000;
#X obj 1022 210 noteout 1;
#X obj 705 293 bng 15 250 50 0 empty empty empty 17 7 0 10 #fcfcfc
#000000 #000000;
#X obj 784 290 bng 15 250 50 0 empty empty empty 17 7 0 10 #fcfcfc
#000000 #000000;
#X obj 848 291 bng 15 250 50 0 empty empty empty 17 7 0 10 #fcfcfc
#000000 #000000;
#X obj 930 285 bng 15 250 50 0 empty empty empty 17 7 0 10 #fcfcfc
#000000 #000000;
#X obj 1012 288 bng 15 250 50 0 empty empty empty 17 7 0 10 #fcfcfc
#000000 #000000;
#X obj 1099 290 bng 15 250 50 0 empty empty empty 17 7 0 10 #fcfcfc
#000000 #000000;
#X obj 1177 289 bng 15 250 50 0 empty empty empty 17 7 0 10 #fcfcfc
#000000 #000000;
#X obj 1258 285 bng 15 250 50 0 empty empty empty 17 7 0 10 #fcfcfc
#000000 #000000;
#X obj 821 233 bng 15 250 50 0 empty empty empty 17 7 0 10 #fcfcfc
#000000 #000000;
#X obj 1105 422 noteout 1;
#X obj 47 55 delay 300 1 msec;
#N canvas 47 74 1291 739 PROGRAM 0;
#X obj 549 45 ctlin;
#X obj 361 225 change;
#X obj 342 255 bng 15 250 50 0 empty empty empty 17 7 0 10 #fcfcfc
#000000 #000000;
#X obj 402 392 ctlout 1;
#X obj 542 165 route;
#X obj 152 568 outlet selected page;
#X text 171 297 turn off last selected->;
#X text 466 301 turn on selected->;
#X obj 380 299 nbx 5 14 -1e+37 1e+37 0 1 empty empty empty 0 -8 0 10
#fcfcfc #000000 #000000 105 256;
#X obj 660 267 nbx 5 14 -1e+37 1e+37 0 1 empty empty empty 0 -8 0 10
#fcfcfc #000000 #000000 105 256;
#X obj 599 382 ctlout;
#X msg 127 117 127;
#X obj 195 470 nbx 5 14 -1e+37 1e+37 0 1 empty empty empty 0 -8 0 10
#fcfcfc #000000 #000000 2 256;
#X obj 90 163 delay 100 1 msec;
#X text 252 470 ->remember last page selected;
#X text 206 164 ->delay to switch to last page;
#X text 245 32 ->recall page selected before last boot;
#X obj 199 435 - 103;
#X obj 105 31 inlet from loadbang;
#X msg 429 161 104;
#X msg 483 164 105;
#X obj 446 88 route 104 105;
#X obj 596 273 - 122;
#X msg 346 296 0;
#X connect 0 0 4 0;
#X connect 0 1 21 0;
#X connect 1 0 2 0;
#X connect 1 0 8 0;
#X connect 1 0 17 0;
#X connect 2 0 23 0;
#X connect 2 0 8 0;
#X connect 4 1 22 0;
#X connect 8 0 3 1;
#X connect 9 0 10 1;
#X connect 11 0 22 0;
#X connect 12 0 5 0;
#X connect 13 0 12 0;
#X connect 17 0 12 0;
#X connect 18 0 11 0;
#X connect 18 0 13 0;
#X connect 19 0 9 0;
#X connect 19 0 1 0;
#X connect 20 0 9 0;
#X connect 20 0 1 0;
#X connect 21 0 19 0;
#X connect 21 1 20 0;
#X connect 22 0 10 0;
#X connect 23 0 3 0;
#X restore 45 88 pd PROGRAM select:output selected page;
#N canvas 0 59 1398 784 programA 0;
#X obj 990 417 route;
#X text 304 529 turn off last selected->;
#X obj 700 417 nbx 5 14 -1e+37 1e+37 0 1 empty empty empty 0 -8 0 10
#fcfcfc #000000 #000000 32 256;
#X msg 252 101 127;
#X text 211 21 ->recall page selected before last boot;
#X text 855 487 turn on selected color->;
#X obj 828 55 change;
#X text 250 486 remember each PD to have different VALUE NAME!->;
#X obj 37 57 bng 15 250 50 0 empty empty empty 17 7 0 10 #fcfcfc #000000
#000000;
#X obj 37 22 inlet from recall bang 2;
#X obj 595 526 nbx 5 14 -1e+37 1e+37 0 1 empty empty empty 0 -8 0 10
#fcfcfc #000000 #000000 17 256;
#X obj 568 457 bng 15 250 50 0 empty empty empty 17 7 0 10 #fcfcfc
#000000 #000000;
#X obj 589 636 noteout 1;
#X obj 1001 568 noteout 1;
#X obj 596 423 change;
#X obj 600 459 nbx 5 14 -1e+37 1e+37 0 1 empty empty empty 0 -8 0 10
#fcfcfc #000000 #000000 32 256;
#X obj 1325 23 inlet notein left;
#X obj 1324 69 inlet notein right;
#X obj 184 350 inlet to switch to next page;
#X obj 786 487 nbx 5 14 -1e+37 1e+37 0 1 empty empty empty 0 -8 0 10
#fcfcfc #000000 #000000 32 256;
#X msg 372 131 1;
#X obj 433 84 route 1 17 33 49 65 81 97 113 0 16 32 48 64 80 96 112
;
#X msg 405 130 17;
#X msg 438 130 33;
#X msg 475 130 49;
#X msg 514 130 65;
#X msg 549 131 81;
#X msg 584 132 97;
#X msg 617 132 113;
#X msg 653 132 0;
#X msg 686 131 16;
#X msg 719 131 32;
#X msg 756 131 48;
#X msg 792 132 64;
#X msg 830 132 80;
#X msg 864 133 96;
#X msg 896 134 112;
#X obj 731 609 route 1 17 33 49 65 81 97 113 0 16 32 48 64 80 96 112
;
#X msg 671 670 1;
#X msg 705 670 2;
#X msg 735 670 3;
#X msg 766 670 4;
#X msg 797 669 5;
#X msg 830 669 6;
#X msg 861 669 7;
#X msg 892 669 8;
#X msg 924 668 9;
#X msg 957 668 10;
#X msg 988 668 11;
#X msg 1019 668 12;
#X msg 1050 667 13;
#X msg 1083 667 14;
#X msg 1114 667 15;
#X msg 1145 667 16;
#X obj 1028 488 - 122;
#X obj 832 719 pgmout 17;
#X obj 598 490 value program1;
#X msg 344 430 25;
#X msg 487 530 25;
#X connect 0 1 54 0;
#X connect 2 0 19 0;
#X connect 2 0 37 0;
#X connect 3 0 54 0;
#X connect 6 0 21 0;
#X connect 8 0 3 0;
#X connect 8 0 2 0;
#X connect 8 0 58 0;
#X connect 8 0 10 0;
#X connect 9 0 8 0;
#X connect 10 0 12 0;
#X connect 11 0 56 0;
#X connect 14 0 11 0;
#X connect 14 0 15 0;
#X connect 15 0 56 0;
#X connect 16 0 6 0;
#X connect 17 0 0 0;
#X connect 18 0 57 0;
#X connect 18 0 19 0;
#X connect 19 0 13 0;
#X connect 20 0 2 0;
#X connect 20 0 14 0;
#X connect 21 0 20 0;
#X connect 21 1 22 0;
#X connect 21 2 23 0;
#X connect 21 3 24 0;
#X connect 21 4 25 0;
#X connect 21 5 26 0;
#X connect 21 6 27 0;
#X connect 21 7 28 0;
#X connect 21 8 29 0;
#X connect 21 9 30 0;
#X connect 21 10 31 0;
#X connect 21 11 32 0;
#X connect 21 12 33 0;
#X connect 21 13 34 0;
#X connect 21 14 35 0;
#X connect 21 15 36 0;
#X connect 22 0 2 0;
#X connect 22 0 14 0;
#X connect 23 0 2 0;
#X connect 23 0 14 0;
#X connect 24 0 2 0;
#X connect 24 0 14 0;
#X connect 25 0 2 0;
#X connect 25 0 14 0;
#X connect 26 0 2 0;
#X connect 26 0 14 0;
#X connect 27 0 2 0;
#X connect 27 0 14 0;
#X connect 28 0 2 0;
#X connect 28 0 14 0;
#X connect 29 0 14 0;
#X connect 29 0 2 0;
#X connect 30 0 14 0;
#X connect 30 0 2 0;
#X connect 31 0 14 0;
#X connect 31 0 2 0;
#X connect 32 0 14 0;
#X connect 32 0 2 0;
#X connect 33 0 14 0;
#X connect 33 0 2 0;
#X connect 34 0 14 0;
#X connect 34 0 2 0;
#X connect 35 0 14 0;
#X connect 35 0 2 0;
#X connect 36 0 14 0;
#X connect 36 0 2 0;
#X connect 37 0 38 0;
#X connect 37 1 39 0;
#X connect 37 2 40 0;
#X connect 37 3 41 0;
#X connect 37 4 42 0;
#X connect 37 5 43 0;
#X connect 37 6 44 0;
#X connect 37 7 45 0;
#X connect 37 8 46 0;
#X connect 37 9 47 0;
#X connect 37 10 48 0;
#X connect 37 11 49 0;
#X connect 37 12 50 0;
#X connect 37 13 51 0;
#X connect 37 14 52 0;
#X connect 37 15 53 0;
#X connect 38 0 55 0;
#X connect 39 0 55 0;
#X connect 40 0 55 0;
#X connect 41 0 55 0;
#X connect 42 0 55 0;
#X connect 43 0 55 0;
#X connect 44 0 55 0;
#X connect 45 0 55 0;
#X connect 46 0 55 0;
#X connect 47 0 55 0;
#X connect 48 0 55 0;
#X connect 49 0 55 0;
#X connect 50 0 55 0;
#X connect 51 0 55 0;
#X connect 52 0 55 0;
#X connect 53 0 55 0;
#X connect 54 0 13 1;
#X connect 56 0 10 0;
#X connect 57 0 13 1;
#X connect 58 0 12 1;
#X restore 298 370 pd programA;
#X obj 270 161 route 2;
#X obj 386 159 route 1;
#X msg 748 355 0;
#X msg 821 354 16;
#X msg 904 352 32;
#X msg 986 346 48;
#X msg 1155 351 80;
#X msg 1232 350 96;
#X msg 1314 346 112;
#X msg 665 143 1;
#X msg 738 142 17;
#X msg 821 140 33;
#X msg 903 134 49;
#X msg 1068 349 64;
#X msg 985 137 65;
#X msg 1072 139 81;
#X msg 1231 134 113;
#X msg 1150 138 97;
#N canvas 0 59 1398 784 programB 0;
#X obj 990 417 route;
#X text 304 529 turn off last selected->;
#X obj 700 417 nbx 5 14 -1e+37 1e+37 0 1 empty empty empty 0 -8 0 10
#fcfcfc #000000 #000000 96 256;
#X msg 252 101 127;
#X text 211 21 ->recall page selected before last boot;
#X text 855 487 turn on selected color->;
#X obj 828 55 change;
#X text 250 486 remember each PD to have different VALUE NAME!->;
#X obj 37 57 bng 15 250 50 0 empty empty empty 17 7 0 10 #fcfcfc #000000
#000000;
#X obj 37 22 inlet from recall bang 2;
#X obj 595 526 nbx 5 14 -1e+37 1e+37 0 1 empty empty empty 0 -8 0 10
#fcfcfc #000000 #000000 17 256;
#X obj 568 457 bng 15 250 50 0 empty empty empty 17 7 0 10 #fcfcfc
#000000 #000000;
#X obj 589 636 noteout 1;
#X obj 1001 568 noteout 1;
#X obj 596 423 change;
#X obj 600 459 nbx 5 14 -1e+37 1e+37 0 1 empty empty empty 0 -8 0 10
#fcfcfc #000000 #000000 96 256;
#X obj 1325 23 inlet notein left;
#X obj 1324 69 inlet notein right;
#X obj 184 350 inlet to switch to next page;
#X obj 786 487 nbx 5 14 -1e+37 1e+37 0 1 empty empty empty 0 -8 0 10
#fcfcfc #000000 #000000 96 256;
#X msg 372 131 1;
#X obj 433 84 route 1 17 33 49 65 81 97 113 0 16 32 48 64 80 96 112
;
#X msg 405 130 17;
#X msg 438 130 33;
#X msg 475 130 49;
#X msg 514 130 65;
#X msg 549 131 81;
#X msg 584 132 97;
#X msg 617 132 113;
#X msg 653 132 0;
#X msg 686 131 16;
#X msg 719 131 32;
#X msg 756 131 48;
#X msg 792 132 64;
#X msg 830 132 80;
#X msg 864 133 96;
#X msg 896 134 112;
#X obj 731 609 route 1 17 33 49 65 81 97 113 0 16 32 48 64 80 96 112
;
#X obj 1028 488 - 122;
#X obj 832 719 pgmout 17;
#X obj 598 490 value program2;
#X msg 671 670 17;
#X msg 705 670 18;
#X msg 735 670 19;
#X msg 766 670 20;
#X msg 797 669 21;
#X msg 830 669 22;
#X msg 861 669 23;
#X msg 892 669 24;
#X msg 924 668 25;
#X msg 957 668 26;
#X msg 988 668 27;
#X msg 1019 668 28;
#X msg 1050 667 29;
#X msg 1083 667 30;
#X msg 1114 667 31;
#X msg 1145 667 32;
#X msg 344 430 25;
#X msg 487 530 25;
#X connect 0 1 38 0;
#X connect 2 0 19 0;
#X connect 2 0 37 0;
#X connect 3 0 38 0;
#X connect 6 0 21 0;
#X connect 8 0 3 0;
#X connect 8 0 2 0;
#X connect 8 0 58 0;
#X connect 8 0 10 0;
#X connect 9 0 8 0;
#X connect 10 0 12 0;
#X connect 11 0 40 0;
#X connect 14 0 11 0;
#X connect 14 0 15 0;
#X connect 15 0 40 0;
#X connect 16 0 6 0;
#X connect 17 0 0 0;
#X connect 18 0 57 0;
#X connect 18 0 19 0;
#X connect 19 0 13 0;
#X connect 20 0 2 0;
#X connect 20 0 14 0;
#X connect 21 0 20 0;
#X connect 21 1 22 0;
#X connect 21 2 23 0;
#X connect 21 3 24 0;
#X connect 21 4 25 0;
#X connect 21 5 26 0;
#X connect 21 6 27 0;
#X connect 21 7 28 0;
#X connect 21 8 29 0;
#X connect 21 9 30 0;
#X connect 21 10 31 0;
#X connect 21 11 32 0;
#X connect 21 12 33 0;
#X connect 21 13 34 0;
#X connect 21 14 35 0;
#X connect 21 15 36 0;
#X connect 22 0 2 0;
#X connect 22 0 14 0;
#X connect 23 0 2 0;
#X connect 23 0 14 0;
#X connect 24 0 2 0;
#X connect 24 0 14 0;
#X connect 25 0 2 0;
#X connect 25 0 14 0;
#X connect 26 0 2 0;
#X connect 26 0 14 0;
#X connect 27 0 2 0;
#X connect 27 0 14 0;
#X connect 28 0 2 0;
#X connect 28 0 14 0;
#X connect 29 0 14 0;
#X connect 29 0 2 0;
#X connect 30 0 14 0;
#X connect 30 0 2 0;
#X connect 31 0 14 0;
#X connect 31 0 2 0;
#X connect 32 0 14 0;
#X connect 32 0 2 0;
#X connect 33 0 14 0;
#X connect 33 0 2 0;
#X connect 34 0 14 0;
#X connect 34 0 2 0;
#X connect 35 0 14 0;
#X connect 35 0 2 0;
#X connect 36 0 14 0;
#X connect 36 0 2 0;
#X connect 37 0 41 0;
#X connect 37 1 42 0;
#X connect 37 2 43 0;
#X connect 37 3 44 0;
#X connect 37 4 45 0;
#X connect 37 5 46 0;
#X connect 37 6 47 0;
#X connect 37 7 48 0;
#X connect 37 8 49 0;
#X connect 37 9 50 0;
#X connect 37 10 51 0;
#X connect 37 11 52 0;
#X connect 37 12 53 0;
#X connect 37 13 54 0;
#X connect 37 14 55 0;
#X connect 37 15 56 0;
#X connect 38 0 13 1;
#X connect 40 0 10 0;
#X connect 41 0 39 0;
#X connect 42 0 39 0;
#X connect 43 0 39 0;
#X connect 44 0 39 0;
#X connect 45 0 39 0;
#X connect 46 0 39 0;
#X connect 47 0 39 0;
#X connect 48 0 39 0;
#X connect 49 0 39 0;
#X connect 50 0 39 0;
#X connect 51 0 39 0;
#X connect 52 0 39 0;
#X connect 53 0 39 0;
#X connect 54 0 39 0;
#X connect 55 0 39 0;
#X connect 56 0 39 0;
#X connect 57 0 13 1;
#X connect 58 0 12 1;
#X restore 505 370 pd programB;
#X msg 1279 347 25;
#X msg 1198 351 25;
#X msg 1120 352 25;
#X msg 1033 350 25;
#X msg 951 347 25;
#X msg 869 353 25;
#X msg 788 354 25;
#X msg 707 358 25;
#X msg 624 146 25;
#X msg 705 142 25;
#X msg 786 141 25;
#X msg 868 135 25;
#X msg 950 138 25;
#X msg 1037 140 25;
#X msg 1115 139 25;
#X msg 1196 135 25;
#X connect 0 0 1 0;
#X connect 0 0 3 0;
#X connect 0 1 2 0;
#X connect 0 1 4 0;
#X connect 1 0 35 3;
#X connect 2 0 35 2;
#X connect 3 0 54 3;
#X connect 4 0 54 2;
#X connect 5 0 36 0;
#X connect 5 0 37 0;
#X connect 6 0 1 1;
#X connect 6 0 2 1;
#X connect 6 0 10 0;
#X connect 7 0 1 1;
#X connect 7 0 2 1;
#X connect 8 0 3 1;
#X connect 8 0 4 1;
#X connect 9 0 3 1;
#X connect 9 0 4 1;
#X connect 9 0 11 0;
#X connect 10 0 35 0;
#X connect 10 0 54 1;
#X connect 11 0 35 1;
#X connect 11 0 54 0;
#X connect 12 0 21 0;
#X connect 12 0 31 0;
#X connect 12 0 33 0;
#X connect 13 0 63 0;
#X connect 13 0 45 0;
#X connect 14 0 46 0;
#X connect 14 0 64 0;
#X connect 15 0 47 0;
#X connect 15 0 65 0;
#X connect 16 0 48 0;
#X connect 16 0 66 0;
#X connect 17 0 50 0;
#X connect 17 0 67 0;
#X connect 18 0 51 0;
#X connect 18 0 68 0;
#X connect 19 0 53 0;
#X connect 19 0 69 0;
#X connect 20 0 52 0;
#X connect 20 0 70 0;
#X connect 21 0 13 0;
#X connect 21 0 14 0;
#X connect 21 0 15 0;
#X connect 21 0 16 0;
#X connect 21 0 17 0;
#X connect 21 0 18 0;
#X connect 21 0 19 0;
#X connect 21 0 20 0;
#X connect 23 0 62 0;
#X connect 23 0 38 0;
#X connect 24 0 39 0;
#X connect 24 0 61 0;
#X connect 25 0 40 0;
#X connect 25 0 60 0;
#X connect 26 0 41 0;
#X connect 26 0 59 0;
#X connect 27 0 49 0;
#X connect 27 0 58 0;
#X connect 28 0 42 0;
#X connect 28 0 57 0;
#X connect 29 0 43 0;
#X connect 29 0 56 0;
#X connect 30 0 55 0;
#X connect 30 0 44 0;
#X connect 31 0 23 0;
#X connect 31 0 24 0;
#X connect 31 0 25 0;
#X connect 31 0 26 0;
#X connect 31 0 27 0;
#X connect 31 0 28 0;
#X connect 31 0 29 0;
#X connect 31 0 30 0;
#X connect 33 0 34 0;
#X connect 34 0 5 0;
#X connect 36 0 6 0;
#X connect 36 1 7 0;
#X connect 37 0 9 0;
#X connect 37 1 8 0;
#X connect 38 0 32 0;
#X connect 39 0 32 0;
#X connect 40 0 32 0;
#X connect 41 0 32 0;
#X connect 42 0 32 0;
#X connect 43 0 32 0;
#X connect 44 0 32 0;
#X connect 45 0 22 0;
#X connect 46 0 22 0;
#X connect 47 0 22 0;
#X connect 48 0 22 0;
#X connect 49 0 32 0;
#X connect 50 0 22 0;
#X connect 51 0 22 0;
#X connect 52 0 22 0;
#X connect 53 0 22 0;
#X connect 55 0 32 1;
#X connect 56 0 32 1;
#X connect 57 0 32 1;
#X connect 58 0 32 1;
#X connect 59 0 32 1;
#X connect 60 0 32 1;
#X connect 61 0 32 1;
#X connect 62 0 32 1;
#X connect 63 0 22 1;
#X connect 64 0 22 1;
#X connect 65 0 22 1;
#X connect 66 0 22 1;
#X connect 67 0 22 1;
#X connect 68 0 22 1;
#X connect 69 0 22 1;
#X connect 70 0 22 1;
#X restore 91 464 pd PROGRAM SELECT;
#X obj 89 421 loadbang;
#X text 722 413 a b c d e f g h * * * * * * * * 8* ---------MUTES--------
7* ---------SOLO--------- 6* ----------CUE--------- 5* -------CROSSFADE------
4* ---SCENES-- --SCENES-- 3* ----1->8--- --9->16--- 2* -------PROGRAMS-------
1* --------1->16--------- round buttons: 5:switch beetween two crossfader
settings 4 \, 3:switch beetwen two scenes settings 4:page 1->8 \, 9->16
3:page 9->16 \, 1->8 2 \, 1:switch beetwen Bank 1 and Bank 2 programs
;
#X connect 3 0 7 1;
#X connect 4 0 7 2;
#X connect 5 0 7 0;
#X connect 11 0 10 0;
#X connect 13 0 12 0;
#X connect 14 0 15 0;
#X connect 16 0 5 0;
#X connect 16 0 3 0;
#X connect 16 0 4 0;
#X connect 17 0 19 0;
#X connect 21 0 25 0;
#X connect 22 0 25 0;
#X connect 26 0 25 0;
#X connect 28 0 25 0;
#X connect 29 0 25 0;
#X connect 31 0 30 0;
