#N canvas 0 23 1440 320 12;
#N canvas 139 141 684 592 CC 0;
#X obj 70 40 inlet loadbang;
#X text 119 458 out to launch->;
#X text 265 15 this module is for CC;
#X text 386 149 do not let 0 value pass;
#X obj 244 166 route 127;
#X obj 243 220 tgl 15 1 empty empty empty 17 7 0 10 #fcfcfc #000000
#000000 1 1;
#X obj 318 418 nbx 5 14 -1e+37 1e+37 0 0 empty empty empty 0 -8 0 10
#fcfcfc #000000 #000000 0 256;
#X obj 275 346 * 34;
#X obj 246 125 ctlin 104 1;
#X obj 147 126 ctlin 105 1;
#X connect 4 0 5 0;
#X connect 5 0 7 0;
#X connect 7 0 6 0;
#X restore 50 45 pd CC button #1 \, input->loadbag;
#X text 925 7 make sure novation is as midi input device #1 and as
output device #1 and output for okta is output device #2;
#N canvas 67 255 684 592 CC 0;
#X obj 70 40 inlet loadbang;
#X text 119 458 out to launch->;
#X text 265 15 this module is for CC;
#X text 386 149 do not let 0 value pass;
#X obj 244 166 route 127;
#X obj 243 220 tgl 15 1 empty empty empty 17 7 0 10 #fcfcfc #000000
#000000 1 1;
#X obj 318 418 nbx 5 14 -1e+37 1e+37 0 0 empty empty empty 0 -8 0 10
#fcfcfc #000000 #000000 0 256;
#X obj 275 346 * 34;
#X obj 246 125 ctlin 110 1;
#X connect 4 0 5 0;
#X connect 5 0 7 0;
#X connect 7 0 6 0;
#X restore 49 66 pd CC button #2 \, input->loadbag;
#X msg 1252 163 0;
#X obj 1253 72 bng 15 250 50 0 empty empty empty 17 7 0 10 #fcfcfc
#000000 #000000;
#X msg 1303 162 1;
#X msg 1203 165 0;
#X text 1303 113 reset device;
#X obj 1241 236 ctlout 1;
#N canvas 770 120 658 494 page 0;
#X obj 93 91 change;
#X obj 34 117 bng 15 250 50 0 empty empty empty 17 7 0 10 #fcfcfc #000000
#000000;
#X obj 95 115 v temp;
#X obj 83 168 nbx 5 14 -1e+37 1e+37 0 1 empty empty empty 0 -8 0 10
#fcfcfc #000000 #000000 1 256;
#X obj 78 229 route 1 2 3 4 5 6 7 8;
#X msg 217 269 0, f 1;
#X obj 106 188 bng 15 250 50 0 empty empty empty 17 7 0 10 #fcfcfc
#000000 #000000;
#X obj 92 143 spigot;
#X text 142 144 <-check if not zero \, so after reset value is safe
;
#X msg 187 270 0, f 1;
#X msg 167 270 0, f 1;
#X msg 148 268 0, f 1;
#X msg 130 267 0, f 1;
#X msg 111 267 0, f 1;
#X msg 94 265 0, f 1;
#X msg 76 265 0, f 1;
#X obj 61 40 inlet from page selector;
#X obj 404 357 outlet;
#X obj 353 358 outlet;
#X obj 307 358 outlet;
#X obj 256 359 outlet;
#X obj 203 360 outlet;
#X obj 152 361 outlet;
#X obj 106 361 outlet;
#X obj 55 362 outlet;
#X text 236 228 <-send 0 to closed page \, so spigot from that page
is closed;
#X connect 0 0 1 0;
#X connect 0 0 2 0;
#X connect 1 0 2 0;
#X connect 2 0 7 0;
#X connect 2 0 7 1;
#X connect 3 0 4 0;
#X connect 3 0 6 0;
#X connect 4 0 15 0;
#X connect 4 1 14 0;
#X connect 4 2 13 0;
#X connect 4 3 12 0;
#X connect 4 4 11 0;
#X connect 4 5 10 0;
#X connect 4 6 9 0;
#X connect 4 7 5 0;
#X connect 5 0 17 0;
#X connect 7 0 3 0;
#X connect 9 0 18 0;
#X connect 10 0 19 0;
#X connect 11 0 20 0;
#X connect 12 0 21 0;
#X connect 13 0 22 0;
#X connect 14 0 23 0;
#X connect 15 0 24 0;
#X connect 16 0 0 0;
#X restore 46 134 pd page sel OFF;
#N canvas 496 55 773 616 page 0;
#X obj 85 326 route 1 2 3 4 5 6 7 8;
#X msg 212 414 8, f 1;
#X msg 93 414 1, f 1;
#X msg 110 414 2, f 1;
#X msg 128 414 3, f 1;
#X msg 144 414 4, f 1;
#X msg 161 414 5, f 1;
#X msg 178 414 6, f 1;
#X msg 196 414 7, f 1;
#X obj 441 464 outlet;
#X obj 121 181 inlet from PAGE SELECTOR;
#X obj 383 465 outlet;
#X obj 327 465 outlet;
#X obj 275 463 outlet;
#X obj 220 467 outlet;
#X obj 168 465 outlet;
#X obj 112 465 outlet;
#X obj 60 463 outlet;
#X connect 0 0 2 0;
#X connect 0 1 3 0;
#X connect 0 2 4 0;
#X connect 0 3 5 0;
#X connect 0 4 6 0;
#X connect 0 5 7 0;
#X connect 0 6 8 0;
#X connect 0 7 1 0;
#X connect 1 0 9 0;
#X connect 2 0 17 0;
#X connect 3 0 16 0;
#X connect 4 0 15 0;
#X connect 5 0 14 0;
#X connect 6 0 13 0;
#X connect 7 0 12 0;
#X connect 8 0 11 0;
#X connect 10 0 0 0;
#X restore 49 161 pd page sel ON;
#X obj 1293 418 notein 1;
#X obj 1259 613 nbx 5 14 -1e+37 1e+37 0 0 empty empty empty 0 -8 0
10 #fcfcfc #000000 #000000 0 256;
#N canvas 166 102 1274 700 mute 0;
#X obj 343 102 notein 1;
#X obj 312 133 spigot 8;
#X obj 390 131 spigot 8;
#N canvas 556 278 682 332 top 0;
#X obj 148 -92 stripnote;
#X obj 202 94 noteout 1;
#X text 4 -139 this is for NOTE;
#X text 88 93 out to launch->;
#X obj 237 -45 tgl 15 1 empty empty empty 17 7 0 10 #fcfcfc #000000
#000000 0 1;
#X obj 149 -17 nbx 5 14 -1e+37 1e+37 0 1 empty empty empty 0 -8 0 10
#fcfcfc #000000 #000000 7 256;
#X obj 148 -40 bng 15 250 50 0 empty empty empty 17 7 0 10 #fcfcfc
#000000 #000000;
#X text 218 -93 ->make sure no double message;
#X text 129 124 out to out to OKTA (CC# \, Channel 16+)->;
#X obj 145 -140 inlet notein NOTE;
#X obj 283 -139 inlet notein VALUE;
#X text 203 -65 ->set button number;
#X text 253 -47 ->this make it toggle button;
#X text 9 -19 ->set button number;
#X obj 432 -141 inlet for bang recall VALUE;
#X obj 486 -66 bng 15 250 50 0 empty empty empty 17 7 0 10 #fcfcfc
#000000 #000000;
#X obj 408 122 ctlout 49 17;
#X text 272 13 ->pad color OFF;
#X text 272 40 ->pad color ON;
#X obj 239 41 + 48;
#X obj 239 13 * 30;
#X obj 148 -65 route 7;
#X connect 0 0 21 0;
#X connect 4 0 16 0;
#X connect 4 0 20 0;
#X connect 5 0 1 0;
#X connect 6 0 5 0;
#X connect 9 0 0 0;
#X connect 10 0 0 1;
#X connect 14 0 15 0;
#X connect 15 0 5 0;
#X connect 19 0 1 1;
#X connect 20 0 19 0;
#X connect 21 0 4 0;
#X connect 21 0 6 0;
#X coords 0 332 1 331 85 60 0;
#X restore 46 278 pd top button row #1 MUTES;
#N canvas 556 278 682 332 top 0;
#X obj 148 -92 stripnote;
#X obj 202 94 noteout 1;
#X text 4 -139 this is for NOTE;
#X text 88 93 out to launch->;
#X obj 237 -45 tgl 15 1 empty empty empty 17 7 0 10 #fcfcfc #000000
#000000 0 1;
#X obj 149 -17 nbx 5 14 -1e+37 1e+37 0 1 empty empty empty 0 -8 0 10
#fcfcfc #000000 #000000 23 256;
#X obj 148 -40 bng 15 250 50 0 empty empty empty 17 7 0 10 #fcfcfc
#000000 #000000;
#X obj 239 41 + 48;
#X obj 239 13 * 30;
#X text 218 -93 ->make sure no double message;
#X text 129 124 out to out to OKTA (CC# \, Channel 16+)->;
#X obj 145 -140 inlet notein NOTE;
#X obj 283 -139 inlet notein VALUE;
#X text 203 -65 ->set button number;
#X text 253 -47 ->this make it toggle button;
#X text 9 -19 ->set button number;
#X obj 432 -141 inlet for bang recall VALUE;
#X obj 486 -66 bng 15 250 50 0 empty empty empty 17 7 0 10 #fcfcfc
#000000 #000000;
#X obj 408 122 ctlout 49 18;
#X text 272 13 ->pad color OFF;
#X text 272 40 ->pad color ON;
#X obj 148 -65 route 23;
#X connect 0 0 21 0;
#X connect 4 0 8 0;
#X connect 4 0 18 0;
#X connect 5 0 1 0;
#X connect 6 0 5 0;
#X connect 7 0 1 1;
#X connect 8 0 7 0;
#X connect 11 0 0 0;
#X connect 12 0 0 1;
#X connect 16 0 17 0;
#X connect 17 0 5 0;
#X connect 21 0 4 0;
#X connect 21 0 6 0;
#X coords 0 332 1 331 85 60 0;
#X restore 46 299 pd top button row #2 MUTES;
#N canvas 556 278 682 332 top 0;
#X obj 148 -92 stripnote;
#X obj 202 94 noteout 1;
#X text 4 -139 this is for NOTE;
#X text 88 93 out to launch->;
#X obj 237 -45 tgl 15 1 empty empty empty 17 7 0 10 #fcfcfc #000000
#000000 0 1;
#X obj 149 -17 nbx 5 14 -1e+37 1e+37 0 1 empty empty empty 0 -8 0 10
#fcfcfc #000000 #000000 39 256;
#X obj 148 -40 bng 15 250 50 0 empty empty empty 17 7 0 10 #fcfcfc
#000000 #000000;
#X obj 239 41 + 48;
#X obj 239 13 * 30;
#X text 218 -93 ->make sure no double message;
#X text 129 124 out to out to OKTA (CC# \, Channel 16+)->;
#X obj 145 -140 inlet notein NOTE;
#X obj 283 -139 inlet notein VALUE;
#X text 203 -65 ->set button number;
#X text 253 -47 ->this make it toggle button;
#X text 9 -19 ->set button number;
#X obj 432 -141 inlet for bang recall VALUE;
#X obj 486 -66 bng 15 250 50 0 empty empty empty 17 7 0 10 #fcfcfc
#000000 #000000;
#X obj 408 122 ctlout 49 19;
#X text 272 13 ->pad color OFF;
#X text 272 40 ->pad color ON;
#X obj 148 -65 route 39;
#X connect 0 0 21 0;
#X connect 4 0 8 0;
#X connect 4 0 18 0;
#X connect 5 0 1 0;
#X connect 6 0 5 0;
#X connect 7 0 1 1;
#X connect 8 0 7 0;
#X connect 11 0 0 0;
#X connect 12 0 0 1;
#X connect 16 0 17 0;
#X connect 17 0 5 0;
#X connect 21 0 4 0;
#X connect 21 0 6 0;
#X coords 0 332 1 331 85 60 0;
#X restore 46 319 pd top button row #3 MUTES;
#N canvas 556 278 682 332 top 0;
#X obj 148 -92 stripnote;
#X obj 202 94 noteout 1;
#X text 4 -139 this is for NOTE;
#X text 88 93 out to launch->;
#X obj 237 -45 tgl 15 1 empty empty empty 17 7 0 10 #fcfcfc #000000
#000000 0 1;
#X obj 149 -17 nbx 5 14 -1e+37 1e+37 0 1 empty empty empty 0 -8 0 10
#fcfcfc #000000 #000000 55 256;
#X obj 148 -40 bng 15 250 50 0 empty empty empty 17 7 0 10 #fcfcfc
#000000 #000000;
#X obj 239 41 + 48;
#X obj 239 13 * 30;
#X text 218 -93 ->make sure no double message;
#X text 129 124 out to out to OKTA (CC# \, Channel 16+)->;
#X obj 145 -140 inlet notein NOTE;
#X obj 283 -139 inlet notein VALUE;
#X text 203 -65 ->set button number;
#X text 253 -47 ->this make it toggle button;
#X text 9 -19 ->set button number;
#X obj 432 -141 inlet for bang recall VALUE;
#X obj 486 -66 bng 15 250 50 0 empty empty empty 17 7 0 10 #fcfcfc
#000000 #000000;
#X obj 408 122 ctlout 49 20;
#X text 272 13 ->pad color OFF;
#X text 272 40 ->pad color ON;
#X obj 148 -65 route 55;
#X connect 0 0 21 0;
#X connect 4 0 8 0;
#X connect 4 0 18 0;
#X connect 5 0 1 0;
#X connect 6 0 5 0;
#X connect 7 0 1 1;
#X connect 8 0 7 0;
#X connect 11 0 0 0;
#X connect 12 0 0 1;
#X connect 16 0 17 0;
#X connect 17 0 5 0;
#X connect 21 0 4 0;
#X connect 21 0 6 0;
#X coords 0 332 1 331 85 60 0;
#X restore 46 340 pd top button row #4 MUTES;
#N canvas 556 278 682 332 top 0;
#X obj 148 -92 stripnote;
#X obj 202 94 noteout 1;
#X text 4 -139 this is for NOTE;
#X text 88 93 out to launch->;
#X obj 237 -45 tgl 15 1 empty empty empty 17 7 0 10 #fcfcfc #000000
#000000 0 1;
#X obj 149 -17 nbx 5 14 -1e+37 1e+37 0 1 empty empty empty 0 -8 0 10
#fcfcfc #000000 #000000 71 256;
#X obj 148 -40 bng 15 250 50 0 empty empty empty 17 7 0 10 #fcfcfc
#000000 #000000;
#X obj 239 41 + 48;
#X obj 239 13 * 30;
#X text 218 -93 ->make sure no double message;
#X text 129 124 out to out to OKTA (CC# \, Channel 16+)->;
#X obj 145 -140 inlet notein NOTE;
#X obj 283 -139 inlet notein VALUE;
#X text 203 -65 ->set button number;
#X text 253 -47 ->this make it toggle button;
#X text 9 -19 ->set button number;
#X obj 432 -141 inlet for bang recall VALUE;
#X obj 486 -66 bng 15 250 50 0 empty empty empty 17 7 0 10 #fcfcfc
#000000 #000000;
#X obj 408 122 ctlout 49 21;
#X text 272 13 ->pad color OFF;
#X text 272 40 ->pad color ON;
#X obj 148 -65 route 71;
#X connect 0 0 21 0;
#X connect 4 0 8 0;
#X connect 4 0 18 0;
#X connect 5 0 1 0;
#X connect 6 0 5 0;
#X connect 7 0 1 1;
#X connect 8 0 7 0;
#X connect 11 0 0 0;
#X connect 12 0 0 1;
#X connect 16 0 17 0;
#X connect 17 0 5 0;
#X connect 21 0 4 0;
#X connect 21 0 6 0;
#X coords 0 332 1 331 85 60 0;
#X restore 45 362 pd top button row #5 MUTES;
#N canvas 556 278 682 332 top 0;
#X obj 148 -92 stripnote;
#X obj 202 94 noteout 1;
#X text 4 -139 this is for NOTE;
#X text 88 93 out to launch->;
#X obj 237 -45 tgl 15 1 empty empty empty 17 7 0 10 #fcfcfc #000000
#000000 0 1;
#X obj 149 -17 nbx 5 14 -1e+37 1e+37 0 1 empty empty empty 0 -8 0 10
#fcfcfc #000000 #000000 87 256;
#X obj 148 -40 bng 15 250 50 0 empty empty empty 17 7 0 10 #fcfcfc
#000000 #000000;
#X obj 239 41 + 48;
#X obj 239 13 * 30;
#X text 218 -93 ->make sure no double message;
#X text 129 124 out to out to OKTA (CC# \, Channel 16+)->;
#X obj 145 -140 inlet notein NOTE;
#X obj 283 -139 inlet notein VALUE;
#X text 203 -65 ->set button number;
#X text 253 -47 ->this make it toggle button;
#X text 9 -19 ->set button number;
#X obj 432 -141 inlet for bang recall VALUE;
#X obj 486 -66 bng 15 250 50 0 empty empty empty 17 7 0 10 #fcfcfc
#000000 #000000;
#X obj 408 122 ctlout 49 22;
#X text 272 13 ->pad color OFF;
#X text 272 40 ->pad color ON;
#X obj 148 -65 route 87;
#X connect 0 0 21 0;
#X connect 4 0 8 0;
#X connect 4 0 18 0;
#X connect 5 0 1 0;
#X connect 6 0 5 0;
#X connect 7 0 1 1;
#X connect 8 0 7 0;
#X connect 11 0 0 0;
#X connect 12 0 0 1;
#X connect 16 0 17 0;
#X connect 17 0 5 0;
#X connect 21 0 4 0;
#X connect 21 0 6 0;
#X coords 0 332 1 331 85 60 0;
#X restore 45 383 pd top button row #6 MUTES;
#N canvas 556 278 682 332 top 0;
#X obj 148 -92 stripnote;
#X obj 202 94 noteout 1;
#X text 4 -139 this is for NOTE;
#X text 88 93 out to launch->;
#X obj 237 -45 tgl 15 1 empty empty empty 17 7 0 10 #fcfcfc #000000
#000000 0 1;
#X obj 149 -17 nbx 5 14 -1e+37 1e+37 0 1 empty empty empty 0 -8 0 10
#fcfcfc #000000 #000000 103 256;
#X obj 148 -40 bng 15 250 50 0 empty empty empty 17 7 0 10 #fcfcfc
#000000 #000000;
#X obj 239 41 + 48;
#X obj 239 13 * 30;
#X text 218 -93 ->make sure no double message;
#X text 129 124 out to out to OKTA (CC# \, Channel 16+)->;
#X obj 145 -140 inlet notein NOTE;
#X obj 283 -139 inlet notein VALUE;
#X text 203 -65 ->set button number;
#X text 253 -47 ->this make it toggle button;
#X text 9 -19 ->set button number;
#X obj 432 -141 inlet for bang recall VALUE;
#X obj 486 -66 bng 15 250 50 0 empty empty empty 17 7 0 10 #fcfcfc
#000000 #000000;
#X obj 408 122 ctlout 49 23;
#X text 272 13 ->pad color OFF;
#X text 272 40 ->pad color ON;
#X obj 137 -65 route 103;
#X connect 0 0 21 0;
#X connect 4 0 8 0;
#X connect 4 0 18 0;
#X connect 5 0 1 0;
#X connect 6 0 5 0;
#X connect 7 0 1 1;
#X connect 8 0 7 0;
#X connect 11 0 0 0;
#X connect 12 0 0 1;
#X connect 16 0 17 0;
#X connect 17 0 5 0;
#X connect 21 0 4 0;
#X connect 21 0 6 0;
#X coords 0 332 1 331 85 60 0;
#X restore 45 403 pd top button row #7 MUTES;
#N canvas 556 278 682 332 top 0;
#X obj 148 -92 stripnote;
#X obj 202 94 noteout 1;
#X text 4 -139 this is for NOTE;
#X text 88 93 out to launch->;
#X obj 237 -45 tgl 15 1 empty empty empty 17 7 0 10 #fcfcfc #000000
#000000 0 1;
#X obj 149 -17 nbx 5 14 -1e+37 1e+37 0 1 empty empty empty 0 -8 0 10
#fcfcfc #000000 #000000 119 256;
#X obj 148 -40 bng 15 250 50 0 empty empty empty 17 7 0 10 #fcfcfc
#000000 #000000;
#X obj 239 41 + 48;
#X obj 239 13 * 30;
#X text 218 -93 ->make sure no double message;
#X text 129 124 out to out to OKTA (CC# \, Channel 16+)->;
#X obj 145 -140 inlet notein NOTE;
#X obj 283 -139 inlet notein VALUE;
#X text 203 -65 ->set button number;
#X text 253 -47 ->this make it toggle button;
#X text 9 -19 ->set button number;
#X obj 432 -141 inlet for bang recall VALUE;
#X obj 486 -66 bng 15 250 50 0 empty empty empty 17 7 0 10 #fcfcfc
#000000 #000000;
#X obj 408 122 ctlout 49 24;
#X text 272 13 ->pad color OFF;
#X text 272 40 ->pad color ON;
#X obj 135 -66 route 119;
#X connect 0 0 21 0;
#X connect 4 0 8 0;
#X connect 4 0 18 0;
#X connect 5 0 1 0;
#X connect 6 0 5 0;
#X connect 7 0 1 1;
#X connect 8 0 7 0;
#X connect 11 0 0 0;
#X connect 12 0 0 1;
#X connect 16 0 17 0;
#X connect 17 0 5 0;
#X connect 21 0 4 0;
#X connect 21 0 6 0;
#X coords 0 332 1 331 85 60 0;
#X restore 45 424 pd top button row #8 MUTES;
#X obj 138 98 bang recall;
#X text 1 82 recall buttons state after selecting this page;
#X text 456 133 <-both SPIGOT's open/close incoming data from notein
need to set according to desired page 8 \, 7 \, 6 \, 5....;
#N canvas 556 278 682 332 top 0;
#X obj 148 -92 stripnote;
#X obj 202 94 noteout 1;
#X text 4 -139 this is for NOTE;
#X text 88 93 out to launch->;
#X obj 237 -45 tgl 15 1 empty empty empty 17 7 0 10 #fcfcfc #000000
#000000 0 1;
#X obj 149 -17 nbx 5 14 -1e+37 1e+37 0 1 empty empty empty 0 -8 0 10
#fcfcfc #000000 #000000 6 256;
#X obj 148 -40 bng 15 250 50 0 empty empty empty 17 7 0 10 #fcfcfc
#000000 #000000;
#X text 218 -93 ->make sure no double message;
#X text 129 124 out to out to OKTA (CC# \, Channel 16+)->;
#X obj 145 -140 inlet notein NOTE;
#X obj 283 -139 inlet notein VALUE;
#X text 203 -65 ->set button number;
#X text 253 -47 ->this make it toggle button;
#X text 9 -19 ->set button number;
#X obj 432 -141 inlet for bang recall VALUE;
#X obj 486 -66 bng 15 250 50 0 empty empty empty 17 7 0 10 #fcfcfc
#000000 #000000;
#X text 272 13 ->pad color OFF;
#X text 272 40 ->pad color ON;
#X obj 239 41 + 48;
#X obj 148 -65 route 6;
#X obj 239 13 * 34;
#X obj 408 122 ctlout 50 17;
#X connect 0 0 19 0;
#X connect 4 0 20 0;
#X connect 4 0 21 0;
#X connect 5 0 1 0;
#X connect 6 0 5 0;
#X connect 9 0 0 0;
#X connect 10 0 0 1;
#X connect 14 0 15 0;
#X connect 15 0 5 0;
#X connect 18 0 1 1;
#X connect 19 0 4 0;
#X connect 19 0 6 0;
#X connect 20 0 18 0;
#X coords 0 332 1 331 85 60 0;
#X restore 307 283 pd top button row #1 SOLO;
#N canvas 556 278 682 332 top 0;
#X obj 148 -92 stripnote;
#X obj 202 94 noteout 1;
#X text 4 -139 this is for NOTE;
#X text 88 93 out to launch->;
#X obj 237 -45 tgl 15 1 empty empty empty 17 7 0 10 #fcfcfc #000000
#000000 0 1;
#X obj 149 -17 nbx 5 14 -1e+37 1e+37 0 1 empty empty empty 0 -8 0 10
#fcfcfc #000000 #000000 22 256;
#X obj 148 -40 bng 15 250 50 0 empty empty empty 17 7 0 10 #fcfcfc
#000000 #000000;
#X obj 239 41 + 48;
#X text 218 -93 ->make sure no double message;
#X text 129 124 out to out to OKTA (CC# \, Channel 16+)->;
#X obj 145 -140 inlet notein NOTE;
#X obj 283 -139 inlet notein VALUE;
#X text 203 -65 ->set button number;
#X text 253 -47 ->this make it toggle button;
#X text 9 -19 ->set button number;
#X obj 432 -141 inlet for bang recall VALUE;
#X obj 486 -66 bng 15 250 50 0 empty empty empty 17 7 0 10 #fcfcfc
#000000 #000000;
#X text 272 13 ->pad color OFF;
#X text 272 40 ->pad color ON;
#X obj 148 -65 route 22;
#X obj 239 13 * 34;
#X obj 408 122 ctlout 50 18;
#X connect 0 0 19 0;
#X connect 4 0 20 0;
#X connect 4 0 21 0;
#X connect 5 0 1 0;
#X connect 6 0 5 0;
#X connect 7 0 1 1;
#X connect 10 0 0 0;
#X connect 11 0 0 1;
#X connect 15 0 16 0;
#X connect 16 0 5 0;
#X connect 19 0 4 0;
#X connect 19 0 6 0;
#X connect 20 0 7 0;
#X coords 0 332 1 331 85 60 0;
#X restore 307 304 pd top button row #2 SOLO;
#N canvas 556 278 682 332 top 0;
#X obj 148 -92 stripnote;
#X obj 202 94 noteout 1;
#X text 4 -139 this is for NOTE;
#X text 88 93 out to launch->;
#X obj 237 -45 tgl 15 1 empty empty empty 17 7 0 10 #fcfcfc #000000
#000000 0 1;
#X obj 149 -17 nbx 5 14 -1e+37 1e+37 0 1 empty empty empty 0 -8 0 10
#fcfcfc #000000 #000000 38 256;
#X obj 148 -40 bng 15 250 50 0 empty empty empty 17 7 0 10 #fcfcfc
#000000 #000000;
#X obj 239 41 + 48;
#X text 218 -93 ->make sure no double message;
#X text 129 124 out to out to OKTA (CC# \, Channel 16+)->;
#X obj 145 -140 inlet notein NOTE;
#X obj 283 -139 inlet notein VALUE;
#X text 203 -65 ->set button number;
#X text 253 -47 ->this make it toggle button;
#X text 9 -19 ->set button number;
#X obj 432 -141 inlet for bang recall VALUE;
#X obj 486 -66 bng 15 250 50 0 empty empty empty 17 7 0 10 #fcfcfc
#000000 #000000;
#X text 272 13 ->pad color OFF;
#X text 272 40 ->pad color ON;
#X obj 148 -65 route 38;
#X obj 239 13 * 34;
#X obj 408 122 ctlout 50 19;
#X connect 0 0 19 0;
#X connect 4 0 20 0;
#X connect 4 0 21 0;
#X connect 5 0 1 0;
#X connect 6 0 5 0;
#X connect 7 0 1 1;
#X connect 10 0 0 0;
#X connect 11 0 0 1;
#X connect 15 0 16 0;
#X connect 16 0 5 0;
#X connect 19 0 4 0;
#X connect 19 0 6 0;
#X connect 20 0 7 0;
#X coords 0 332 1 331 85 60 0;
#X restore 307 324 pd top button row #3 SOLO;
#N canvas 556 278 682 332 top 0;
#X obj 148 -92 stripnote;
#X obj 202 94 noteout 1;
#X text 4 -139 this is for NOTE;
#X text 88 93 out to launch->;
#X obj 237 -45 tgl 15 1 empty empty empty 17 7 0 10 #fcfcfc #000000
#000000 0 1;
#X obj 149 -17 nbx 5 14 -1e+37 1e+37 0 1 empty empty empty 0 -8 0 10
#fcfcfc #000000 #000000 54 256;
#X obj 148 -40 bng 15 250 50 0 empty empty empty 17 7 0 10 #fcfcfc
#000000 #000000;
#X obj 239 41 + 48;
#X text 218 -93 ->make sure no double message;
#X text 129 124 out to out to OKTA (CC# \, Channel 16+)->;
#X obj 145 -140 inlet notein NOTE;
#X obj 283 -139 inlet notein VALUE;
#X text 203 -65 ->set button number;
#X text 253 -47 ->this make it toggle button;
#X text 9 -19 ->set button number;
#X obj 432 -141 inlet for bang recall VALUE;
#X obj 486 -66 bng 15 250 50 0 empty empty empty 17 7 0 10 #fcfcfc
#000000 #000000;
#X text 272 13 ->pad color OFF;
#X text 272 40 ->pad color ON;
#X obj 148 -65 route 54;
#X obj 239 13 * 34;
#X obj 408 122 ctlout 50 20;
#X connect 0 0 19 0;
#X connect 4 0 20 0;
#X connect 4 0 21 0;
#X connect 5 0 1 0;
#X connect 6 0 5 0;
#X connect 7 0 1 1;
#X connect 10 0 0 0;
#X connect 11 0 0 1;
#X connect 15 0 16 0;
#X connect 16 0 5 0;
#X connect 19 0 4 0;
#X connect 19 0 6 0;
#X connect 20 0 7 0;
#X coords 0 332 1 331 85 60 0;
#X restore 307 345 pd top button row #4 SOLO;
#N canvas 556 278 682 332 top 0;
#X obj 148 -92 stripnote;
#X obj 202 94 noteout 1;
#X text 4 -139 this is for NOTE;
#X text 88 93 out to launch->;
#X obj 237 -45 tgl 15 1 empty empty empty 17 7 0 10 #fcfcfc #000000
#000000 0 1;
#X obj 149 -17 nbx 5 14 -1e+37 1e+37 0 1 empty empty empty 0 -8 0 10
#fcfcfc #000000 #000000 70 256;
#X obj 148 -40 bng 15 250 50 0 empty empty empty 17 7 0 10 #fcfcfc
#000000 #000000;
#X obj 239 41 + 48;
#X text 218 -93 ->make sure no double message;
#X text 129 124 out to out to OKTA (CC# \, Channel 16+)->;
#X obj 145 -140 inlet notein NOTE;
#X obj 283 -139 inlet notein VALUE;
#X text 203 -65 ->set button number;
#X text 253 -47 ->this make it toggle button;
#X text 9 -19 ->set button number;
#X obj 432 -141 inlet for bang recall VALUE;
#X obj 486 -66 bng 15 250 50 0 empty empty empty 17 7 0 10 #fcfcfc
#000000 #000000;
#X text 272 13 ->pad color OFF;
#X text 272 40 ->pad color ON;
#X obj 148 -65 route 70;
#X obj 239 13 * 34;
#X obj 408 122 ctlout 50 21;
#X connect 0 0 19 0;
#X connect 4 0 20 0;
#X connect 4 0 21 0;
#X connect 5 0 1 0;
#X connect 6 0 5 0;
#X connect 7 0 1 1;
#X connect 10 0 0 0;
#X connect 11 0 0 1;
#X connect 15 0 16 0;
#X connect 16 0 5 0;
#X connect 19 0 4 0;
#X connect 19 0 6 0;
#X connect 20 0 7 0;
#X coords 0 332 1 331 85 60 0;
#X restore 306 367 pd top button row #5 SOLO;
#N canvas 556 278 682 332 top 0;
#X obj 148 -92 stripnote;
#X obj 202 94 noteout 1;
#X text 4 -139 this is for NOTE;
#X text 88 93 out to launch->;
#X obj 237 -45 tgl 15 1 empty empty empty 17 7 0 10 #fcfcfc #000000
#000000 0 1;
#X obj 149 -17 nbx 5 14 -1e+37 1e+37 0 1 empty empty empty 0 -8 0 10
#fcfcfc #000000 #000000 86 256;
#X obj 148 -40 bng 15 250 50 0 empty empty empty 17 7 0 10 #fcfcfc
#000000 #000000;
#X obj 239 41 + 48;
#X text 218 -93 ->make sure no double message;
#X text 129 124 out to out to OKTA (CC# \, Channel 16+)->;
#X obj 145 -140 inlet notein NOTE;
#X obj 283 -139 inlet notein VALUE;
#X text 203 -65 ->set button number;
#X text 253 -47 ->this make it toggle button;
#X text 9 -19 ->set button number;
#X obj 432 -141 inlet for bang recall VALUE;
#X obj 486 -66 bng 15 250 50 0 empty empty empty 17 7 0 10 #fcfcfc
#000000 #000000;
#X text 272 13 ->pad color OFF;
#X text 272 40 ->pad color ON;
#X obj 148 -65 route 86;
#X obj 239 13 * 34;
#X obj 408 122 ctlout 50 22;
#X connect 0 0 19 0;
#X connect 4 0 20 0;
#X connect 4 0 21 0;
#X connect 5 0 1 0;
#X connect 6 0 5 0;
#X connect 7 0 1 1;
#X connect 10 0 0 0;
#X connect 11 0 0 1;
#X connect 15 0 16 0;
#X connect 16 0 5 0;
#X connect 19 0 4 0;
#X connect 19 0 6 0;
#X connect 20 0 7 0;
#X coords 0 332 1 331 85 60 0;
#X restore 306 388 pd top button row #6 SOLO;
#N canvas 556 278 682 332 top 0;
#X obj 148 -92 stripnote;
#X obj 202 94 noteout 1;
#X text 4 -139 this is for NOTE;
#X text 88 93 out to launch->;
#X obj 237 -45 tgl 15 1 empty empty empty 17 7 0 10 #fcfcfc #000000
#000000 0 1;
#X obj 149 -17 nbx 5 14 -1e+37 1e+37 0 1 empty empty empty 0 -8 0 10
#fcfcfc #000000 #000000 102 256;
#X obj 148 -40 bng 15 250 50 0 empty empty empty 17 7 0 10 #fcfcfc
#000000 #000000;
#X obj 239 41 + 48;
#X text 218 -93 ->make sure no double message;
#X text 129 124 out to out to OKTA (CC# \, Channel 16+)->;
#X obj 145 -140 inlet notein NOTE;
#X obj 283 -139 inlet notein VALUE;
#X text 203 -65 ->set button number;
#X text 253 -47 ->this make it toggle button;
#X text 9 -19 ->set button number;
#X obj 432 -141 inlet for bang recall VALUE;
#X obj 486 -66 bng 15 250 50 0 empty empty empty 17 7 0 10 #fcfcfc
#000000 #000000;
#X text 272 13 ->pad color OFF;
#X text 272 40 ->pad color ON;
#X obj 137 -65 route 102;
#X obj 239 13 * 34;
#X obj 408 122 ctlout 50 23;
#X connect 0 0 19 0;
#X connect 4 0 20 0;
#X connect 4 0 21 0;
#X connect 5 0 1 0;
#X connect 6 0 5 0;
#X connect 7 0 1 1;
#X connect 10 0 0 0;
#X connect 11 0 0 1;
#X connect 15 0 16 0;
#X connect 16 0 5 0;
#X connect 19 0 4 0;
#X connect 19 0 6 0;
#X connect 20 0 7 0;
#X coords 0 332 1 331 85 60 0;
#X restore 306 408 pd top button row #7 SOLO;
#N canvas 556 278 682 332 top 0;
#X obj 148 -92 stripnote;
#X obj 202 94 noteout 1;
#X text 4 -139 this is for NOTE;
#X text 88 93 out to launch->;
#X obj 237 -45 tgl 15 1 empty empty empty 17 7 0 10 #fcfcfc #000000
#000000 0 1;
#X obj 149 -17 nbx 5 14 -1e+37 1e+37 0 1 empty empty empty 0 -8 0 10
#fcfcfc #000000 #000000 118 256;
#X obj 148 -40 bng 15 250 50 0 empty empty empty 17 7 0 10 #fcfcfc
#000000 #000000;
#X obj 239 41 + 48;
#X text 218 -93 ->make sure no double message;
#X text 129 124 out to out to OKTA (CC# \, Channel 16+)->;
#X obj 145 -140 inlet notein NOTE;
#X obj 283 -139 inlet notein VALUE;
#X text 203 -65 ->set button number;
#X text 253 -47 ->this make it toggle button;
#X text 9 -19 ->set button number;
#X obj 432 -141 inlet for bang recall VALUE;
#X obj 486 -66 bng 15 250 50 0 empty empty empty 17 7 0 10 #fcfcfc
#000000 #000000;
#X text 272 13 ->pad color OFF;
#X text 272 40 ->pad color ON;
#X obj 135 -66 route 118;
#X obj 239 13 * 34;
#X obj 408 122 ctlout 50 24;
#X connect 0 0 19 0;
#X connect 4 0 20 0;
#X connect 4 0 21 0;
#X connect 5 0 1 0;
#X connect 6 0 5 0;
#X connect 7 0 1 1;
#X connect 10 0 0 0;
#X connect 11 0 0 1;
#X connect 15 0 16 0;
#X connect 16 0 5 0;
#X connect 19 0 4 0;
#X connect 19 0 6 0;
#X connect 20 0 7 0;
#X coords 0 332 1 331 85 60 0;
#X restore 306 429 pd top button row #8 SOLO;
#N canvas 556 278 682 332 top 0;
#X obj 148 -92 stripnote;
#X obj 202 94 noteout 1;
#X text 4 -139 this is for NOTE;
#X text 88 93 out to launch->;
#X obj 237 -45 tgl 15 1 empty empty empty 17 7 0 10 #fcfcfc #000000
#000000 0 1;
#X obj 149 -17 nbx 5 14 -1e+37 1e+37 0 1 empty empty empty 0 -8 0 10
#fcfcfc #000000 #000000 5 256;
#X obj 148 -40 bng 15 250 50 0 empty empty empty 17 7 0 10 #fcfcfc
#000000 #000000;
#X text 218 -93 ->make sure no double message;
#X text 129 124 out to out to OKTA (CC# \, Channel 16+)->;
#X obj 145 -140 inlet notein NOTE;
#X obj 283 -139 inlet notein VALUE;
#X text 203 -65 ->set button number;
#X text 253 -47 ->this make it toggle button;
#X text 9 -19 ->set button number;
#X obj 432 -141 inlet for bang recall VALUE;
#X obj 486 -66 bng 15 250 50 0 empty empty empty 17 7 0 10 #fcfcfc
#000000 #000000;
#X text 272 13 ->pad color OFF;
#X text 272 40 ->pad color ON;
#X obj 239 41 + 48;
#X obj 239 13 * 78;
#X obj 148 -65 route 5;
#X obj 408 122 ctlout 51 17;
#X connect 0 0 20 0;
#X connect 4 0 19 0;
#X connect 4 0 21 0;
#X connect 5 0 1 0;
#X connect 6 0 5 0;
#X connect 9 0 0 0;
#X connect 10 0 0 1;
#X connect 14 0 15 0;
#X connect 15 0 5 0;
#X connect 18 0 1 1;
#X connect 19 0 18 0;
#X connect 20 0 4 0;
#X connect 20 0 6 0;
#X coords 0 332 1 331 85 60 0;
#X restore 547 283 pd top button row #1 CUE;
#N canvas 556 278 682 332 top 0;
#X obj 148 -92 stripnote;
#X obj 202 94 noteout 1;
#X text 4 -139 this is for NOTE;
#X text 88 93 out to launch->;
#X obj 237 -45 tgl 15 1 empty empty empty 17 7 0 10 #fcfcfc #000000
#000000 0 1;
#X obj 149 -17 nbx 5 14 -1e+37 1e+37 0 1 empty empty empty 0 -8 0 10
#fcfcfc #000000 #000000 21 256;
#X obj 148 -40 bng 15 250 50 0 empty empty empty 17 7 0 10 #fcfcfc
#000000 #000000;
#X obj 239 41 + 48;
#X text 218 -93 ->make sure no double message;
#X text 129 124 out to out to OKTA (CC# \, Channel 16+)->;
#X obj 145 -140 inlet notein NOTE;
#X obj 283 -139 inlet notein VALUE;
#X text 203 -65 ->set button number;
#X text 253 -47 ->this make it toggle button;
#X text 9 -19 ->set button number;
#X obj 432 -141 inlet for bang recall VALUE;
#X obj 486 -66 bng 15 250 50 0 empty empty empty 17 7 0 10 #fcfcfc
#000000 #000000;
#X text 272 13 ->pad color OFF;
#X text 272 40 ->pad color ON;
#X obj 148 -65 route 21;
#X obj 239 13 * 78;
#X obj 408 122 ctlout 51 18;
#X connect 0 0 19 0;
#X connect 4 0 20 0;
#X connect 4 0 21 0;
#X connect 5 0 1 0;
#X connect 6 0 5 0;
#X connect 7 0 1 1;
#X connect 10 0 0 0;
#X connect 11 0 0 1;
#X connect 15 0 16 0;
#X connect 16 0 5 0;
#X connect 19 0 4 0;
#X connect 19 0 6 0;
#X connect 20 0 7 0;
#X coords 0 332 1 331 85 60 0;
#X restore 548 305 pd top button row #2 CUE;
#N canvas 556 278 682 332 top 0;
#X obj 148 -92 stripnote;
#X obj 202 94 noteout 1;
#X text 4 -139 this is for NOTE;
#X text 88 93 out to launch->;
#X obj 237 -45 tgl 15 1 empty empty empty 17 7 0 10 #fcfcfc #000000
#000000 0 1;
#X obj 149 -17 nbx 5 14 -1e+37 1e+37 0 1 empty empty empty 0 -8 0 10
#fcfcfc #000000 #000000 37 256;
#X obj 148 -40 bng 15 250 50 0 empty empty empty 17 7 0 10 #fcfcfc
#000000 #000000;
#X obj 239 41 + 48;
#X text 218 -93 ->make sure no double message;
#X text 129 124 out to out to OKTA (CC# \, Channel 16+)->;
#X obj 145 -140 inlet notein NOTE;
#X obj 283 -139 inlet notein VALUE;
#X text 203 -65 ->set button number;
#X text 253 -47 ->this make it toggle button;
#X text 9 -19 ->set button number;
#X obj 432 -141 inlet for bang recall VALUE;
#X obj 486 -66 bng 15 250 50 0 empty empty empty 17 7 0 10 #fcfcfc
#000000 #000000;
#X text 272 13 ->pad color OFF;
#X text 272 40 ->pad color ON;
#X obj 148 -65 route 37;
#X obj 239 13 * 78;
#X obj 408 122 ctlout 51 19;
#X connect 0 0 19 0;
#X connect 4 0 20 0;
#X connect 4 0 21 0;
#X connect 5 0 1 0;
#X connect 6 0 5 0;
#X connect 7 0 1 1;
#X connect 10 0 0 0;
#X connect 11 0 0 1;
#X connect 15 0 16 0;
#X connect 16 0 5 0;
#X connect 19 0 4 0;
#X connect 19 0 6 0;
#X connect 20 0 7 0;
#X coords 0 332 1 331 85 60 0;
#X restore 548 325 pd top button row #3 CUE;
#N canvas 556 278 682 332 top 0;
#X obj 148 -92 stripnote;
#X obj 202 94 noteout 1;
#X text 4 -139 this is for NOTE;
#X text 88 93 out to launch->;
#X obj 237 -45 tgl 15 1 empty empty empty 17 7 0 10 #fcfcfc #000000
#000000 0 1;
#X obj 149 -17 nbx 5 14 -1e+37 1e+37 0 1 empty empty empty 0 -8 0 10
#fcfcfc #000000 #000000 53 256;
#X obj 148 -40 bng 15 250 50 0 empty empty empty 17 7 0 10 #fcfcfc
#000000 #000000;
#X obj 239 41 + 48;
#X text 218 -93 ->make sure no double message;
#X text 129 124 out to out to OKTA (CC# \, Channel 16+)->;
#X obj 145 -140 inlet notein NOTE;
#X obj 283 -139 inlet notein VALUE;
#X text 203 -65 ->set button number;
#X text 253 -47 ->this make it toggle button;
#X text 9 -19 ->set button number;
#X obj 432 -141 inlet for bang recall VALUE;
#X obj 486 -66 bng 15 250 50 0 empty empty empty 17 7 0 10 #fcfcfc
#000000 #000000;
#X text 272 13 ->pad color OFF;
#X text 272 40 ->pad color ON;
#X obj 148 -65 route 53;
#X obj 239 13 * 78;
#X obj 408 122 ctlout 51 20;
#X connect 0 0 19 0;
#X connect 4 0 20 0;
#X connect 4 0 21 0;
#X connect 5 0 1 0;
#X connect 6 0 5 0;
#X connect 7 0 1 1;
#X connect 10 0 0 0;
#X connect 11 0 0 1;
#X connect 15 0 16 0;
#X connect 16 0 5 0;
#X connect 19 0 4 0;
#X connect 19 0 6 0;
#X connect 20 0 7 0;
#X coords 0 332 1 331 85 60 0;
#X restore 548 346 pd top button row #4 CUE;
#N canvas 556 278 682 332 top 0;
#X obj 148 -92 stripnote;
#X obj 202 94 noteout 1;
#X text 4 -139 this is for NOTE;
#X text 88 93 out to launch->;
#X obj 237 -45 tgl 15 1 empty empty empty 17 7 0 10 #fcfcfc #000000
#000000 0 1;
#X obj 149 -17 nbx 5 14 -1e+37 1e+37 0 1 empty empty empty 0 -8 0 10
#fcfcfc #000000 #000000 69 256;
#X obj 148 -40 bng 15 250 50 0 empty empty empty 17 7 0 10 #fcfcfc
#000000 #000000;
#X obj 239 41 + 48;
#X text 218 -93 ->make sure no double message;
#X text 129 124 out to out to OKTA (CC# \, Channel 16+)->;
#X obj 145 -140 inlet notein NOTE;
#X obj 283 -139 inlet notein VALUE;
#X text 203 -65 ->set button number;
#X text 253 -47 ->this make it toggle button;
#X text 9 -19 ->set button number;
#X obj 432 -141 inlet for bang recall VALUE;
#X obj 486 -66 bng 15 250 50 0 empty empty empty 17 7 0 10 #fcfcfc
#000000 #000000;
#X text 272 13 ->pad color OFF;
#X text 272 40 ->pad color ON;
#X obj 148 -65 route 69;
#X obj 239 13 * 78;
#X obj 408 122 ctlout 51 21;
#X connect 0 0 19 0;
#X connect 4 0 20 0;
#X connect 4 0 21 0;
#X connect 5 0 1 0;
#X connect 6 0 5 0;
#X connect 7 0 1 1;
#X connect 10 0 0 0;
#X connect 11 0 0 1;
#X connect 15 0 16 0;
#X connect 16 0 5 0;
#X connect 19 0 4 0;
#X connect 19 0 6 0;
#X connect 20 0 7 0;
#X coords 0 332 1 331 85 60 0;
#X restore 547 368 pd top button row #5 CUE;
#N canvas 556 278 682 332 top 0;
#X obj 148 -92 stripnote;
#X obj 202 94 noteout 1;
#X text 4 -139 this is for NOTE;
#X text 88 93 out to launch->;
#X obj 237 -45 tgl 15 1 empty empty empty 17 7 0 10 #fcfcfc #000000
#000000 0 1;
#X obj 149 -17 nbx 5 14 -1e+37 1e+37 0 1 empty empty empty 0 -8 0 10
#fcfcfc #000000 #000000 85 256;
#X obj 148 -40 bng 15 250 50 0 empty empty empty 17 7 0 10 #fcfcfc
#000000 #000000;
#X obj 239 41 + 48;
#X text 218 -93 ->make sure no double message;
#X text 129 124 out to out to OKTA (CC# \, Channel 16+)->;
#X obj 145 -140 inlet notein NOTE;
#X obj 283 -139 inlet notein VALUE;
#X text 203 -65 ->set button number;
#X text 253 -47 ->this make it toggle button;
#X text 9 -19 ->set button number;
#X obj 432 -141 inlet for bang recall VALUE;
#X obj 486 -66 bng 15 250 50 0 empty empty empty 17 7 0 10 #fcfcfc
#000000 #000000;
#X text 272 13 ->pad color OFF;
#X text 272 40 ->pad color ON;
#X obj 148 -65 route 85;
#X obj 239 13 * 78;
#X obj 408 122 ctlout 51 22;
#X connect 0 0 19 0;
#X connect 4 0 20 0;
#X connect 4 0 21 0;
#X connect 5 0 1 0;
#X connect 6 0 5 0;
#X connect 7 0 1 1;
#X connect 10 0 0 0;
#X connect 11 0 0 1;
#X connect 15 0 16 0;
#X connect 16 0 5 0;
#X connect 19 0 4 0;
#X connect 19 0 6 0;
#X connect 20 0 7 0;
#X coords 0 332 1 331 85 60 0;
#X restore 547 389 pd top button row #6 CUE;
#N canvas 556 278 682 332 top 0;
#X obj 148 -92 stripnote;
#X obj 202 94 noteout 1;
#X text 4 -139 this is for NOTE;
#X text 88 93 out to launch->;
#X obj 237 -45 tgl 15 1 empty empty empty 17 7 0 10 #fcfcfc #000000
#000000 0 1;
#X obj 149 -17 nbx 5 14 -1e+37 1e+37 0 1 empty empty empty 0 -8 0 10
#fcfcfc #000000 #000000 101 256;
#X obj 148 -40 bng 15 250 50 0 empty empty empty 17 7 0 10 #fcfcfc
#000000 #000000;
#X obj 239 41 + 48;
#X text 218 -93 ->make sure no double message;
#X text 129 124 out to out to OKTA (CC# \, Channel 16+)->;
#X obj 145 -140 inlet notein NOTE;
#X obj 283 -139 inlet notein VALUE;
#X text 203 -65 ->set button number;
#X text 253 -47 ->this make it toggle button;
#X text 9 -19 ->set button number;
#X obj 432 -141 inlet for bang recall VALUE;
#X obj 486 -66 bng 15 250 50 0 empty empty empty 17 7 0 10 #fcfcfc
#000000 #000000;
#X text 272 13 ->pad color OFF;
#X text 272 40 ->pad color ON;
#X obj 408 122 ctlout 51 23;
#X obj 239 13 * 78;
#X obj 134 -66 route 101;
#X connect 0 0 21 0;
#X connect 4 0 19 0;
#X connect 4 0 20 0;
#X connect 5 0 1 0;
#X connect 6 0 5 0;
#X connect 7 0 1 1;
#X connect 10 0 0 0;
#X connect 11 0 0 1;
#X connect 15 0 16 0;
#X connect 16 0 5 0;
#X connect 20 0 7 0;
#X connect 21 0 4 0;
#X connect 21 0 6 0;
#X coords 0 332 1 331 85 60 0;
#X restore 547 409 pd top button row #7 CUE;
#N canvas 556 278 682 332 top 0;
#X obj 148 -92 stripnote;
#X obj 202 94 noteout 1;
#X text 4 -139 this is for NOTE;
#X text 88 93 out to launch->;
#X obj 237 -45 tgl 15 1 empty empty empty 17 7 0 10 #fcfcfc #000000
#000000 0 1;
#X obj 149 -17 nbx 5 14 -1e+37 1e+37 0 1 empty empty empty 0 -8 0 10
#fcfcfc #000000 #000000 117 256;
#X obj 148 -40 bng 15 250 50 0 empty empty empty 17 7 0 10 #fcfcfc
#000000 #000000;
#X obj 239 41 + 48;
#X text 218 -93 ->make sure no double message;
#X text 129 124 out to out to OKTA (CC# \, Channel 16+)->;
#X obj 145 -140 inlet notein NOTE;
#X obj 283 -139 inlet notein VALUE;
#X text 203 -65 ->set button number;
#X text 253 -47 ->this make it toggle button;
#X text 9 -19 ->set button number;
#X obj 432 -141 inlet for bang recall VALUE;
#X obj 486 -66 bng 15 250 50 0 empty empty empty 17 7 0 10 #fcfcfc
#000000 #000000;
#X text 272 13 ->pad color OFF;
#X text 272 40 ->pad color ON;
#X obj 408 122 ctlout 51 24;
#X obj 239 13 * 78;
#X obj 135 -66 route 117;
#X connect 0 0 21 0;
#X connect 4 0 19 0;
#X connect 4 0 20 0;
#X connect 5 0 1 0;
#X connect 6 0 5 0;
#X connect 7 0 1 1;
#X connect 10 0 0 0;
#X connect 11 0 0 1;
#X connect 15 0 16 0;
#X connect 16 0 5 0;
#X connect 20 0 7 0;
#X connect 21 0 4 0;
#X connect 21 0 6 0;
#X coords 0 332 1 331 85 60 0;
#X restore 547 430 pd top button row #8 CUE;
#X obj 171 34 inlet loadbang;
#X connect 0 0 1 0;
#X connect 0 1 2 0;
#X connect 1 0 3 0;
#X connect 1 0 4 0;
#X connect 1 0 5 0;
#X connect 1 0 6 0;
#X connect 1 0 7 0;
#X connect 1 0 8 0;
#X connect 1 0 9 0;
#X connect 1 0 10 0;
#X connect 1 0 14 0;
#X connect 1 0 15 0;
#X connect 1 0 16 0;
#X connect 1 0 17 0;
#X connect 1 0 18 0;
#X connect 1 0 19 0;
#X connect 1 0 20 0;
#X connect 1 0 21 0;
#X connect 1 0 22 0;
#X connect 1 0 23 0;
#X connect 1 0 24 0;
#X connect 1 0 25 0;
#X connect 1 0 26 0;
#X connect 1 0 27 0;
#X connect 1 0 28 0;
#X connect 1 0 29 0;
#X connect 2 0 3 1;
#X connect 2 0 4 1;
#X connect 2 0 5 1;
#X connect 2 0 6 1;
#X connect 2 0 7 1;
#X connect 2 0 8 1;
#X connect 2 0 9 1;
#X connect 2 0 10 1;
#X connect 2 0 14 1;
#X connect 2 0 15 1;
#X connect 2 0 16 1;
#X connect 2 0 17 1;
#X connect 2 0 18 1;
#X connect 2 0 19 1;
#X connect 2 0 20 1;
#X connect 2 0 21 1;
#X connect 2 0 22 1;
#X connect 2 0 23 1;
#X connect 2 0 24 1;
#X connect 2 0 25 1;
#X connect 2 0 26 1;
#X connect 2 0 27 1;
#X connect 2 0 28 1;
#X connect 2 0 29 1;
#X connect 11 0 3 2;
#X connect 11 0 4 2;
#X connect 11 0 5 2;
#X connect 11 0 6 2;
#X connect 11 0 7 2;
#X connect 11 0 8 2;
#X connect 11 0 9 2;
#X connect 11 0 10 2;
#X connect 11 0 14 2;
#X connect 11 0 15 2;
#X connect 11 0 16 2;
#X connect 11 0 17 2;
#X connect 11 0 18 2;
#X connect 11 0 19 2;
#X connect 11 0 20 2;
#X connect 11 0 21 2;
#X connect 11 0 22 2;
#X connect 11 0 23 2;
#X connect 11 0 24 2;
#X connect 11 0 25 2;
#X connect 11 0 26 2;
#X connect 11 0 27 2;
#X connect 11 0 28 2;
#X connect 11 0 29 2;
#X connect 30 0 11 0;
#X restore 506 102 pd mute \, solo \, cue.inputs form page sel:ON \,
ON \, OFF;
#X obj 1206 550 max 4;
#X obj 1201 505 min 20;
#X obj 1280 489 clip 4 20;
#N canvas 166 102 1274 700 PAGE 0;
#X obj 343 102 notein 1;
#X obj 312 133 spigot 8;
#X obj 390 131 spigot 8;
#N canvas 556 278 682 332 top 0;
#X obj 148 -92 stripnote;
#X obj 202 94 noteout 1;
#X text 4 -139 this is for NOTE;
#X text 88 93 out to launch->;
#X obj 237 -45 tgl 15 1 empty empty empty 17 7 0 10 #fcfcfc #000000
#000000 0 1;
#X obj 149 -17 nbx 5 14 -1e+37 1e+37 0 1 empty empty empty 0 -8 0 10
#fcfcfc #000000 #000000 7 256;
#X obj 148 -40 bng 15 250 50 0 empty empty empty 17 7 0 10 #fcfcfc
#000000 #000000;
#X text 218 -93 ->make sure no double message;
#X text 129 124 out to out to OKTA (CC# \, Channel 16+)->;
#X obj 145 -140 inlet notein NOTE;
#X obj 283 -139 inlet notein VALUE;
#X text 203 -65 ->set button number;
#X text 253 -47 ->this make it toggle button;
#X text 9 -19 ->set button number;
#X obj 432 -141 inlet for bang recall VALUE;
#X obj 486 -66 bng 15 250 50 0 empty empty empty 17 7 0 10 #fcfcfc
#000000 #000000;
#X obj 408 122 ctlout 49 17;
#X text 272 13 ->pad color OFF;
#X text 272 40 ->pad color ON;
#X obj 239 41 + 48;
#X obj 239 13 * 30;
#X obj 148 -65 route 7;
#X connect 0 0 21 0;
#X connect 4 0 16 0;
#X connect 4 0 20 0;
#X connect 5 0 1 0;
#X connect 6 0 5 0;
#X connect 9 0 0 0;
#X connect 10 0 0 1;
#X connect 14 0 15 0;
#X connect 15 0 5 0;
#X connect 19 0 1 1;
#X connect 20 0 19 0;
#X connect 21 0 4 0;
#X connect 21 0 6 0;
#X coords 0 332 1 331 85 60 0;
#X restore 46 278 pd top button row #1 MUTES;
#N canvas 556 278 682 332 top 0;
#X obj 148 -92 stripnote;
#X obj 202 94 noteout 1;
#X text 4 -139 this is for NOTE;
#X text 88 93 out to launch->;
#X obj 237 -45 tgl 15 1 empty empty empty 17 7 0 10 #fcfcfc #000000
#000000 0 1;
#X obj 149 -17 nbx 5 14 -1e+37 1e+37 0 1 empty empty empty 0 -8 0 10
#fcfcfc #000000 #000000 23 256;
#X obj 148 -40 bng 15 250 50 0 empty empty empty 17 7 0 10 #fcfcfc
#000000 #000000;
#X obj 239 41 + 48;
#X obj 239 13 * 30;
#X text 218 -93 ->make sure no double message;
#X text 129 124 out to out to OKTA (CC# \, Channel 16+)->;
#X obj 145 -140 inlet notein NOTE;
#X obj 283 -139 inlet notein VALUE;
#X text 203 -65 ->set button number;
#X text 253 -47 ->this make it toggle button;
#X text 9 -19 ->set button number;
#X obj 432 -141 inlet for bang recall VALUE;
#X obj 486 -66 bng 15 250 50 0 empty empty empty 17 7 0 10 #fcfcfc
#000000 #000000;
#X obj 408 122 ctlout 49 18;
#X text 272 13 ->pad color OFF;
#X text 272 40 ->pad color ON;
#X obj 148 -65 route 23;
#X connect 0 0 21 0;
#X connect 4 0 8 0;
#X connect 4 0 18 0;
#X connect 5 0 1 0;
#X connect 6 0 5 0;
#X connect 7 0 1 1;
#X connect 8 0 7 0;
#X connect 11 0 0 0;
#X connect 12 0 0 1;
#X connect 16 0 17 0;
#X connect 17 0 5 0;
#X connect 21 0 4 0;
#X connect 21 0 6 0;
#X coords 0 332 1 331 85 60 0;
#X restore 46 299 pd top button row #2 MUTES;
#N canvas 556 278 682 332 top 0;
#X obj 148 -92 stripnote;
#X obj 202 94 noteout 1;
#X text 4 -139 this is for NOTE;
#X text 88 93 out to launch->;
#X obj 237 -45 tgl 15 1 empty empty empty 17 7 0 10 #fcfcfc #000000
#000000 0 1;
#X obj 149 -17 nbx 5 14 -1e+37 1e+37 0 1 empty empty empty 0 -8 0 10
#fcfcfc #000000 #000000 39 256;
#X obj 148 -40 bng 15 250 50 0 empty empty empty 17 7 0 10 #fcfcfc
#000000 #000000;
#X obj 239 41 + 48;
#X obj 239 13 * 30;
#X text 218 -93 ->make sure no double message;
#X text 129 124 out to out to OKTA (CC# \, Channel 16+)->;
#X obj 145 -140 inlet notein NOTE;
#X obj 283 -139 inlet notein VALUE;
#X text 203 -65 ->set button number;
#X text 253 -47 ->this make it toggle button;
#X text 9 -19 ->set button number;
#X obj 432 -141 inlet for bang recall VALUE;
#X obj 486 -66 bng 15 250 50 0 empty empty empty 17 7 0 10 #fcfcfc
#000000 #000000;
#X obj 408 122 ctlout 49 19;
#X text 272 13 ->pad color OFF;
#X text 272 40 ->pad color ON;
#X obj 148 -65 route 39;
#X connect 0 0 21 0;
#X connect 4 0 8 0;
#X connect 4 0 18 0;
#X connect 5 0 1 0;
#X connect 6 0 5 0;
#X connect 7 0 1 1;
#X connect 8 0 7 0;
#X connect 11 0 0 0;
#X connect 12 0 0 1;
#X connect 16 0 17 0;
#X connect 17 0 5 0;
#X connect 21 0 4 0;
#X connect 21 0 6 0;
#X coords 0 332 1 331 85 60 0;
#X restore 46 319 pd top button row #3 MUTES;
#N canvas 556 278 682 332 top 0;
#X obj 148 -92 stripnote;
#X obj 202 94 noteout 1;
#X text 4 -139 this is for NOTE;
#X text 88 93 out to launch->;
#X obj 237 -45 tgl 15 1 empty empty empty 17 7 0 10 #fcfcfc #000000
#000000 0 1;
#X obj 149 -17 nbx 5 14 -1e+37 1e+37 0 1 empty empty empty 0 -8 0 10
#fcfcfc #000000 #000000 55 256;
#X obj 148 -40 bng 15 250 50 0 empty empty empty 17 7 0 10 #fcfcfc
#000000 #000000;
#X obj 239 41 + 48;
#X obj 239 13 * 30;
#X text 218 -93 ->make sure no double message;
#X text 129 124 out to out to OKTA (CC# \, Channel 16+)->;
#X obj 145 -140 inlet notein NOTE;
#X obj 283 -139 inlet notein VALUE;
#X text 203 -65 ->set button number;
#X text 253 -47 ->this make it toggle button;
#X text 9 -19 ->set button number;
#X obj 432 -141 inlet for bang recall VALUE;
#X obj 486 -66 bng 15 250 50 0 empty empty empty 17 7 0 10 #fcfcfc
#000000 #000000;
#X obj 408 122 ctlout 49 20;
#X text 272 13 ->pad color OFF;
#X text 272 40 ->pad color ON;
#X obj 148 -65 route 55;
#X connect 0 0 21 0;
#X connect 4 0 8 0;
#X connect 4 0 18 0;
#X connect 5 0 1 0;
#X connect 6 0 5 0;
#X connect 7 0 1 1;
#X connect 8 0 7 0;
#X connect 11 0 0 0;
#X connect 12 0 0 1;
#X connect 16 0 17 0;
#X connect 17 0 5 0;
#X connect 21 0 4 0;
#X connect 21 0 6 0;
#X coords 0 332 1 331 85 60 0;
#X restore 46 340 pd top button row #4 MUTES;
#N canvas 556 278 682 332 top 0;
#X obj 148 -92 stripnote;
#X obj 202 94 noteout 1;
#X text 4 -139 this is for NOTE;
#X text 88 93 out to launch->;
#X obj 237 -45 tgl 15 1 empty empty empty 17 7 0 10 #fcfcfc #000000
#000000 0 1;
#X obj 149 -17 nbx 5 14 -1e+37 1e+37 0 1 empty empty empty 0 -8 0 10
#fcfcfc #000000 #000000 71 256;
#X obj 148 -40 bng 15 250 50 0 empty empty empty 17 7 0 10 #fcfcfc
#000000 #000000;
#X obj 239 41 + 48;
#X obj 239 13 * 30;
#X text 218 -93 ->make sure no double message;
#X text 129 124 out to out to OKTA (CC# \, Channel 16+)->;
#X obj 145 -140 inlet notein NOTE;
#X obj 283 -139 inlet notein VALUE;
#X text 203 -65 ->set button number;
#X text 253 -47 ->this make it toggle button;
#X text 9 -19 ->set button number;
#X obj 432 -141 inlet for bang recall VALUE;
#X obj 486 -66 bng 15 250 50 0 empty empty empty 17 7 0 10 #fcfcfc
#000000 #000000;
#X obj 408 122 ctlout 49 21;
#X text 272 13 ->pad color OFF;
#X text 272 40 ->pad color ON;
#X obj 148 -65 route 71;
#X connect 0 0 21 0;
#X connect 4 0 8 0;
#X connect 4 0 18 0;
#X connect 5 0 1 0;
#X connect 6 0 5 0;
#X connect 7 0 1 1;
#X connect 8 0 7 0;
#X connect 11 0 0 0;
#X connect 12 0 0 1;
#X connect 16 0 17 0;
#X connect 17 0 5 0;
#X connect 21 0 4 0;
#X connect 21 0 6 0;
#X coords 0 332 1 331 85 60 0;
#X restore 45 362 pd top button row #5 MUTES;
#N canvas 556 278 682 332 top 0;
#X obj 148 -92 stripnote;
#X obj 202 94 noteout 1;
#X text 4 -139 this is for NOTE;
#X text 88 93 out to launch->;
#X obj 237 -45 tgl 15 1 empty empty empty 17 7 0 10 #fcfcfc #000000
#000000 0 1;
#X obj 149 -17 nbx 5 14 -1e+37 1e+37 0 1 empty empty empty 0 -8 0 10
#fcfcfc #000000 #000000 87 256;
#X obj 148 -40 bng 15 250 50 0 empty empty empty 17 7 0 10 #fcfcfc
#000000 #000000;
#X obj 239 41 + 48;
#X obj 239 13 * 30;
#X text 218 -93 ->make sure no double message;
#X text 129 124 out to out to OKTA (CC# \, Channel 16+)->;
#X obj 145 -140 inlet notein NOTE;
#X obj 283 -139 inlet notein VALUE;
#X text 203 -65 ->set button number;
#X text 253 -47 ->this make it toggle button;
#X text 9 -19 ->set button number;
#X obj 432 -141 inlet for bang recall VALUE;
#X obj 486 -66 bng 15 250 50 0 empty empty empty 17 7 0 10 #fcfcfc
#000000 #000000;
#X obj 408 122 ctlout 49 22;
#X text 272 13 ->pad color OFF;
#X text 272 40 ->pad color ON;
#X obj 148 -65 route 87;
#X connect 0 0 21 0;
#X connect 4 0 8 0;
#X connect 4 0 18 0;
#X connect 5 0 1 0;
#X connect 6 0 5 0;
#X connect 7 0 1 1;
#X connect 8 0 7 0;
#X connect 11 0 0 0;
#X connect 12 0 0 1;
#X connect 16 0 17 0;
#X connect 17 0 5 0;
#X connect 21 0 4 0;
#X connect 21 0 6 0;
#X coords 0 332 1 331 85 60 0;
#X restore 45 383 pd top button row #6 MUTES;
#N canvas 556 278 682 332 top 0;
#X obj 148 -92 stripnote;
#X obj 202 94 noteout 1;
#X text 4 -139 this is for NOTE;
#X text 88 93 out to launch->;
#X obj 237 -45 tgl 15 1 empty empty empty 17 7 0 10 #fcfcfc #000000
#000000 0 1;
#X obj 149 -17 nbx 5 14 -1e+37 1e+37 0 1 empty empty empty 0 -8 0 10
#fcfcfc #000000 #000000 103 256;
#X obj 148 -40 bng 15 250 50 0 empty empty empty 17 7 0 10 #fcfcfc
#000000 #000000;
#X obj 239 41 + 48;
#X obj 239 13 * 30;
#X text 218 -93 ->make sure no double message;
#X text 129 124 out to out to OKTA (CC# \, Channel 16+)->;
#X obj 145 -140 inlet notein NOTE;
#X obj 283 -139 inlet notein VALUE;
#X text 203 -65 ->set button number;
#X text 253 -47 ->this make it toggle button;
#X text 9 -19 ->set button number;
#X obj 432 -141 inlet for bang recall VALUE;
#X obj 486 -66 bng 15 250 50 0 empty empty empty 17 7 0 10 #fcfcfc
#000000 #000000;
#X obj 408 122 ctlout 49 23;
#X text 272 13 ->pad color OFF;
#X text 272 40 ->pad color ON;
#X obj 137 -65 route 103;
#X connect 0 0 21 0;
#X connect 4 0 8 0;
#X connect 4 0 18 0;
#X connect 5 0 1 0;
#X connect 6 0 5 0;
#X connect 7 0 1 1;
#X connect 8 0 7 0;
#X connect 11 0 0 0;
#X connect 12 0 0 1;
#X connect 16 0 17 0;
#X connect 17 0 5 0;
#X connect 21 0 4 0;
#X connect 21 0 6 0;
#X coords 0 332 1 331 85 60 0;
#X restore 45 403 pd top button row #7 MUTES;
#N canvas 556 278 682 332 top 0;
#X obj 148 -92 stripnote;
#X obj 202 94 noteout 1;
#X text 4 -139 this is for NOTE;
#X text 88 93 out to launch->;
#X obj 237 -45 tgl 15 1 empty empty empty 17 7 0 10 #fcfcfc #000000
#000000 0 1;
#X obj 149 -17 nbx 5 14 -1e+37 1e+37 0 1 empty empty empty 0 -8 0 10
#fcfcfc #000000 #000000 119 256;
#X obj 148 -40 bng 15 250 50 0 empty empty empty 17 7 0 10 #fcfcfc
#000000 #000000;
#X obj 239 41 + 48;
#X obj 239 13 * 30;
#X text 218 -93 ->make sure no double message;
#X text 129 124 out to out to OKTA (CC# \, Channel 16+)->;
#X obj 145 -140 inlet notein NOTE;
#X obj 283 -139 inlet notein VALUE;
#X text 203 -65 ->set button number;
#X text 253 -47 ->this make it toggle button;
#X text 9 -19 ->set button number;
#X obj 432 -141 inlet for bang recall VALUE;
#X obj 486 -66 bng 15 250 50 0 empty empty empty 17 7 0 10 #fcfcfc
#000000 #000000;
#X obj 408 122 ctlout 49 24;
#X text 272 13 ->pad color OFF;
#X text 272 40 ->pad color ON;
#X obj 135 -66 route 119;
#X connect 0 0 21 0;
#X connect 4 0 8 0;
#X connect 4 0 18 0;
#X connect 5 0 1 0;
#X connect 6 0 5 0;
#X connect 7 0 1 1;
#X connect 8 0 7 0;
#X connect 11 0 0 0;
#X connect 12 0 0 1;
#X connect 16 0 17 0;
#X connect 17 0 5 0;
#X connect 21 0 4 0;
#X connect 21 0 6 0;
#X coords 0 332 1 331 85 60 0;
#X restore 45 424 pd top button row #8 MUTES;
#X obj 138 98 bang recall;
#X obj 102 41 inlet bang recall;
#X obj 270 44 inlet SELECT ON;
#X obj 411 43 inlet SELECT OFF;
#X text 1 82 recall buttons state after selecting this page;
#X text 456 133 <-both SPIGOT's open/close incoming data from notein
need to set according to desired page 8 \, 7 \, 6 \, 5....;
#N canvas 556 278 682 332 top 0;
#X obj 148 -92 stripnote;
#X obj 202 94 noteout 1;
#X text 4 -139 this is for NOTE;
#X text 88 93 out to launch->;
#X obj 237 -45 tgl 15 1 empty empty empty 17 7 0 10 #fcfcfc #000000
#000000 0 1;
#X obj 149 -17 nbx 5 14 -1e+37 1e+37 0 1 empty empty empty 0 -8 0 10
#fcfcfc #000000 #000000 6 256;
#X obj 148 -40 bng 15 250 50 0 empty empty empty 17 7 0 10 #fcfcfc
#000000 #000000;
#X text 218 -93 ->make sure no double message;
#X text 129 124 out to out to OKTA (CC# \, Channel 16+)->;
#X obj 145 -140 inlet notein NOTE;
#X obj 283 -139 inlet notein VALUE;
#X text 203 -65 ->set button number;
#X text 253 -47 ->this make it toggle button;
#X text 9 -19 ->set button number;
#X obj 432 -141 inlet for bang recall VALUE;
#X obj 486 -66 bng 15 250 50 0 empty empty empty 17 7 0 10 #fcfcfc
#000000 #000000;
#X text 272 13 ->pad color OFF;
#X text 272 40 ->pad color ON;
#X obj 239 41 + 48;
#X obj 148 -65 route 6;
#X obj 239 13 * 34;
#X obj 408 122 ctlout 50 17;
#X connect 0 0 19 0;
#X connect 4 0 20 0;
#X connect 4 0 21 0;
#X connect 5 0 1 0;
#X connect 6 0 5 0;
#X connect 9 0 0 0;
#X connect 10 0 0 1;
#X connect 14 0 15 0;
#X connect 15 0 5 0;
#X connect 18 0 1 1;
#X connect 19 0 4 0;
#X connect 19 0 6 0;
#X connect 20 0 18 0;
#X coords 0 332 1 331 85 60 0;
#X restore 307 283 pd top button row #1 SOLO;
#N canvas 556 278 682 332 top 0;
#X obj 148 -92 stripnote;
#X obj 202 94 noteout 1;
#X text 4 -139 this is for NOTE;
#X text 88 93 out to launch->;
#X obj 237 -45 tgl 15 1 empty empty empty 17 7 0 10 #fcfcfc #000000
#000000 0 1;
#X obj 149 -17 nbx 5 14 -1e+37 1e+37 0 1 empty empty empty 0 -8 0 10
#fcfcfc #000000 #000000 22 256;
#X obj 148 -40 bng 15 250 50 0 empty empty empty 17 7 0 10 #fcfcfc
#000000 #000000;
#X obj 239 41 + 48;
#X text 218 -93 ->make sure no double message;
#X text 129 124 out to out to OKTA (CC# \, Channel 16+)->;
#X obj 145 -140 inlet notein NOTE;
#X obj 283 -139 inlet notein VALUE;
#X text 203 -65 ->set button number;
#X text 253 -47 ->this make it toggle button;
#X text 9 -19 ->set button number;
#X obj 432 -141 inlet for bang recall VALUE;
#X obj 486 -66 bng 15 250 50 0 empty empty empty 17 7 0 10 #fcfcfc
#000000 #000000;
#X text 272 13 ->pad color OFF;
#X text 272 40 ->pad color ON;
#X obj 148 -65 route 22;
#X obj 239 13 * 34;
#X obj 408 122 ctlout 50 18;
#X connect 0 0 19 0;
#X connect 4 0 20 0;
#X connect 4 0 21 0;
#X connect 5 0 1 0;
#X connect 6 0 5 0;
#X connect 7 0 1 1;
#X connect 10 0 0 0;
#X connect 11 0 0 1;
#X connect 15 0 16 0;
#X connect 16 0 5 0;
#X connect 19 0 4 0;
#X connect 19 0 6 0;
#X connect 20 0 7 0;
#X coords 0 332 1 331 85 60 0;
#X restore 307 304 pd top button row #2 SOLO;
#N canvas 556 278 682 332 top 0;
#X obj 148 -92 stripnote;
#X obj 202 94 noteout 1;
#X text 4 -139 this is for NOTE;
#X text 88 93 out to launch->;
#X obj 237 -45 tgl 15 1 empty empty empty 17 7 0 10 #fcfcfc #000000
#000000 0 1;
#X obj 149 -17 nbx 5 14 -1e+37 1e+37 0 1 empty empty empty 0 -8 0 10
#fcfcfc #000000 #000000 38 256;
#X obj 148 -40 bng 15 250 50 0 empty empty empty 17 7 0 10 #fcfcfc
#000000 #000000;
#X obj 239 41 + 48;
#X text 218 -93 ->make sure no double message;
#X text 129 124 out to out to OKTA (CC# \, Channel 16+)->;
#X obj 145 -140 inlet notein NOTE;
#X obj 283 -139 inlet notein VALUE;
#X text 203 -65 ->set button number;
#X text 253 -47 ->this make it toggle button;
#X text 9 -19 ->set button number;
#X obj 432 -141 inlet for bang recall VALUE;
#X obj 486 -66 bng 15 250 50 0 empty empty empty 17 7 0 10 #fcfcfc
#000000 #000000;
#X text 272 13 ->pad color OFF;
#X text 272 40 ->pad color ON;
#X obj 148 -65 route 38;
#X obj 239 13 * 34;
#X obj 408 122 ctlout 50 19;
#X connect 0 0 19 0;
#X connect 4 0 20 0;
#X connect 4 0 21 0;
#X connect 5 0 1 0;
#X connect 6 0 5 0;
#X connect 7 0 1 1;
#X connect 10 0 0 0;
#X connect 11 0 0 1;
#X connect 15 0 16 0;
#X connect 16 0 5 0;
#X connect 19 0 4 0;
#X connect 19 0 6 0;
#X connect 20 0 7 0;
#X coords 0 332 1 331 85 60 0;
#X restore 307 324 pd top button row #3 SOLO;
#N canvas 556 278 682 332 top 0;
#X obj 148 -92 stripnote;
#X obj 202 94 noteout 1;
#X text 4 -139 this is for NOTE;
#X text 88 93 out to launch->;
#X obj 237 -45 tgl 15 1 empty empty empty 17 7 0 10 #fcfcfc #000000
#000000 0 1;
#X obj 149 -17 nbx 5 14 -1e+37 1e+37 0 1 empty empty empty 0 -8 0 10
#fcfcfc #000000 #000000 54 256;
#X obj 148 -40 bng 15 250 50 0 empty empty empty 17 7 0 10 #fcfcfc
#000000 #000000;
#X obj 239 41 + 48;
#X text 218 -93 ->make sure no double message;
#X text 129 124 out to out to OKTA (CC# \, Channel 16+)->;
#X obj 145 -140 inlet notein NOTE;
#X obj 283 -139 inlet notein VALUE;
#X text 203 -65 ->set button number;
#X text 253 -47 ->this make it toggle button;
#X text 9 -19 ->set button number;
#X obj 432 -141 inlet for bang recall VALUE;
#X obj 486 -66 bng 15 250 50 0 empty empty empty 17 7 0 10 #fcfcfc
#000000 #000000;
#X text 272 13 ->pad color OFF;
#X text 272 40 ->pad color ON;
#X obj 148 -65 route 54;
#X obj 239 13 * 34;
#X obj 408 122 ctlout 50 20;
#X connect 0 0 19 0;
#X connect 4 0 20 0;
#X connect 4 0 21 0;
#X connect 5 0 1 0;
#X connect 6 0 5 0;
#X connect 7 0 1 1;
#X connect 10 0 0 0;
#X connect 11 0 0 1;
#X connect 15 0 16 0;
#X connect 16 0 5 0;
#X connect 19 0 4 0;
#X connect 19 0 6 0;
#X connect 20 0 7 0;
#X coords 0 332 1 331 85 60 0;
#X restore 307 345 pd top button row #4 SOLO;
#N canvas 556 278 682 332 top 0;
#X obj 148 -92 stripnote;
#X obj 202 94 noteout 1;
#X text 4 -139 this is for NOTE;
#X text 88 93 out to launch->;
#X obj 237 -45 tgl 15 1 empty empty empty 17 7 0 10 #fcfcfc #000000
#000000 0 1;
#X obj 149 -17 nbx 5 14 -1e+37 1e+37 0 1 empty empty empty 0 -8 0 10
#fcfcfc #000000 #000000 70 256;
#X obj 148 -40 bng 15 250 50 0 empty empty empty 17 7 0 10 #fcfcfc
#000000 #000000;
#X obj 239 41 + 48;
#X text 218 -93 ->make sure no double message;
#X text 129 124 out to out to OKTA (CC# \, Channel 16+)->;
#X obj 145 -140 inlet notein NOTE;
#X obj 283 -139 inlet notein VALUE;
#X text 203 -65 ->set button number;
#X text 253 -47 ->this make it toggle button;
#X text 9 -19 ->set button number;
#X obj 432 -141 inlet for bang recall VALUE;
#X obj 486 -66 bng 15 250 50 0 empty empty empty 17 7 0 10 #fcfcfc
#000000 #000000;
#X text 272 13 ->pad color OFF;
#X text 272 40 ->pad color ON;
#X obj 148 -65 route 70;
#X obj 239 13 * 34;
#X obj 408 122 ctlout 50 21;
#X connect 0 0 19 0;
#X connect 4 0 20 0;
#X connect 4 0 21 0;
#X connect 5 0 1 0;
#X connect 6 0 5 0;
#X connect 7 0 1 1;
#X connect 10 0 0 0;
#X connect 11 0 0 1;
#X connect 15 0 16 0;
#X connect 16 0 5 0;
#X connect 19 0 4 0;
#X connect 19 0 6 0;
#X connect 20 0 7 0;
#X coords 0 332 1 331 85 60 0;
#X restore 306 367 pd top button row #5 SOLO;
#N canvas 556 278 682 332 top 0;
#X obj 148 -92 stripnote;
#X obj 202 94 noteout 1;
#X text 4 -139 this is for NOTE;
#X text 88 93 out to launch->;
#X obj 237 -45 tgl 15 1 empty empty empty 17 7 0 10 #fcfcfc #000000
#000000 0 1;
#X obj 149 -17 nbx 5 14 -1e+37 1e+37 0 1 empty empty empty 0 -8 0 10
#fcfcfc #000000 #000000 86 256;
#X obj 148 -40 bng 15 250 50 0 empty empty empty 17 7 0 10 #fcfcfc
#000000 #000000;
#X obj 239 41 + 48;
#X text 218 -93 ->make sure no double message;
#X text 129 124 out to out to OKTA (CC# \, Channel 16+)->;
#X obj 145 -140 inlet notein NOTE;
#X obj 283 -139 inlet notein VALUE;
#X text 203 -65 ->set button number;
#X text 253 -47 ->this make it toggle button;
#X text 9 -19 ->set button number;
#X obj 432 -141 inlet for bang recall VALUE;
#X obj 486 -66 bng 15 250 50 0 empty empty empty 17 7 0 10 #fcfcfc
#000000 #000000;
#X text 272 13 ->pad color OFF;
#X text 272 40 ->pad color ON;
#X obj 148 -65 route 86;
#X obj 239 13 * 34;
#X obj 408 122 ctlout 50 22;
#X connect 0 0 19 0;
#X connect 4 0 20 0;
#X connect 4 0 21 0;
#X connect 5 0 1 0;
#X connect 6 0 5 0;
#X connect 7 0 1 1;
#X connect 10 0 0 0;
#X connect 11 0 0 1;
#X connect 15 0 16 0;
#X connect 16 0 5 0;
#X connect 19 0 4 0;
#X connect 19 0 6 0;
#X connect 20 0 7 0;
#X coords 0 332 1 331 85 60 0;
#X restore 306 388 pd top button row #6 SOLO;
#N canvas 556 278 682 332 top 0;
#X obj 148 -92 stripnote;
#X obj 202 94 noteout 1;
#X text 4 -139 this is for NOTE;
#X text 88 93 out to launch->;
#X obj 237 -45 tgl 15 1 empty empty empty 17 7 0 10 #fcfcfc #000000
#000000 0 1;
#X obj 149 -17 nbx 5 14 -1e+37 1e+37 0 1 empty empty empty 0 -8 0 10
#fcfcfc #000000 #000000 102 256;
#X obj 148 -40 bng 15 250 50 0 empty empty empty 17 7 0 10 #fcfcfc
#000000 #000000;
#X obj 239 41 + 48;
#X text 218 -93 ->make sure no double message;
#X text 129 124 out to out to OKTA (CC# \, Channel 16+)->;
#X obj 145 -140 inlet notein NOTE;
#X obj 283 -139 inlet notein VALUE;
#X text 203 -65 ->set button number;
#X text 253 -47 ->this make it toggle button;
#X text 9 -19 ->set button number;
#X obj 432 -141 inlet for bang recall VALUE;
#X obj 486 -66 bng 15 250 50 0 empty empty empty 17 7 0 10 #fcfcfc
#000000 #000000;
#X text 272 13 ->pad color OFF;
#X text 272 40 ->pad color ON;
#X obj 137 -65 route 102;
#X obj 239 13 * 34;
#X obj 408 122 ctlout 50 23;
#X connect 0 0 19 0;
#X connect 4 0 20 0;
#X connect 4 0 21 0;
#X connect 5 0 1 0;
#X connect 6 0 5 0;
#X connect 7 0 1 1;
#X connect 10 0 0 0;
#X connect 11 0 0 1;
#X connect 15 0 16 0;
#X connect 16 0 5 0;
#X connect 19 0 4 0;
#X connect 19 0 6 0;
#X connect 20 0 7 0;
#X coords 0 332 1 331 85 60 0;
#X restore 306 408 pd top button row #7 SOLO;
#N canvas 556 278 682 332 top 0;
#X obj 148 -92 stripnote;
#X obj 202 94 noteout 1;
#X text 4 -139 this is for NOTE;
#X text 88 93 out to launch->;
#X obj 237 -45 tgl 15 1 empty empty empty 17 7 0 10 #fcfcfc #000000
#000000 0 1;
#X obj 149 -17 nbx 5 14 -1e+37 1e+37 0 1 empty empty empty 0 -8 0 10
#fcfcfc #000000 #000000 118 256;
#X obj 148 -40 bng 15 250 50 0 empty empty empty 17 7 0 10 #fcfcfc
#000000 #000000;
#X obj 239 41 + 48;
#X text 218 -93 ->make sure no double message;
#X text 129 124 out to out to OKTA (CC# \, Channel 16+)->;
#X obj 145 -140 inlet notein NOTE;
#X obj 283 -139 inlet notein VALUE;
#X text 203 -65 ->set button number;
#X text 253 -47 ->this make it toggle button;
#X text 9 -19 ->set button number;
#X obj 432 -141 inlet for bang recall VALUE;
#X obj 486 -66 bng 15 250 50 0 empty empty empty 17 7 0 10 #fcfcfc
#000000 #000000;
#X text 272 13 ->pad color OFF;
#X text 272 40 ->pad color ON;
#X obj 135 -66 route 118;
#X obj 239 13 * 34;
#X obj 408 122 ctlout 50 24;
#X connect 0 0 19 0;
#X connect 4 0 20 0;
#X connect 4 0 21 0;
#X connect 5 0 1 0;
#X connect 6 0 5 0;
#X connect 7 0 1 1;
#X connect 10 0 0 0;
#X connect 11 0 0 1;
#X connect 15 0 16 0;
#X connect 16 0 5 0;
#X connect 19 0 4 0;
#X connect 19 0 6 0;
#X connect 20 0 7 0;
#X coords 0 332 1 331 85 60 0;
#X restore 306 429 pd top button row #8 SOLO;
#X connect 1 0 3 0;
#X connect 1 0 4 0;
#X connect 1 0 5 0;
#X connect 1 0 6 0;
#X connect 1 0 7 0;
#X connect 1 0 8 0;
#X connect 1 0 9 0;
#X connect 1 0 10 0;
#X connect 1 0 17 0;
#X connect 1 0 18 0;
#X connect 1 0 19 0;
#X connect 1 0 20 0;
#X connect 1 0 21 0;
#X connect 1 0 22 0;
#X connect 1 0 23 0;
#X connect 1 0 24 0;
#X connect 2 0 3 1;
#X connect 2 0 4 1;
#X connect 2 0 5 1;
#X connect 2 0 6 1;
#X connect 2 0 7 1;
#X connect 2 0 8 1;
#X connect 2 0 9 1;
#X connect 2 0 10 1;
#X connect 2 0 17 1;
#X connect 2 0 18 1;
#X connect 2 0 19 1;
#X connect 2 0 20 1;
#X connect 2 0 21 1;
#X connect 2 0 22 1;
#X connect 2 0 23 1;
#X connect 2 0 24 1;
#X connect 11 0 3 2;
#X connect 11 0 4 2;
#X connect 11 0 5 2;
#X connect 11 0 6 2;
#X connect 11 0 7 2;
#X connect 11 0 8 2;
#X connect 11 0 9 2;
#X connect 11 0 10 2;
#X connect 11 0 17 2;
#X connect 11 0 18 2;
#X connect 11 0 19 2;
#X connect 11 0 20 2;
#X connect 11 0 21 2;
#X connect 11 0 22 2;
#X connect 11 0 23 2;
#X connect 11 0 24 2;
#X restore 39 210 pd PAGE 1.program change.inputs form page sel:ON
\, ON \, OFF;
#N canvas 47 74 1291 739 scene 0;
#X obj 549 45 ctlin;
#X obj 361 225 change;
#X obj 342 255 bng 15 250 50 0 empty empty empty 17 7 0 10 #fcfcfc
#000000 #000000;
#X obj 402 392 ctlout 1;
#X obj 542 165 route;
#X obj 152 568 outlet selected page;
#X text 171 297 turn off last selected->;
#X text 466 301 turn on selected->;
#X obj 380 299 nbx 5 14 -1e+37 1e+37 0 1 empty empty empty 0 -8 0 10
#fcfcfc #000000 #000000 107 256;
#X obj 636 273 nbx 5 14 -1e+37 1e+37 0 1 empty empty empty 0 -8 0 10
#fcfcfc #000000 #000000 107 256;
#X obj 599 382 ctlout;
#X msg 127 117 127;
#X obj 195 470 nbx 5 14 -1e+37 1e+37 0 1 empty empty empty 0 -8 0 10
#fcfcfc #000000 #000000 4 256;
#X obj 90 163 delay 100 1 msec;
#X text 252 470 ->remember last page selected;
#X text 206 164 ->delay to switch to last page;
#X text 245 32 ->recall page selected before last boot;
#X obj 446 88 route 106 107;
#X msg 483 164 107;
#X msg 429 161 106;
#X obj 596 273 - 35;
#X msg 346 296 0;
#X obj 199 435 - 103;
#X obj 105 31 inlet from loadbang;
#X connect 0 0 4 0;
#X connect 0 1 17 0;
#X connect 1 0 2 0;
#X connect 1 0 8 0;
#X connect 1 0 22 0;
#X connect 2 0 21 0;
#X connect 2 0 8 0;
#X connect 4 1 20 0;
#X connect 8 0 3 1;
#X connect 9 0 10 1;
#X connect 11 0 20 0;
#X connect 12 0 5 0;
#X connect 13 0 12 0;
#X connect 17 0 19 0;
#X connect 17 1 18 0;
#X connect 18 0 9 0;
#X connect 18 0 1 0;
#X connect 19 0 9 0;
#X connect 19 0 1 0;
#X connect 20 0 10 0;
#X connect 21 0 3 0;
#X connect 22 0 12 0;
#X connect 23 0 11 0;
#X connect 23 0 13 0;
#X restore 53 308 pd scene AB select:output selected page;
#X obj 430 42 loadbang;
#N canvas 790 51 643 795 crossfader 0;
#X obj 549 405 change;
#X obj 1113 504 route;
#X obj 205 632 outlet selected page;
#X text 311 514 turn off last selected->;
#X obj 695 419 nbx 5 14 -1e+37 1e+37 0 1 empty empty empty 0 -8 0 10
#fcfcfc #000000 #000000 68 256;
#X msg 348 97 127;
#X obj 205 353 nbx 5 14 -1e+37 1e+37 0 1 empty empty empty 0 -8 0 10
#fcfcfc #000000 #000000 -86 256;
#X obj 205 278 delay 100 1 msec;
#X text 262 353 ->remember last page selected;
#X text 316 26 ->recall page selected before last boot;
#X obj 209 318 - 105;
#X obj 979 29 notein 1;
#X text 931 591 turn on selected color->;
#X msg 698 666 0;
#X obj 828 57 change;
#X obj 890 731 ctlout 48 17;
#X msg 415 123 4;
#X msg 453 125 20;
#X msg 485 125 36;
#X msg 522 125 52;
#X msg 557 126 68;
#X msg 592 126 84;
#X msg 626 126 100;
#X msg 662 127 116;
#X obj 433 87 route 4 20 36 52 68 84 100 116;
#X msg 486 513 111;
#X obj 1108 590 - 56;
#X obj 715 629 route 4 20 36 52 68 84 100 116;
#X msg 735 667 16;
#X msg 767 667 32;
#X msg 804 667 48;
#X msg 839 668 64;
#X msg 874 668 80;
#X msg 908 668 96;
#X msg 944 669 112;
#X msg 977 669 127;
#X msg 698 127 0;
#X obj 154 22 inlet from recall bang;
#X obj 584 704 noteout 1;
#X obj 1095 681 noteout 1;
#X obj 523 438 bng 15 250 50 0 empty empty empty 17 7 0 10 #fcfcfc
#000000 #000000;
#X obj 555 522 nbx 5 14 -1e+37 1e+37 0 1 empty empty empty 0 -8 0 10
#fcfcfc #000000 #000000 52 256;
#X obj 553 466 v crosss;
#X obj 555 439 nbx 5 14 -1e+37 1e+37 0 1 empty empty empty 0 -8 0 10
#fcfcfc #000000 #000000 68 256;
#X connect 0 0 40 0;
#X connect 0 0 43 0;
#X connect 1 1 26 0;
#X connect 4 0 27 0;
#X connect 4 0 39 0;
#X connect 5 0 26 0;
#X connect 6 0 2 0;
#X connect 7 0 6 0;
#X connect 10 0 6 0;
#X connect 11 0 14 0;
#X connect 11 1 1 0;
#X connect 13 0 15 0;
#X connect 14 0 24 0;
#X connect 16 0 0 0;
#X connect 16 0 4 0;
#X connect 17 0 0 0;
#X connect 17 0 4 0;
#X connect 18 0 4 0;
#X connect 18 0 0 0;
#X connect 19 0 4 0;
#X connect 19 0 0 0;
#X connect 20 0 4 0;
#X connect 20 0 0 0;
#X connect 21 0 4 0;
#X connect 21 0 0 0;
#X connect 22 0 4 0;
#X connect 22 0 0 0;
#X connect 23 0 4 0;
#X connect 23 0 0 0;
#X connect 24 0 16 0;
#X connect 24 1 17 0;
#X connect 24 2 18 0;
#X connect 24 3 19 0;
#X connect 24 4 20 0;
#X connect 24 5 21 0;
#X connect 24 6 22 0;
#X connect 24 7 23 0;
#X connect 24 8 36 0;
#X connect 25 0 38 1;
#X connect 26 0 39 1;
#X connect 27 0 13 0;
#X connect 27 1 28 0;
#X connect 27 2 29 0;
#X connect 27 3 30 0;
#X connect 27 4 31 0;
#X connect 27 5 32 0;
#X connect 27 6 33 0;
#X connect 27 7 34 0;
#X connect 27 8 35 0;
#X connect 28 0 15 0;
#X connect 29 0 15 0;
#X connect 30 0 15 0;
#X connect 31 0 15 0;
#X connect 32 0 15 0;
#X connect 33 0 15 0;
#X connect 34 0 15 0;
#X connect 35 0 15 0;
#X connect 37 0 5 0;
#X connect 37 0 4 0;
#X connect 37 0 7 0;
#X connect 37 0 41 0;
#X connect 37 0 25 0;
#X connect 40 0 42 0;
#X connect 41 0 38 0;
#X connect 42 0 41 0;
#X connect 43 0 42 0;
#X restore 705 391 pd crossfader;
#X obj 610 330 loadbang;
#N canvas 0 59 740 784 sceneAselect 1;
#X obj 990 417 route;
#X obj 46 666 outlet selected page;
#X text 304 529 turn off last selected->;
#X obj 700 417 nbx 5 14 -1e+37 1e+37 0 1 empty empty empty 0 -8 0 10
#fcfcfc #000000 #000000 99 256;
#X msg 252 101 127;
#X obj 93 568 nbx 5 14 -1e+37 1e+37 0 1 empty empty empty 0 -8 0 10
#fcfcfc #000000 #000000 -86 256;
#X obj 46 312 delay 100 1 msec;
#X text 146 567 ->remember last page selected;
#X text 211 21 ->recall page selected before last boot;
#X obj 93 533 - 105;
#X msg 372 131 3;
#X msg 406 130 19;
#X msg 438 130 35;
#X msg 475 130 51;
#X msg 510 130 67;
#X msg 545 130 83;
#X msg 579 130 99;
#X msg 615 130 115;
#X msg 648 130 2;
#X msg 679 130 18;
#X msg 711 130 34;
#X msg 743 130 50;
#X msg 774 130 66;
#X msg 806 130 82;
#X msg 838 130 98;
#X msg 878 130 114;
#X obj 1028 488 - 33;
#X text 855 487 turn on selected color->;
#X obj 890 731 ctlout 55 17;
#X obj 715 629 route 3 19 35 51 67 83 99 115 2 18 34 50 66 82 98 114
;
#X msg 715 664 0;
#X msg 735 666 1;
#X msg 767 666 2;
#X msg 804 666 3;
#X msg 839 666 4;
#X msg 874 666 5;
#X msg 908 666 6;
#X msg 944 666 7;
#X msg 977 666 8;
#X msg 1008 666 9;
#X msg 1040 666 10;
#X msg 1072 666 11;
#X msg 1103 666 12;
#X msg 1135 666 13;
#X msg 1167 666 14;
#X msg 1199 666 15;
#X obj 828 55 change;
#X text 250 486 remember each PD to have different VALUE NAME!->;
#X obj 37 57 bng 15 250 50 0 empty empty empty 17 7 0 10 #fcfcfc #000000
#000000;
#X obj 37 22 inlet from recall bang 2;
#X obj 595 526 nbx 5 14 -1e+37 1e+37 0 1 empty empty empty 0 -8 0 10
#fcfcfc #000000 #000000 51 256;
#X obj 568 457 bng 15 250 50 0 empty empty empty 17 7 0 10 #fcfcfc
#000000 #000000;
#X obj 589 636 noteout 1;
#X obj 1001 568 noteout 1;
#X obj 433 84 route 3 19 35 51 67 83 99 115 2 18 34 50 66 82 98 114
;
#X obj 596 423 change;
#X msg 908 106 0, f 2;
#X msg 487 530 16;
#X obj 598 490 value;
#X obj 600 459 nbx 5 14 -1e+37 1e+37 0 1 empty empty empty 0 -8 0 10
#fcfcfc #000000 #000000 99 256;
#X obj 1054 82 inlet notein left;
#X obj 1067 132 inlet notein right;
#X obj 207 406 inlet to switch to next page;
#X msg 366 447 16;
#X connect 0 1 26 0;
#X connect 3 0 29 0;
#X connect 3 0 53 0;
#X connect 4 0 26 0;
#X connect 5 0 1 0;
#X connect 6 0 5 0;
#X connect 9 0 5 0;
#X connect 10 0 3 0;
#X connect 10 0 55 0;
#X connect 11 0 3 0;
#X connect 11 0 55 0;
#X connect 12 0 3 0;
#X connect 12 0 55 0;
#X connect 13 0 3 0;
#X connect 13 0 55 0;
#X connect 14 0 3 0;
#X connect 14 0 55 0;
#X connect 15 0 3 0;
#X connect 15 0 55 0;
#X connect 16 0 3 0;
#X connect 16 0 55 0;
#X connect 17 0 3 0;
#X connect 17 0 55 0;
#X connect 18 0 3 0;
#X connect 18 0 55 0;
#X connect 19 0 3 0;
#X connect 19 0 55 0;
#X connect 20 0 3 0;
#X connect 20 0 55 0;
#X connect 21 0 3 0;
#X connect 21 0 55 0;
#X connect 22 0 3 0;
#X connect 22 0 55 0;
#X connect 23 0 3 0;
#X connect 23 0 55 0;
#X connect 24 0 3 0;
#X connect 24 0 55 0;
#X connect 25 0 3 0;
#X connect 25 0 55 0;
#X connect 26 0 53 1;
#X connect 29 0 30 0;
#X connect 29 1 31 0;
#X connect 29 2 32 0;
#X connect 29 3 33 0;
#X connect 29 4 34 0;
#X connect 29 5 35 0;
#X connect 29 6 36 0;
#X connect 29 7 37 0;
#X connect 29 8 38 0;
#X connect 29 9 39 0;
#X connect 29 10 40 0;
#X connect 29 11 41 0;
#X connect 29 12 42 0;
#X connect 29 13 43 0;
#X connect 29 14 44 0;
#X connect 29 15 45 0;
#X connect 30 0 28 0;
#X connect 31 0 28 0;
#X connect 32 0 28 0;
#X connect 33 0 28 0;
#X connect 34 0 28 0;
#X connect 35 0 28 0;
#X connect 36 0 28 0;
#X connect 37 0 28 0;
#X connect 38 0 28 0;
#X connect 39 0 28 0;
#X connect 40 0 28 0;
#X connect 41 0 28 0;
#X connect 42 0 28 0;
#X connect 43 0 28 0;
#X connect 44 0 28 0;
#X connect 45 0 28 0;
#X connect 46 0 54 0;
#X connect 48 0 4 0;
#X connect 48 0 3 0;
#X connect 48 0 6 0;
#X connect 48 0 50 0;
#X connect 48 0 57 0;
#X connect 49 0 48 0;
#X connect 50 0 52 0;
#X connect 51 0 58 0;
#X connect 54 0 10 0;
#X connect 54 1 11 0;
#X connect 54 2 12 0;
#X connect 54 3 13 0;
#X connect 54 4 14 0;
#X connect 54 5 15 0;
#X connect 54 6 16 0;
#X connect 54 7 17 0;
#X connect 54 8 18 0;
#X connect 54 9 19 0;
#X connect 54 10 20 0;
#X connect 54 11 21 0;
#X connect 54 12 22 0;
#X connect 54 13 23 0;
#X connect 54 14 24 0;
#X connect 54 15 25 0;
#X connect 54 16 56 0;
#X connect 55 0 51 0;
#X connect 55 0 59 0;
#X connect 57 0 52 1;
#X connect 58 0 50 0;
#X connect 59 0 58 0;
#X connect 60 0 46 0;
#X connect 61 0 0 0;
#X connect 62 0 63 0;
#X connect 62 0 3 0;
#X connect 63 0 53 1;
#X restore 326 586 pd sceneAselect;
#N canvas 744 62 651 784 sceneBselect 1;
#X obj 990 417 route;
#X obj 46 666 outlet selected page;
#X text 311 529 turn off last selected->;
#X obj 700 417 nbx 5 14 -1e+37 1e+37 0 1 empty empty empty 0 -8 0 10
#fcfcfc #000000 #000000 18 256;
#X msg 252 101 127;
#X obj 93 568 nbx 5 14 -1e+37 1e+37 0 1 empty empty empty 0 -8 0 10
#fcfcfc #000000 #000000 -86 256;
#X obj 46 312 delay 100 1 msec;
#X text 146 567 ->remember last page selected;
#X text 211 21 ->recall page selected before last boot;
#X obj 93 533 - 105;
#X msg 372 131 3;
#X msg 406 130 19;
#X msg 438 130 35;
#X msg 475 130 51;
#X msg 510 130 67;
#X msg 545 130 83;
#X msg 579 130 99;
#X msg 615 130 115;
#X msg 648 130 2;
#X msg 679 130 18;
#X msg 711 130 34;
#X msg 743 130 50;
#X msg 774 130 66;
#X msg 806 130 82;
#X msg 838 130 98;
#X msg 878 130 114;
#X obj 1028 488 - 33;
#X text 855 487 turn on selected color->;
#X obj 715 629 route 3 19 35 51 67 83 99 115 2 18 34 50 66 82 98 114
;
#X msg 715 664 0;
#X msg 735 666 1;
#X msg 767 666 2;
#X msg 804 666 3;
#X msg 839 666 4;
#X msg 874 666 5;
#X msg 908 666 6;
#X msg 944 666 7;
#X msg 977 666 8;
#X msg 1008 666 9;
#X msg 1040 666 10;
#X msg 1072 666 11;
#X msg 1103 666 12;
#X msg 1135 666 13;
#X msg 1167 666 14;
#X msg 1199 666 15;
#X obj 828 55 change;
#X text 250 486 remember each PD to have different VALUE NAME!->;
#X obj 37 57 bng 15 250 50 0 empty empty empty 17 7 0 10 #fcfcfc #000000
#000000;
#X obj 37 22 inlet from recall bang 2;
#X obj 595 526 nbx 5 14 -1e+37 1e+37 0 1 empty empty empty 0 -8 0 10
#fcfcfc #000000 #000000 50 256;
#X obj 568 457 bng 15 250 50 0 empty empty empty 17 7 0 10 #fcfcfc
#000000 #000000;
#X obj 433 84 route 3 19 35 51 67 83 99 115 2 18 34 50 66 82 98 114
;
#X obj 596 423 change;
#X msg 908 106 0, f 2;
#X msg 487 530 16;
#X obj 600 459 nbx 5 14 -1e+37 1e+37 0 1 empty empty empty 0 -8 0 10
#fcfcfc #000000 #000000 18 256;
#X obj 598 490 value scenb;
#X obj 1036 212 inlet notein left;
#X obj 1040 250 inlet notein right;
#X obj 589 636 noteout 1;
#X obj 1004 568 noteout 1;
#X obj 262 418 inlet to switch to next page;
#X msg 452 451 16;
#X obj 890 731 ctlout 56 17;
#X connect 0 1 26 0;
#X connect 3 0 28 0;
#X connect 3 0 60 0;
#X connect 4 0 26 0;
#X connect 5 0 1 0;
#X connect 6 0 5 0;
#X connect 9 0 5 0;
#X connect 10 0 3 0;
#X connect 10 0 52 0;
#X connect 11 0 3 0;
#X connect 11 0 52 0;
#X connect 12 0 3 0;
#X connect 12 0 52 0;
#X connect 13 0 3 0;
#X connect 13 0 52 0;
#X connect 14 0 3 0;
#X connect 14 0 52 0;
#X connect 15 0 3 0;
#X connect 15 0 52 0;
#X connect 16 0 3 0;
#X connect 16 0 52 0;
#X connect 17 0 3 0;
#X connect 17 0 52 0;
#X connect 18 0 3 0;
#X connect 18 0 52 0;
#X connect 19 0 3 0;
#X connect 19 0 52 0;
#X connect 20 0 3 0;
#X connect 20 0 52 0;
#X connect 21 0 3 0;
#X connect 21 0 52 0;
#X connect 22 0 3 0;
#X connect 22 0 52 0;
#X connect 23 0 3 0;
#X connect 23 0 52 0;
#X connect 24 0 3 0;
#X connect 24 0 52 0;
#X connect 25 0 3 0;
#X connect 25 0 52 0;
#X connect 26 0 60 1;
#X connect 28 0 29 0;
#X connect 28 1 30 0;
#X connect 28 2 31 0;
#X connect 28 3 32 0;
#X connect 28 4 33 0;
#X connect 28 5 34 0;
#X connect 28 6 35 0;
#X connect 28 7 36 0;
#X connect 28 8 37 0;
#X connect 28 9 38 0;
#X connect 28 10 39 0;
#X connect 28 11 40 0;
#X connect 28 12 41 0;
#X connect 28 13 42 0;
#X connect 28 14 43 0;
#X connect 28 15 44 0;
#X connect 29 0 63 0;
#X connect 30 0 63 0;
#X connect 31 0 63 0;
#X connect 32 0 63 0;
#X connect 33 0 63 0;
#X connect 34 0 63 0;
#X connect 35 0 63 0;
#X connect 36 0 63 0;
#X connect 37 0 63 0;
#X connect 38 0 63 0;
#X connect 39 0 63 0;
#X connect 40 0 63 0;
#X connect 41 0 63 0;
#X connect 42 0 63 0;
#X connect 43 0 63 0;
#X connect 44 0 63 0;
#X connect 45 0 51 0;
#X connect 47 0 4 0;
#X connect 47 0 3 0;
#X connect 47 0 6 0;
#X connect 47 0 49 0;
#X connect 47 0 54 0;
#X connect 48 0 47 0;
#X connect 49 0 59 0;
#X connect 50 0 56 0;
#X connect 51 0 10 0;
#X connect 51 1 11 0;
#X connect 51 2 12 0;
#X connect 51 3 13 0;
#X connect 51 4 14 0;
#X connect 51 5 15 0;
#X connect 51 6 16 0;
#X connect 51 7 17 0;
#X connect 51 8 18 0;
#X connect 51 9 19 0;
#X connect 51 10 20 0;
#X connect 51 11 21 0;
#X connect 51 12 22 0;
#X connect 51 13 23 0;
#X connect 51 14 24 0;
#X connect 51 15 25 0;
#X connect 51 16 53 0;
#X connect 52 0 50 0;
#X connect 52 0 55 0;
#X connect 54 0 59 1;
#X connect 55 0 56 0;
#X connect 56 0 49 0;
#X connect 57 0 45 0;
#X connect 58 0 0 0;
#X connect 61 0 62 0;
#X connect 61 0 3 0;
#X connect 62 0 60 1;
#X restore 513 585 pd sceneBselect;
#X obj 522 398 notein 1;
#X obj 334 516 spigot 4;
#X obj 401 515 spigot 4;
#X obj 510 513 spigot 3;
#X obj 574 513 spigot 3;
#X obj 409 322 nbx 5 14 -1e+37 1e+37 0 0 empty empty empty 0 -8 0 10
#fcfcfc #000000 #000000 0 256;
#X obj 252 633 nbx 5 14 -1e+37 1e+37 0 0 empty empty empty 0 -8 0 10
#fcfcfc #000000 #000000 0 256;
#X obj 336 629 nbx 5 14 -1e+37 1e+37 0 0 empty empty empty 0 -8 0 10
#fcfcfc #000000 #000000 0 256;
#X obj 278 381 route 4;
#X msg 257 422 4;
#X msg 303 420 0;
#X msg 419 418 0;
#X obj 394 379 route 3;
#X msg 373 420 3;
#X obj 179 488 bng 15 250 50 0 empty empty empty 17 7 0 10 #fcfcfc
#000000 #000000;
#X obj 246 491 bng 15 250 50 0 empty empty empty 17 7 0 10 #fcfcfc
#000000 #000000;
#X obj 53 250 loadbang;
#X obj 1070 81 loadbang;
#X obj 1007 141 bng 15 250 50 0 empty empty empty 17 7 0 10 #fcfcfc
#000000 #000000;
#X obj 1019 187 delay 3000 1 msec;
#X connect 3 0 8 1;
#X connect 4 0 6 0;
#X connect 4 0 3 0;
#X connect 4 0 5 0;
#X connect 5 0 8 2;
#X connect 6 0 8 0;
#X connect 14 0 12 0;
#X connect 15 0 14 0;
#X connect 16 0 12 0;
#X connect 18 0 29 0;
#X connect 19 0 13 0;
#X connect 21 0 20 0;
#X connect 24 0 25 0;
#X connect 24 0 27 0;
#X connect 24 1 26 0;
#X connect 24 1 28 0;
#X connect 25 0 22 2;
#X connect 25 0 30 0;
#X connect 26 0 22 3;
#X connect 26 0 31 0;
#X connect 27 0 23 2;
#X connect 28 0 23 3;
#X connect 29 0 32 0;
#X connect 29 0 36 0;
#X connect 32 0 33 0;
#X connect 32 1 34 0;
#X connect 33 0 25 1;
#X connect 33 0 26 1;
#X connect 33 0 38 0;
#X connect 34 0 25 1;
#X connect 34 0 26 1;
#X connect 35 0 27 1;
#X connect 35 0 28 1;
#X connect 36 0 37 0;
#X connect 36 1 35 0;
#X connect 37 0 27 1;
#X connect 37 0 28 1;
#X connect 37 0 39 0;
#X connect 38 0 22 0;
#X connect 38 0 23 1;
#X connect 39 0 23 0;
#X connect 39 0 22 1;
#X connect 40 0 18 0;
#X connect 41 0 42 0;
#X connect 42 0 43 0;
#X connect 43 0 4 0;
